<svg width="750" height="500" viewBox="0 0 750 500" fill="none" xmlns="http://www.w3.org/2000/svg">
<path d="M750 0H0V500H750V0Z" fill="#CCCC99"/>
<g opacity="0.3">
<path d="M261.01 143C261.01 143 263.91 151.8 265.01 162.4C266.21 167.8 270.11 166 269.31 160.5C268.61 155 263.01 143.5 263.01 143.5C263.01 143.5 270.61 149.9 273.01 160.1C275.41 170.3 281.41 168.1 280.71 164.4C280.01 160.7 270.21 145 265.71 143C280.41 151.2 283.71 161.5 286.41 163.4C289.11 165.3 293.41 161 288.41 155.5C283.41 150 269.41 141.5 265.91 141.3C280.31 144 284.51 149.7 287.71 150.2C290.91 150.6 292.01 148.2 287.61 144.4C283.21 140.6 265.81 139.6 265.81 139.6C272.61 137.5 280.41 138.7 283.21 138.7C285.91 138.8 289.61 135.8 284.11 134.5C278.71 133.1 265.91 137.5 264.61 138.1C267.41 134.1 275.61 132.9 277.91 131.1C280.21 129.3 278.51 125.8 273.31 127.6C268.11 129.4 263.11 136.6 262.81 137.2C263.11 133 266.21 130.3 267.81 128C269.41 125.7 268.31 122.7 264.51 124.7C260.71 126.7 260.31 138.3 260.31 138.3C258.91 133.9 258.21 131 258.81 127.8C259.41 124.7 256.51 123.7 254.61 125.6C252.71 127.5 254.91 136.2 257.71 138.9C252.91 136.7 253.31 130.9 250.41 131C247.61 131.1 247.21 134.3 248.91 136.6C250.61 138.9 256.91 140.4 257.61 140.5C248.31 143.2 247.01 147 247.41 150.1C247.81 153.2 250.41 152.2 251.61 149.5C252.81 146.8 256.21 142.7 257.91 142C253.21 149 253.21 155.6 255.71 160.2C258.21 164.8 262.51 164.6 260.91 159.9C259.21 155.4 258.11 144.9 261.01 143Z" fill="#405B27"/>
</g>
<g opacity="0.3">
<path d="M98.3104 73.7C98.3104 73.7 103.31 88.9 105.21 107.3C107.31 116.7 113.91 113.6 112.71 104.1C111.31 94.6 101.91 74.7 101.91 74.7C101.91 74.7 114.91 85.8 119.11 103.3C123.31 120.9 133.61 117.1 132.31 110.7C131.01 104.3 114.21 77.2 106.41 73.7C131.91 87.8 137.71 105.7 142.31 108.9C147.01 112.1 154.41 104.8 145.71 95.3C137.11 85.9 112.71 71.3 106.81 70.9C131.71 75.6 138.91 85.5 144.41 86.2C150.01 86.8 151.91 82.7 144.31 76.1C136.71 69.5 106.71 67.8 106.71 67.8C118.41 64.2 132.01 66.2 136.71 66.3C141.41 66.4 147.71 61.3 138.31 59C128.91 56.6 106.81 64.2 104.51 65.3C109.31 58.5 123.51 56.4 127.61 53.1C131.71 49.9 128.61 43.9 119.61 47.1C110.61 50.2 101.91 62.8 101.51 63.9C102.01 56.7 107.41 52 110.11 48C112.91 44 110.91 38.9 104.41 42.3C97.9104 45.7 97.2104 65.8 97.2104 65.8C94.8104 58.1 93.6104 53.2 94.7104 47.7C95.8104 42.3 90.6104 40.6 87.5104 43.9C84.4104 47.2 88.0104 62.2 92.9104 67C84.4104 63.1 85.1104 53.1 80.2104 53.2C75.3104 53.3 74.7104 58.9 77.7104 62.9C80.7104 67 91.5104 69.4 92.7104 69.7C76.8104 74.3 74.4104 80.8 75.1104 86.3C75.8104 91.9 80.2104 89.9 82.3104 85.3C84.4104 80.7 90.2104 73.6 93.2104 72.3C85.0104 84.5 85.0104 95.7 89.3104 103.7C93.6104 111.7 101.11 111.3 98.2104 103.2C95.3104 95.2 93.4104 77.1 98.3104 73.7Z" fill="#405B27"/>
</g>
<g opacity="0.3">
<path d="M96.0104 279.2C96.0104 279.2 105.01 274.1 116.41 270.3C122.11 267.7 119.31 263.9 113.31 266C107.41 268.1 96.1104 276.7 96.1104 276.7C96.1104 276.7 101.41 267 112.01 262C122.61 256.9 118.81 250.9 114.91 252.6C111.01 254.2 96.1104 268.6 94.9104 274C100.51 256 111.01 250 112.51 246.5C113.91 243 108.21 239.4 103.41 246.2C98.6104 252.9 92.6104 270.3 93.1104 274.2C92.7104 257.7 98.1104 251.9 97.7104 248.3C97.3104 244.7 94.5104 244 91.3104 249.7C88.1104 255.4 91.1104 274.7 91.1104 274.7C87.2104 267.7 86.7104 258.9 86.1104 255.8C85.5104 252.7 81.5104 249.5 81.3104 255.7C81.1104 261.9 88.8104 275 89.8104 276.3C84.9104 274.2 81.6104 265.4 79.0104 263.3C76.4104 261.2 73.1104 263.9 76.2104 269.2C79.4104 274.5 88.5104 278.2 89.3104 278.4C84.7104 279.1 81.0104 276.2 78.1104 275C75.2104 273.7 72.2104 275.7 75.3104 279.3C78.3104 282.9 91.2104 280.7 91.2104 280.7C86.7104 283.3 83.7104 284.6 80.1104 284.7C76.5104 284.8 76.1104 288.2 78.7104 289.8C81.2104 291.3 90.2104 287.1 92.6104 283.3C91.2104 289.2 84.9104 290.1 85.6104 293.2C86.3104 296.3 90.0104 295.9 92.1104 293.5C94.3104 291 94.3104 283.9 94.4104 283.1C99.5104 292.7 103.91 293.3 107.31 292.1C110.71 290.9 108.91 288.3 105.71 287.7C102.51 287 97.2104 284.2 96.0104 282.5C104.81 286.1 111.91 284.6 116.41 280.7C120.91 276.8 119.61 272.2 114.91 275.1C110.11 278.3 98.9104 281.9 96.0104 279.2Z" fill="#405B27"/>
</g>
<g opacity="0.3">
<path d="M161.01 410.4C161.01 410.4 176.11 407.8 193.91 408.4C203.11 407.8 201.11 400.9 191.81 400.9C182.51 400.8 162.41 407.1 162.41 407.1C162.41 407.1 174.71 396.3 192.11 394.7C209.51 393.1 207.21 382.8 200.91 383.1C194.71 383.4 166.51 395.7 162.11 402.6C179.21 380.4 196.91 377.4 200.61 373.4C204.41 369.4 198.31 361.4 188.21 368.2C178.11 375.1 160.71 396.2 159.51 401.8C167.51 378.7 177.91 373.4 179.31 368.1C180.71 362.9 177.01 360.5 169.71 366.8C162.41 373.1 156.51 401.5 156.51 401.5C154.71 389.8 158.51 377.2 159.21 372.7C160.01 368.2 156.01 361.6 152.51 370.1C148.91 378.6 153.01 400.8 153.81 403.1C148.01 397.6 147.91 383.8 145.51 379.5C143.01 375.2 136.91 377.3 138.61 386.2C140.31 395.2 151.01 405.1 152.01 405.7C145.21 404.3 141.61 398.4 138.21 395.2C134.81 392 129.61 393.2 132.01 399.8C134.41 406.4 153.31 409.9 153.31 409.9C145.71 411.2 140.81 411.5 135.81 409.8C130.81 408 128.41 412.7 131.21 416.1C134.01 419.6 148.61 418.2 153.91 414.1C149.01 421.6 139.61 419.6 139.11 424.3C138.51 429 143.71 430.4 148.01 428.1C152.31 425.8 156.11 415.9 156.51 414.8C158.71 430.8 164.51 433.9 169.91 434C175.31 434.1 174.11 429.6 170.01 427C165.91 424.4 160.01 417.8 159.21 414.8C169.61 424.3 180.31 425.9 188.51 422.8C196.71 419.7 197.31 412.6 189.21 414.3C180.91 416.4 163.51 415.6 161.01 410.4Z" fill="#405B27"/>
</g>
<g opacity="0.3">
<path d="M657.11 434.8C657.11 434.8 654.11 419.8 654.11 402C653.21 392.9 646.41 395 646.61 404.3C646.81 413.6 653.71 433.5 653.71 433.5C653.71 433.5 642.51 421.5 640.41 404.2C638.31 386.9 628.01 389.5 628.61 395.7C629.11 401.9 642.21 429.6 649.41 433.9C626.71 417.5 623.11 399.9 619.01 396.3C614.81 392.7 607.01 398.9 614.21 408.9C621.41 418.8 643.01 435.5 648.71 436.5C625.41 429.3 619.71 419 614.41 417.8C609.11 416.6 606.91 420.3 613.41 427.4C620.01 434.5 648.51 439.5 648.51 439.5C636.91 441.7 624.11 438.3 619.61 437.7C615.11 437.1 608.61 441.2 617.21 444.5C625.81 447.8 647.91 443 650.21 442.2C644.91 448.2 631.11 448.7 626.91 451.3C622.71 453.9 625.01 459.9 633.91 458C642.81 456.1 652.41 445 653.01 444C651.81 450.8 646.11 454.7 643.01 458.2C639.91 461.7 641.31 466.8 647.81 464.2C654.31 461.6 657.21 442.6 657.21 442.6C658.71 450.2 659.21 455.1 657.61 460.1C656.01 465.2 660.71 467.4 664.11 464.5C667.51 461.6 665.71 447 661.41 441.9C669.11 446.6 667.31 456 672.01 456.4C676.71 456.8 677.91 451.6 675.51 447.4C673.11 443.2 663.11 439.7 661.91 439.3C677.81 436.6 680.71 430.7 680.61 425.3C680.51 419.9 676.11 421.3 673.61 425.4C671.11 429.6 664.71 435.7 661.81 436.6C670.91 425.9 672.21 415.1 668.91 407C665.61 398.9 658.41 398.5 660.31 406.6C662.41 414.6 662.21 432.1 657.11 434.8Z" fill="#405B27"/>
</g>
<g opacity="0.3">
<path d="M373.71 298.4C373.71 298.4 370.71 283.4 370.71 265.6C369.81 256.5 363.01 258.6 363.21 267.9C363.41 277.2 370.31 297.1 370.31 297.1C370.31 297.1 359.11 285.1 357.01 267.8C354.91 250.5 344.61 253.1 345.21 259.3C345.71 265.5 358.81 293.2 366.01 297.5C343.31 281.1 339.71 263.5 335.61 259.9C331.41 256.3 323.61 262.5 330.81 272.5C338.01 282.4 359.61 299.1 365.31 300.1C342.01 292.9 336.31 282.6 331.01 281.4C325.71 280.2 323.51 283.9 330.01 291C336.61 298.1 365.11 303.1 365.11 303.1C353.51 305.3 340.71 301.9 336.21 301.3C331.71 300.7 325.21 304.8 333.81 308.1C342.41 311.4 364.51 306.6 366.81 305.8C361.51 311.8 347.71 312.3 343.51 314.9C339.31 317.5 341.61 323.5 350.51 321.6C359.41 319.7 369.01 308.6 369.61 307.6C368.41 314.4 362.71 318.3 359.61 321.8C356.51 325.3 357.91 330.4 364.41 327.8C370.91 325.2 373.81 306.2 373.81 306.2C375.31 313.8 375.81 318.7 374.21 323.7C372.61 328.8 377.31 331 380.71 328.1C384.11 325.2 382.31 310.6 378.01 305.5C385.71 310.2 383.91 319.6 388.61 320C393.31 320.4 394.51 315.2 392.11 311C389.71 306.8 379.71 303.3 378.51 302.9C394.41 300.2 397.31 294.3 397.21 288.9C397.11 283.5 392.71 284.9 390.21 289C387.71 293.2 381.31 299.3 378.41 300.2C387.51 289.5 388.81 278.7 385.51 270.6C382.21 262.5 375.01 262.1 376.91 270.2C379.01 278.2 378.81 295.7 373.71 298.4Z" fill="#405B27"/>
</g>
<g opacity="0.3">
<path d="M589.51 260.6C589.51 260.6 587.41 249.9 587.41 237.2C586.81 230.7 581.91 232.2 582.11 238.8C582.21 245.4 587.21 259.6 587.21 259.6C587.21 259.6 579.21 251.1 577.71 238.7C576.21 226.4 568.911 228.2 569.311 232.6C569.711 237 579.01 256.8 584.11 259.8C567.91 248.1 565.41 235.6 562.41 233C559.41 230.4 553.91 234.9 559.01 242C564.11 249.1 579.51 261 583.61 261.7C567.01 256.6 562.91 249.2 559.21 248.4C555.41 247.5 553.91 250.2 558.51 255.2C563.21 260.3 583.51 263.8 583.51 263.8C575.21 265.4 566.11 262.9 562.91 262.5C559.71 262.1 555.11 265 561.21 267.3C567.31 269.7 583.11 266.2 584.71 265.7C580.91 270 571.11 270.3 568.11 272.2C565.11 274.1 566.71 278.3 573.11 277C579.41 275.6 586.31 267.7 586.71 267C585.81 271.8 581.81 274.6 579.61 277.1C577.41 279.6 578.41 283.2 583.01 281.4C587.61 279.5 589.71 266 589.71 266C590.81 271.4 591.11 274.9 590.01 278.5C588.91 282.1 592.21 283.7 594.61 281.6C597.01 279.5 595.71 269.1 592.71 265.5C598.21 268.8 596.911 275.5 600.311 275.8C603.611 276.1 604.511 272.4 602.811 269.4C601.111 266.4 594.01 263.9 593.11 263.6C604.41 261.7 606.51 257.5 606.41 253.6C606.31 249.7 603.21 250.8 601.41 253.7C599.61 256.7 595.11 261 593.01 261.7C599.51 254.1 600.41 246.4 598.11 240.6C595.71 234.8 590.61 234.5 592.01 240.3C593.31 246.2 593.11 258.6 589.51 260.6Z" fill="#405B27"/>
</g>
<g opacity="0.3">
<path d="M521.71 108.7C521.71 108.7 510.81 109.6 498.21 108.2C491.71 108.1 492.61 113.1 499.21 113.7C505.81 114.3 520.41 111 520.41 111C520.41 111 511.01 118 498.61 118.1C486.21 118.2 487.21 125.7 491.61 125.8C496.01 125.9 516.71 118.9 520.31 114.1C506.91 128.9 494.11 130 491.31 132.6C488.41 135.3 492.21 141.3 499.81 137C507.41 132.7 520.91 118.7 522.11 114.8C515.21 130.7 507.41 133.9 506.11 137.6C504.81 141.3 507.31 143.1 512.81 139.1C518.41 135 524.21 115.2 524.21 115.2C524.81 123.6 521.41 132.4 520.61 135.5C519.81 138.6 522.21 143.6 525.21 137.7C528.21 131.8 526.61 115.8 526.21 114.2C530.01 118.4 529.31 128.2 530.81 131.4C532.31 134.6 536.71 133.4 536.11 127C535.51 120.5 528.41 112.9 527.71 112.4C532.41 113.8 534.71 118.1 537.01 120.6C539.21 123.1 543.01 122.5 541.61 117.7C540.21 112.9 527.11 109.3 527.11 109.3C532.61 108.8 536.11 108.9 539.51 110.4C543.01 111.9 544.91 108.8 543.11 106.1C541.31 103.5 530.81 103.6 526.91 106.2C530.81 101.1 537.41 103.1 538.01 99.8C538.71 96.5 535.11 95.2 531.91 96.6C528.71 98 525.51 104.8 525.11 105.6C524.51 94.1 520.51 91.6 516.71 91.2C512.91 90.8 513.51 94.1 516.21 96.2C519.01 98.3 522.81 103.3 523.21 105.4C516.31 98.1 508.81 96.3 502.81 98C496.81 99.7 495.91 104.8 501.81 104.1C507.81 103.3 520.21 104.9 521.71 108.7Z" fill="#405B27"/>
</g>
<g opacity="0.3">
<path d="M663.311 67.7C663.311 67.7 649.61 67.7 634.01 64.6C625.81 63.8 626.51 70.1 634.71 71.5C642.91 72.9 661.51 70.4 661.51 70.4C661.51 70.4 649.01 78.1 633.51 77C618.01 75.8 618.51 85.3 624.01 85.9C629.61 86.5 656.11 79.9 661.11 74.4C642.81 91.4 626.81 91.5 622.91 94.5C619.01 97.5 623.11 105.4 633.11 100.9C643.11 96.3 661.411 80.3 663.311 75.5C652.911 94.7 642.91 97.8 640.91 102.2C638.91 106.6 641.81 109.2 649.11 104.7C656.41 100.2 665.811 76.1 665.811 76.1C665.711 86.6 660.51 97.2 659.21 101.1C657.91 105 660.411 111.4 664.811 104.4C669.211 97.4 668.81 77.3 668.61 75.1C672.91 80.8 670.91 93 672.51 97.1C674.11 101.2 679.71 100.3 679.61 92.2C679.41 84.1 671.41 73.7 670.71 73C676.51 75.3 678.81 80.9 681.41 84.2C683.91 87.5 688.71 87.2 687.51 81.1C686.31 74.9 670.21 69 670.21 69C677.11 69 681.51 69.4 685.61 71.7C689.81 74 692.51 70.3 690.61 66.8C688.71 63.3 675.611 62.4 670.311 65.2C675.711 59.3 683.71 62.5 684.91 58.4C686.11 54.4 681.71 52.4 677.61 53.8C673.51 55.2 668.71 63.3 668.21 64.3C668.61 49.9 663.91 46.3 659.21 45.5C654.51 44.6 654.91 48.8 658.11 51.7C661.31 54.6 665.611 61.3 665.811 64C658.011 54.1 648.81 51.1 641.11 52.6C633.41 54.1 631.81 60.3 639.21 60C646.51 59.5 661.811 62.8 663.311 67.7Z" fill="#405B27"/>
</g>
</svg>
