<?xml version="1.0" encoding="utf-8"?>
<!-- Generator: Adobe Illustrator 23.0.0, SVG Export Plug-In . SVG Version: 6.00 Build 0)  -->
<svg version="1.1" id="Layer_1" xmlns="http://www.w3.org/2000/svg" xmlns:xlink="http://www.w3.org/1999/xlink" x="0px" y="0px"
	 viewBox="0 0 1280 1024" style="enable-background:new 0 0 1280 1024;" xml:space="preserve">
<style type="text/css">
	.st0{fill:#40542D;}
	.st1{fill:#304221;}
	.st2{fill:none;}
	.st3{opacity:0.3;fill:#669966;enable-background:new    ;}
</style>
<g id="Layer_3">
	<rect class="st0" width="1280" height="1024"/>
</g>
<g>
	<path class="st1" d="M384.5,173.5c-0.2,0.1-0.3,0.1-0.5,0.2C385.8,172.9,386.1,172.8,384.5,173.5z"/>
	<path class="st1" d="M1276.9,678.7c0-0.2,0-0.5-0.1-0.7c0,0.3,0.1,0.8,0.1,1.5C1276.9,679.2,1276.9,679,1276.9,678.7z"/>
	<path class="st1" d="M1277.3,683.1c0-0.3,0-0.6-0.1-0.8C1277.2,682.2,1277.2,682.4,1277.3,683.1z"/>
	<path class="st1" d="M1276.8,677.7L1276.8,677.7L1276.8,677.7L1276.8,677.7z M1280,699.8c-0.1-7.2-0.2-11.6-0.2-11.6v27.2
		c0,0-0.1-0.8-0.4-5.5c0,0,0-0.1,0-0.4c0-0.1,0-0.2,0-0.3c0-0.2,0-0.4,0-0.5s0-0.2,0-0.3l0,0c0-0.1,0-0.3,0-0.4v-0.1v-0.1
		c0-0.1,0-0.2,0-0.3s0-0.2,0-0.3c0-0.5-0.1-1-0.1-1.6c0-0.3,0-0.5-0.1-0.8c0,0,0-0.2,0-0.5l0,0c-0.1-1.1-0.3-3.6-0.6-7.3
		c0-0.3-0.1-0.6-0.1-1c0-0.3-0.1-1.4-0.2-2.9c0-0.4-0.1-0.8-0.1-1.2c0-0.1,0-0.6-0.1-1.2c-0.1-0.8-0.1-1.5-0.2-2.3l-0.2-2.2
		c-0.1-1.5-0.2-2.6-0.3-3.2c0-0.1,0-0.2,0-0.3v-0.1c0-0.1,0-0.2,0-0.2v-0.1c-0.1-1.5-0.2-2.6-0.3-3.3c0-0.1,0-0.1,0-0.2v-0.1
		c0-0.1,0-0.2,0-0.3s0-0.2,0-0.3V678v-0.1c0-0.1,0-0.1,0-0.1l0,0v-0.1c0-0.3-0.1-0.6-0.1-0.8c0-0.1,0-0.1,0-0.2v-0.1
		c0-0.1,0-0.2,0-0.3l3.1,12.1L1280,0H539c0,0,13.1,39.3-8.7,70.9l0,0l0,0c-0.8,1.7-27.7,56.1-141.8,101c0,0-0.1,0-0.1,0.1
		c-1,0.4-1.9,0.7-2.8,1.1c0,0,0,0-0.1,0s-0.1,0.1-0.2,0.1s-0.1,0-0.2,0.1c-0.1,0-0.1,0-0.2,0.1c-0.1,0-0.2,0.1-0.2,0.1s0,0-0.1,0
		s-0.1,0.1-0.2,0.1c-0.8,0.3-2.2,0.8-4,1.6l0,0c-0.1,0-0.1,0-0.2,0.1c-14.6,6.2-45.3,20.9-63.8,42.8c-24.9,29.6-27.9,90-63.4,121.3
		c0,0-19.5,18.3-45.5-8.7c0,0-5-9-26-1c0,0-68,24-114,1c0,0,132,175,143,216c0,0,13,23,12,56c0,0,5,25-17,48c0,0-14,19-13,83
		c0,0,1.5,34.7-6.7,66.6c-1.4,5.6-3.2,11.1-5.3,16.4c0,0-22,53-79,79c0,0-38.6,21.1-72.7,72.4L43,1024h242.7
		c2.9-0.8,5.9-1.4,8.6-1.8c5.7-0.9,9.8,1.9,14.8-1.7c6.2-4.6,12.1-9.3,18.3-13.9c7.8-5.9,16.3-4.8,24.1,0.1c1.8,1.1,2.3,2.3,4.6,3.3
		c2,0.8,4.1,0.5,6,1.5c3.8,2,7,5.2,10,8.1c2-0.5,3.6-3.3,5.1-4.7c2.6-2.3,5.9-4.3,9-5.8c8.9-4.4,20.4-5.9,30.1-8.3
		c11.5-2.8,22.2-9.1,32.5-14.7c6.1-3.4,12.4-7.1,18.3-10.9c1-0.7,2.2-2.7,3.2-3.2c3.5-1.9,6.3-0.6,9.9,0.2c8.4,1.9,15.6,1,24.2,0.9
		c6-0.1,7.3-2.6,11.9-6c2.6-1.9,4.9-1.8,7.8-2.8c3.6-1.2,6.9-3.5,10.2-5.4c8.2-4.6,18-7.5,25.6-13c3.7-2.6,6.5-5.5,10.8-7.3
		c2.7-1.2,5.1-2.4,7.6-4c5.2-3.2,7.7-7.7,14.2-9.4c4.8-1.3,6.9-3.1,11.1-5.7c11-6.8,27.8-9.9,40.3-9.6c17.4,0.3,33.4,6.1,51,1.8
		c7.8-1.9,16.2-3.3,24.1-3c1.9,0.1,2.5-0.5,4.3,0.3c1.6,0.8,2.3,2.5,3.8,3.4c1.5,1,2.7,1.4,4.7,0.9c1.1-0.3,4.9-4.1,4.9-4.1
		c2.8-2.2,6-3.9,9.2-5.5c6.3-3.2,13-5.2,18.8-8.9c4.4-2.8,10.2-8,16-7.8c2.3,0.1,4.2,1.9,6.4,2.3c2.2,0.3,3.7-0.5,6-0.9
		c8.6-1.6,16.9-1.9,25.3-5.1c5.8-2.2,11.8-4,17.5-6.3c5-2.1,9.6-4.5,14.8-6.1c4.8-1.6,6.8-5,11.5-7.3c5.3-2.6,6.4-4.4,11.3-0.7
		c2.5,1.9,4.9,4,7.1,5.9c4.1,3.5,8-1.7,12.1-4.3c5.5-3.5,6.4-1.4,12.6,0.4c3.4,1,6.7,1.6,10.3,0.6c4.3-1.2,7.2-4.4,11.2-6
		c5.8-2.3,12.3-4.2,17.8-1.6c2.6,1.2,5.1,2.9,7.6,4.3c4.2,2.2,8.7,5.9,13.3,7.3c3.8,1.1,7.7,0.3,11.5,1.3c5.9,1.6,11.4,4.6,17.3,6.3
		c0.5,0.2,1,0.3,1.4,0.4c7.1,6.4,14.3,13.3,21.5,20.7l168-38c0,0,29.6-9.2,55.8-35c1.7,0.2,3.3,0.3,5,0.2c6.7-0.2,11.9,1,18.4,1.8
		c6.4,0.7,9.4,2,15.7,2C1282.2,829,1280.6,733.5,1280,699.8z M1276.8,677.7L1276.8,677.7L1276.8,677.7L1276.8,677.7z"/>
	<path class="st1" d="M28.8,967.9L43,1024H0C8.3,1002.3,18.4,983.6,28.8,967.9z"/>
	<path class="st1" d="M388.3,172c-1.3,0.5-2.6,1-3.8,1.5c-0.8,0.3-2.2,0.8-4,1.6C384.8,173.2,387.7,172.2,388.3,172z"/>
	<path class="st1" d="M1279.2,708.6c0-0.4-0.1-0.9-0.1-1.3c0-0.5-0.1-1.2-0.1-1.9c0-0.5-0.1-1-0.1-1.5c0.2,2.3-0.1-0.8-0.5-7.1
		c0-0.3-0.1-0.6-0.1-1c0-0.3-0.1-1.4-0.2-2.9c0-0.4-0.1-0.8-0.1-1.2c0,0.1,0-0.5-0.1-1.2c-0.1-0.8-0.1-1.5-0.2-2.3l-0.2-2.2
		c-0.2-2.3-0.3-3.7-0.3-3.9V682c-0.3-3.8-0.4-5.3-0.3-4.2c-0.1-0.7-0.1-1.2-0.1-1.7v-0.3l0,0c-0.1-1.6-0.1-1.6,0,0l3.1,12.1v27.2
		C1279.8,715.4,1279.7,714.5,1279.2,708.6z"/>
	<path class="st1" d="M1278.2,695.5c0,0.1,0,0.2,0,0.4C1278.3,696.1,1278.3,696,1278.2,695.5z"/>
	<path class="st1" d="M1279.2,708.3C1279.4,710.4,1279.4,710.4,1279.2,708.3L1279.2,708.3z"/>
	<path class="st1" d="M1279.1,707.3c0,0.4,0.1,0.7,0.1,1c0-0.4-0.1-0.8-0.1-1.3C1279.1,707.1,1279.1,707.2,1279.1,707.3z"/>
	<path class="st1" d="M1279.2,708.3C1279.4,710.4,1279.4,710.4,1279.2,708.3L1279.2,708.3z"/>
	<path class="st1" d="M1278.2,695.5c0,0.1,0,0.2,0,0.4C1278.3,696.1,1278.3,696,1278.2,695.5z"/>
	<path class="st1" d="M1279.2,708.6c0-0.4-0.1-0.9-0.1-1.3c0-0.5-0.1-1.2-0.1-1.9c0-0.5-0.1-1-0.1-1.5c0.2,2.3-0.1-0.8-0.5-7.1
		c0-0.3-0.1-0.6-0.1-1c0-0.3-0.1-1.4-0.2-2.9c0-0.4-0.1-0.8-0.1-1.2c0,0.1,0-0.5-0.1-1.2c-0.1-0.8-0.1-1.5-0.2-2.3l-0.2-2.2
		c-0.2-2.3-0.3-3.7-0.3-3.9V682c-0.3-3.8-0.4-5.3-0.3-4.2c-0.1-0.7-0.1-1.2-0.1-1.7v-0.3l0,0c-0.1-1.6-0.1-1.6,0,0l3.1,12.1v27.2
		C1279.8,715.4,1279.7,714.5,1279.2,708.6z"/>
	<path class="st1" d="M1279.1,707.3c0,0.4,0.1,0.7,0.1,1c0-0.4-0.1-0.8-0.1-1.3C1279.1,707.1,1279.1,707.2,1279.1,707.3z"/>
</g>
<g>
	<g>
		<path class="st2" d="M366.2,972.9c164.4-92.2,167.5-69,331.9-157.5s319.2,82.2,319.2,82.2l167.5-37.9c0,0,156.3-59,67.8-223.4
			C1164.1,472,856.9,435,790.6,393.9C724.2,352.8,641.2,164.3,537,19.8C435.8,30.3,69.2,243.3,53.4,300.2
			c-3.2,25.3,158,202.3,167.5,281.3s-28.5,44.3-28.5,129.6c0,85.4,0,132.8-94.8,186.5S-34,1122-34,1122S201.9,1065.1,366.2,972.9z"
			/>
		<path class="st1" d="M163.1,334.4c55.1-16.6,31.5-4.4,61.3,7.9s50.8-19.2,72.8-88.4s84.7-70.9,163.5-118.1s91-104.2,76.2-115.9
			C522.1,8.1,459.8,1,279.5,104.3S52,281.1,52,281.1C22.3,335.3,108,351,163.1,334.4z"/>
		<path class="st3" d="M163.1,334.4c55.1-16.6,31.5-4.4,61.3,7.9s50.8-19.2,72.8-88.4s84.7-70.9,163.5-118.1s91-104.2,76.2-115.9
			C522.1,8.1,459.8,1,279.5,104.3S52,281.1,52,281.1C22.3,335.3,108,351,163.1,334.4z"/>
		<path class="st1" d="M179.5,311.8c43.2-13,24.7-3.4,48,6.2s39.8-15.1,57-69.2c17.2-54.2,66.4-55.5,128.1-92.6s71.3-81.6,59.7-90.8
			s-60.4-14.8-201.7,66.2S92.4,270,92.4,270C69.1,312.5,136.3,324.8,179.5,311.8z"/>
	</g>
</g>
</svg>
