<svg xmlns="http://www.w3.org/2000/svg" viewBox="0 0 84.85 99.13"><defs><style>.cls-1,.cls-2,.cls-3,.cls-4{fill:none;stroke:#fff;stroke-width:1.75px;}.cls-1,.cls-3{stroke-miterlimit:10;}.cls-2,.cls-4{stroke-linejoin:round;}.cls-3,.cls-4{stroke-linecap:round;}</style></defs><title>cincin3</title><g id="Layer_2" data-name="Layer 2"><g id="Layer_1-2" data-name="Layer 1"><ellipse class="cls-1" cx="28.33" cy="71.07" rx="19.28" ry="19.09"/><ellipse class="cls-1" cx="28.33" cy="71.07" rx="27.45" ry="27.18"/><path class="cls-1" d="M49.19,53.41A19.42,19.42,0,0,1,56.52,52a19.09,19.09,0,1,1-7.33,36.75"/><path class="cls-1" d="M42.43,84.09a18.94,18.94,0,0,1,0-26.05"/><path class="cls-1" d="M42.43,47.75a27.18,27.18,0,1,1,0,46.64"/><path class="cls-1" d="M35.66,88.73a27,27,0,0,1,0-35.32"/><polygon class="cls-2" points="28.33 43.89 45.26 28.03 41.15 19.49 14.84 19.49 11.7 28.33 28.33 43.89"/><line class="cls-3" x1="13.32" y1="29.84" x2="43.32" y2="29.84"/><line class="cls-1" x1="34.22" y1="19.49" x2="38.59" y2="29.84"/><line class="cls-1" x1="21.08" y1="19.49" x2="16.71" y2="29.84"/><line class="cls-4" x1="27.85" y1="0.88" x2="27.85" y2="10.88"/><line class="cls-4" x1="7.23" y1="7.52" x2="12.27" y2="16.16"/><line class="cls-4" x1="48.36" y1="7.52" x2="43.32" y2="16.16"/></g></g></svg>