<svg width="96" height="131" viewBox="0 0 96 131" fill="none" xmlns="http://www.w3.org/2000/svg">
<g clip-path="url(#clip0_40_2)">
<path d="M30.0334 17.8328C30.0334 17.8328 11.8623 46.0947 19.3068 72.3265C19.3068 72.3265 21.0444 77.2624 19.7894 82.295C18.5345 87.3275 12.2484 111.723 12.2484 111.723C12.2484 111.723 10.897 118.979 5.87152 118.279C0.846085 117.58 -1.4764 118.524 1.81142 119.729C5.09925 120.935 17.1433 123.988 17.1433 123.988C17.1433 123.988 23.0886 125.393 18.2051 122.282C13.3217 119.172 12.3109 119.815 14.145 112.217C15.9792 104.62 22.5435 83.2162 22.5435 83.2162C22.5435 83.2162 25.2975 77.2624 28.5854 74.4931C31.8732 71.7238 50.0442 55.3409 46.5633 22.5241L30.0334 17.8328Z" stroke="white" stroke-miterlimit="10"/>
<path d="M30.0334 17.8328C30.0334 17.8328 20.1642 35.8249 18.5743 47.6357C18.5743 47.6357 14.2302 70.5125 22.7877 74.0666C22.7877 74.0666 31.5552 78.4964 42.7531 54.016C42.7531 54.016 48.301 40.6755 46.5634 22.5241L30.0334 17.8328Z" stroke="white" stroke-miterlimit="10"/>
<path d="M20.9762 38.1677H46.4157C45.7838 46.3074 43.2785 54.19 39.0962 61.1981C39.0962 61.1981 30.9022 75.3006 23.6451 74.3111C23.6451 74.3111 16.6265 72.4005 17.6657 59.1623C17.6657 59.1396 18.1711 43.8713 20.9762 38.1677Z" stroke="white" stroke-width="0.75" stroke-miterlimit="10"/>
<path d="M65.9666 24.2188C65.9666 24.2188 84.1377 52.4864 76.6932 78.7125C76.6932 78.7125 74.9556 83.6484 76.2106 88.6867C77.4655 93.7249 83.7516 118.109 83.7516 118.109C83.7516 118.109 85.103 125.37 90.1285 124.688C95.1539 124.006 97.4764 124.932 94.1886 126.144C90.9007 127.355 78.8567 130.403 78.8567 130.403C78.8567 130.403 72.9114 131.807 77.7949 128.697C82.6783 125.586 83.6891 126.229 81.855 118.632C80.0208 111.035 73.4452 89.5908 73.4452 89.5908C73.4452 89.5908 70.6911 83.637 67.4033 80.8791C64.1155 78.1211 45.9501 61.7156 49.4253 28.9044L65.9666 24.2188Z" stroke="white" stroke-miterlimit="10"/>
<path d="M65.9666 24.2188C65.9666 24.2188 75.8415 42.2052 77.4258 54.0217C77.4258 54.0217 81.7698 76.8985 73.218 80.4583C73.218 80.4583 64.4448 84.8824 53.2469 60.4077C53.2469 60.4077 47.699 47.0614 49.4366 28.9158L65.9666 24.2188Z" stroke="white" stroke-miterlimit="10"/>
<path d="M75.0238 44.5537H49.5843C50.2162 52.6934 52.7215 60.576 56.9038 67.5841C56.9038 67.5841 65.0978 81.6923 72.3549 80.6971C72.3549 80.6971 79.3792 78.7865 78.34 65.5483C78.3627 65.5483 77.8573 50.2573 75.0238 44.5537Z" stroke="white" stroke-width="0.75" stroke-miterlimit="10"/>
<path d="M48.9199 16.7977L46.9495 14.7335L44.1387 15.1941L45.4845 12.6807L44.1841 10.1445L46.9893 10.6506L48.9938 8.62622L49.3742 11.4524L51.9182 12.7376L49.3515 13.9772L48.9199 16.7977Z" stroke="white" stroke-width="0.75" stroke-miterlimit="10"/>
<path d="M38.4318 8.62634L36.4613 6.56783L33.6505 7.02275L34.9963 4.50931L33.6959 1.97313L36.5011 2.47923L38.5056 0.454834L38.8861 3.28103L41.43 4.56618L38.8633 5.80583L38.4318 8.62634Z" stroke="white" stroke-width="0.75" stroke-miterlimit="10"/>
<path d="M60.8163 10.6166L58.8459 8.55806L56.035 9.01298L57.3808 6.49955L56.0805 3.96336L58.8799 4.47515L60.8901 2.44507L61.2706 5.27695L63.8145 6.5621L61.2479 7.79607L60.8163 10.6166Z" stroke="white" stroke-width="0.75" stroke-miterlimit="10"/>
<path d="M53.9453 57.8088C54.6685 59.8661 55.5415 61.8675 56.5574 63.7967" stroke="white" stroke-linecap="round" stroke-linejoin="round"/>
<path d="M63.1672 73.282C64.6591 74.8728 66.3369 76.278 68.1642 77.4673" stroke="white" stroke-linecap="round" stroke-linejoin="round"/>
<path d="M41.4527 50.769C40.7326 52.8275 39.8594 54.8291 38.8406 56.7569" stroke="white" stroke-linecap="round" stroke-linejoin="round"/>
<path d="M32.2196 66.2419C30.7263 67.833 29.0488 69.24 27.2225 70.4329" stroke="white" stroke-linecap="round" stroke-linejoin="round"/>
</g>
<defs>
<clipPath id="clip0_40_2">
<rect width="96" height="131" fill="white"/>
</clipPath>
</defs>
</svg>
