<svg width="750" height="276" viewBox="0 0 750 276" fill="none" xmlns="http://www.w3.org/2000/svg">
<path d="M42 150.2C42 150.2 33.4 135.2 34.2 121.1C42.8 118.5 47.3 117 47.3 117L34.5 116.8L41.6 96.2L56.1 96.5L45.4 91.5L68.1 65.9L74.6 69.3L73.9 62.1C73.9 62.1 91.4 44.8 118.5 41.3C107.2 51.3 100.9 55.7 100.9 55.7L110.2 55.3L99.9 81.7L86.6 82.3L95.9 86.6L87.2 104.4L68.9 106.4L81.6 110.3C81.6 110.3 58.9 147.7 42 150.2Z" fill="#384F20"/>
<path d="M43.4 150C44.9 139.1 51.5 117.7 74.2 83.2C93.8 53.4 109.9 44.4 116.8 41.7C117.4 41.6 117.9 41.5 118.5 41.4C107.2 51.4 100.9 55.8 100.9 55.8L110.2 55.4L99.9 81.8L86.6 82.4L95.9 86.7L87.2 104.5L68.9 106.5L81.6 110.4C81.6 110.3 60.1 145.8 43.4 150Z" fill="#384F20"/>
<path d="M35.6 111C35.6 111 47.6 102.5 51.9 91.5C46.2 86.4 43.3 83.7 43.3 83.7L53.2 88.1L55.1 69.8L43.9 65L53.9 64.9L45.6 37.2L39.4 37.5L42.5 32.3C42.5 32.3 35.2 12.8 15.7 0.5C20.8 12.2 24.1 17.8 24.1 17.8L17.1 14.2L15.6 38L25.6 43.2L16.9 43.1L17.3 59.8L30.6 67.8L19.5 66.2C19.5 66.3 23.6 103.1 35.6 111Z" fill="#384F20"/>
<path d="M34.7 110.3C37.4 101.4 39.9 82.7 34.8 48.2C30.4 18.4 21.3 5.8 16.9 1.3C16.5 1 16.1 0.8 15.7 0.5C20.8 12.2 24.1 17.8 24.1 17.8L17.1 14.2L15.6 38L25.6 43.2L16.9 43.1L17.3 59.8L30.6 67.8L19.5 66.2C19.5 66.3 23.4 101.2 34.7 110.3Z" fill="#384F20"/>
<path d="M47.3 168.6C47.3 168.6 61.3 136.3 27.6 83.7C3.9 46.6 -40 38.4 -40 38.4L-34.2 58.7L-9.2 64.3L-25.5 67.5L-19.1 79.8L8.7 85.9H-14.6L-7.2 100.4L21.8 102.5L-2.7 106.7C-2.8 106.6 14.5 150.9 47.3 168.6Z" fill="#384F20"/>
<path d="M10.3 188.1C10.3 188.1 11.2 152.9 63.8 119.4C100.9 95.7 144.2 106.8 144.2 106.8L130.4 122.8L105.3 117.3L119 127L108 135.5L80.2 129.3L101.4 139.1L88.6 149.2L61.4 138.9L81.8 153C81.8 153 47.5 185.8 10.3 188.1Z" fill="#384F20"/>
<path d="M-28.4 161.1C-28.4 161.1 26.8 195.9 142.6 227.1C252.3 256.7 319.3 236.4 336.7 234.4C354.1 232.4 348.7 239.7 375 241.1C401.3 242.4 538 258.1 579 221.1C620 184.1 624 188.1 672 183.1C720 178.1 752 160.1 766 172.1C780 184.1 776 307.1 776 307.1L-36 299.1L-28.4 161.1Z" fill="#304221"/>
<path d="M175.5 146C175.5 146 197.5 157.5 216 146C234.5 134.5 242.5 111 256.5 105C270.5 99 292.5 97 295 82.5C297.5 68 310.5 53 310.5 53L316 49.2C316 49.2 304.7 62.5 302 75.7C299.3 88.9 297.5 98.5 284.7 102C271.9 105.5 287.7 119.5 303.2 116.3C318.7 113.1 331.5 103 336.2 103C340.9 103 349.7 102 351.5 101.5C353 104 353 104 353 104C353 104 337.2 104.8 333 108C328.8 111.2 315 119.8 302.2 122.8C289.4 125.8 275.7 116.3 267.9 110.8C254.6 115.8 251.4 124.3 247.4 133.8C243.4 143.3 232.6 159.1 214.4 164.8C196.2 170.5 170.9 170.6 166.6 166.3C162.3 162 175.5 146 175.5 146Z" fill="#384F20"/>
<path d="M301.5 119.5C301.5 119.5 307.5 138.2 323.5 134.7C339.5 131.2 350.8 136.9 350.8 136.9V138.2C350.8 138.2 338.9 134.8 325.3 136.8C311.7 138.8 308.4 136.5 304 130.9C299.6 125.3 298.4 122.1 298.4 122.1L301.5 119.5Z" fill="#384F20"/>
<path d="M247.8 92.1L244 91.7C243 93.1 241.9 94.4 240.7 95.7C229.1 108.8 228.6 116 231.4 124.5C234.2 133 237.6 134.5 237.6 134.5L242.5 133.1C242.5 133.1 226.8 113.7 241.6 99.1C243.9 96.9 246 94.5 247.8 92.1Z" fill="#384F20"/>
<path d="M224.1 267.5C224.1 267.5 217.1 235 199 224.8C180.9 214.6 180.9 205.5 180.9 189.3C180.9 173 173.7 179.7 175.5 164.6C177.3 149.6 208 115.8 207.4 111C204.4 100.2 134.6 59.6 115.3 57.6C95.4 85.1 79.6 121 67 128.8C54.4 136.6 -4.1 143.7 -21 175C-37.9 206.3 -8.1 217.5 -8.1 217.5L23.8 224.7C23.8 224.7 53.3 192.2 84.6 209.1C115.9 226 116.5 221.5 147.8 239.1C179.1 256.7 224.1 267.5 224.1 267.5Z" fill="#304221"/>
<path d="M207.7 107.3C207.7 107.3 198.7 93.3 164.4 73.6C130.1 53.9 118.2 55.3 115.4 57.5C112.6 59.7 114.9 70.6 129.9 79.6C144.9 88.6 156.8 88.9 161 102.1C165.2 115.3 169.2 121.3 174.9 118.9C180.6 116.6 176.1 114.2 186.6 117.4C197.1 120.6 213.3 117.7 207.7 107.3Z" fill="#40542D"/>
<path d="M195.7 219.2C195.7 219.2 212.8 223.9 231.1 233.2C241 237 242.3 228.9 232.6 224.3C222.9 219.7 198.8 216.4 198.8 216.4C198.8 216.4 217 211.1 235.9 217.9C254.8 224.7 257.5 212.8 250.8 210.1C244.1 207.4 208.7 206.5 200.6 211.6C229.3 196.7 249.3 202.2 255.2 199.8C261.1 197.4 258.7 186.1 244.7 188.3C230.7 190.6 202.3 204.2 198.3 209.5C217.9 189.2 231.4 188.7 235.4 183.9C239.4 179.1 236.7 174.8 226 177.9C215.3 181 195.3 207.8 195.3 207.8C199.1 194.7 209.2 183.3 212.2 179C215.2 174.7 214.3 165.8 206.4 173C198.5 180.2 192 205.4 191.6 208.2C188.2 199.6 194.9 185.1 194.4 179.4C193.9 173.7 186.5 172.9 183.9 183.1C181.3 193.3 187.7 209 188.4 210.1C182 205.3 181 197.4 179 192.4C177 187.4 171 186.1 170.3 194.2C169.6 202.3 187.7 215.2 187.7 215.2C179.1 212.8 173.8 210.8 169.4 206.5C165 202.2 160.3 205.9 161.5 210.9C162.7 215.9 178.7 221.6 186.2 219.9C177.4 225.4 168.6 218.7 165.7 223.3C162.8 227.9 167.6 231.9 173.2 231.6C178.8 231.3 187.6 222.8 188.6 221.8C183.1 239.6 187.7 245.7 193.3 248.4C198.9 251.1 199.8 245.8 196.8 241.1C193.8 236.4 190.8 226.6 191.4 223.1C197.7 238.1 208.1 245 218.2 245.8C228.3 246.6 232.4 239.4 223.1 237.2C213.7 235.2 195.8 225.9 195.7 219.2Z" fill="#405B27"/>
<path d="M154.7 342.4C151 303.4 161.2 271.1 170.4 250.9C180.4 229 191.5 216.1 191.6 216L193.1 217.3C193 217.4 182.1 230.1 172.2 251.8C163.1 271.8 153 303.6 156.7 342.2L154.7 342.4Z" fill="#405B27"/>
<path d="M85.4 221.4C85.4 221.4 67.9 224.4 48.8 231.7C38.6 234.5 38.1 226.3 48.2 222.7C58.4 219.1 82.6 218.3 82.6 218.3C82.6 218.3 65.1 211.2 45.6 216C26.1 220.8 24.6 208.7 31.6 206.7C38.6 204.7 73.8 207.4 81.4 213.3C54.3 195.5 33.9 199 28.3 196C22.7 193 26.2 182 39.9 185.7C53.6 189.4 80.4 205.8 83.9 211.5C66.5 189.3 53.2 187.4 49.6 182.2C46.1 177 49.2 173 59.5 177.2C69.8 181.4 86.9 210.1 86.9 210.1C84.5 196.6 75.6 184.3 73 179.8C70.4 175.2 72.3 166.5 79.4 174.4C86.5 182.3 90.4 208.1 90.5 211C94.7 202.8 89.6 187.7 90.7 182.1C91.8 176.5 99.2 176.5 100.7 186.9C102.2 197.3 94.2 212.3 93.4 213.3C100.3 209.2 102.1 201.4 104.6 196.7C107.1 192 113.2 191.2 113 199.4C112.8 207.6 93.6 218.5 93.6 218.5C102.4 217 107.8 215.6 112.6 211.7C117.4 207.8 121.7 212 120 216.9C118.3 221.8 101.8 225.7 94.5 223.3C102.7 229.7 112.1 223.9 114.6 228.8C117.1 233.7 111.8 237.2 106.3 236.3C100.7 235.4 92.9 226 92 224.9C95.6 243.2 90.5 248.8 84.6 250.9C78.7 253 78.4 247.6 81.9 243.3C85.4 239 89.4 229.4 89.1 226C81.3 240.2 70.3 246 60.2 245.8C50.1 245.6 46.7 238 56.3 236.7C65.8 235.5 84.7 228 85.4 221.4Z" fill="#405B27"/>
<path d="M113.6 348.2C121.3 309.8 114.5 276.6 107.4 255.6C99.7 232.8 90 218.8 89.9 218.7L88.2 219.9C88.3 220 97.9 233.8 105.5 256.4C112.5 277.2 119.3 310 111.7 347.9L113.6 348.2Z" fill="#405B27"/>
<path d="M40.3 258.5C40.3 258.5 23.2 263.2 4.89999 272.5C-5.00001 276.3 -6.30001 268.2 3.39999 263.6C13.1 259 37.2 255.7 37.2 255.7C37.2 255.7 19 250.4 0.0999908 257.2C-18.8 264 -21.5 252.1 -14.8 249.4C-8.10001 246.7 27.3 245.8 35.4 250.9C6.69999 236 -13.3 241.5 -19.2 239.1C-25.1 236.7 -22.7 225.4 -8.70001 227.6C5.29999 229.8 33.7 243.5 37.7 248.8C18.1 228.5 4.69999 228 0.599991 223.2C-3.40001 218.4 -0.700007 214.1 9.99999 217.2C20.7 220.3 40.7 247.1 40.7 247.1C36.9 234 26.8 222.6 23.8 218.3C20.8 214 21.7 205.1 29.6 212.3C37.5 219.5 44.1 244.7 44.4 247.5C47.8 238.9 41.1 224.4 41.6 218.7C42.1 213 49.5 212.2 52.1 222.4C54.7 232.6 48.3 248.3 47.6 249.4C54 244.6 55 236.7 57 231.7C59 226.8 65 225.4 65.7 233.5C66.4 241.6 48.3 254.5 48.3 254.5C56.9 252.1 62.1 250.1 66.6 245.8C71 241.5 75.7 245.2 74.5 250.2C73.3 255.2 57.3 260.9 49.8 259.2C58.6 264.7 67.4 258 70.3 262.6C73.2 267.2 68.4 271.2 62.8 270.9C57.2 270.6 48.4 262.1 47.4 261.1C52.9 278.9 48.4 285 42.7 287.7C37 290.4 36.2 285.1 39.2 280.4C42.2 275.7 45.2 265.9 44.6 262.4C38.3 277.4 27.9 284.3 17.8 285.1C7.69999 285.9 3.59999 278.7 12.9 276.5C22.3 274.6 40.3 265.3 40.3 258.5Z" fill="#60823C"/>
<path d="M81.4 381.8C85.1 342.8 74.9 310.5 65.7 290.3C55.7 268.4 44.6 255.5 44.5 255.4L43 256.7C43.1 256.8 54 269.5 63.9 291.2C73 311.2 83.1 343 79.4 381.6L81.4 381.8Z" fill="#60823C"/>
<path d="M125.8 333.2H123.8C123.8 332.9 124.1 298.5 132.4 254.5C140.1 213.9 156.3 156.6 190.2 114.2L191.8 115.5C158.2 157.6 142 214.6 134.4 255C126 298.7 125.8 332.9 125.8 333.2Z" fill="#506B34"/>
<path d="M186.9 119.9C186.9 119.9 199.2 93.5 216.4 88.7C223.4 86 218.9 94 210.2 99.7C201.6 105.4 186.9 119.9 186.9 119.9Z" fill="#506B34"/>
<path d="M182.9 125.6C182.9 125.6 204.8 106.1 224.5 106.9C232.2 108.1 226.2 116.2 215.3 116.9C204.4 117.5 182.9 125.6 182.9 125.6Z" fill="#506B34"/>
<path d="M176.6 135.1C176.6 135.1 196.3 120.5 215 122C233.7 123.5 225.3 130.7 217 129.3C208.6 128 189.5 130.1 176.6 135.1Z" fill="#506B34"/>
<path d="M169.4 146.6C169.4 146.6 189.1 132 207.7 133.5C226.3 135 218 142.2 209.7 140.8C201.4 139.5 182.4 141.6 169.4 146.6Z" fill="#506B34"/>
<path d="M181.4 127.2C181.4 127.2 189.7 99.1 180.6 81.7C176.3 75.3 171.5 84.2 175.5 94.2C179.5 104.3 181.4 127.2 181.4 127.2Z" fill="#506B34"/>
<path d="M175.4 137C175.4 137 180.2 113 170.9 96.7C161.6 80.4 158.7 91 163.4 98C168.2 105 174.5 123.1 175.4 137Z" fill="#506B34"/>
<path d="M168.1 148.4C168.1 148.4 172.9 124.4 163.6 108.1C154.3 91.8 151.4 102.4 156.1 109.4C160.9 116.4 167.2 134.5 168.1 148.4Z" fill="#506B34"/>
<path d="M163.1 159C163.1 159 166.4 129.9 154.3 114.3C148.9 108.7 145.7 118.3 151.4 127.6C157.2 136.8 163.1 159 163.1 159Z" fill="#506B34"/>
<path d="M159 169.7C159 169.7 159.5 145.2 147.5 130.8C135.5 116.4 134.5 127.4 140.4 133.4C146.3 139.5 155.6 156.1 159 169.7Z" fill="#506B34"/>
<path d="M153.7 182.2C153.7 182.2 154.2 157.7 142.2 143.3C130.2 128.9 129.2 139.9 135.1 145.9C141 151.9 150.4 168.6 153.7 182.2Z" fill="#506B34"/>
<path d="M149.6 193.8C149.6 193.8 151.3 164.5 138.4 149.7C132.7 144.4 130.1 154.2 136.3 163.1C142.4 172 149.6 193.8 149.6 193.8Z" fill="#506B34"/>
<path d="M146 204.7C146 204.7 145.2 180.2 132.4 166.5C119.6 152.8 119.2 163.8 125.4 169.5C131.6 175.2 141.9 191.4 146 204.7Z" fill="#506B34"/>
<path d="M141.5 217.5C141.5 217.5 140.7 193 127.9 179.3C115.1 165.6 114.7 176.6 120.9 182.3C127.1 188 137.4 204.2 141.5 217.5Z" fill="#506B34"/>
<path d="M139.4 225.5C139.4 225.5 137.8 200.7 125.5 188.7C120.2 184.5 119 192.8 125.1 200.1C131.1 207.4 139.4 225.5 139.4 225.5Z" fill="#506B34"/>
<path d="M137.5 234.9C137.5 234.9 134.3 214.3 122.2 203.2C110.1 192.1 110.9 201.4 116.7 206C122.5 210.5 132.7 223.8 137.5 234.9Z" fill="#506B34"/>
<path d="M135 245.8C135 245.8 131.8 225.2 119.7 214.1C107.6 203 108.4 212.3 114.2 216.9C120 221.5 130.2 234.7 135 245.8Z" fill="#506B34"/>
<path d="M132.5 258.2C132.5 258.2 128.3 233.7 114.8 223C109.1 219.4 108.8 227.8 115.6 234.4C122.4 241 132.5 258.2 132.5 258.2Z" fill="#506B34"/>
<path d="M131.6 267.7C131.6 267.7 126.2 247.5 113 237.8C99.8 228.1 101.6 237.3 107.8 241.2C114.1 245.1 125.7 257.2 131.6 267.7Z" fill="#506B34"/>
<path d="M130.3 278.9C130.3 278.9 124.9 258.7 111.7 249C98.5 239.3 100.3 248.5 106.5 252.4C112.8 256.3 124.4 268.4 130.3 278.9Z" fill="#506B34"/>
<path d="M163.6 159.1C163.6 159.1 183.3 144.5 202 146C220.7 147.5 212.3 154.7 204 153.3C195.6 152 176.5 154.1 163.6 159.1Z" fill="#506B34"/>
<path d="M158.4 170.1C158.4 170.1 176.8 153.9 195.5 153.9C214.2 153.9 206.5 161.7 198.1 161C189.7 160.4 170.9 164 158.4 170.1Z" fill="#506B34"/>
<path d="M152.3 184.4C152.3 184.4 170.7 168.2 189.4 168.2C208.1 168.2 200.4 176 192 175.3C183.6 174.8 164.8 178.3 152.3 184.4Z" fill="#506B34"/>
<path d="M149.6 192.2C149.6 192.2 170.5 179.5 189 182.7C207.5 185.9 198.5 192.3 190.3 190.2C182.2 188.1 163.1 188.3 149.6 192.2Z" fill="#506B34"/>
<path d="M145.6 203.5C145.6 203.5 163.2 190.5 178.4 193.4C193.6 196.3 186.1 202.8 179.4 200.9C172.7 198.9 156.8 199.5 145.6 203.5Z" fill="#506B34"/>
<path d="M142.2 215.1C142.2 215.1 156.6 198.6 172.1 198.3C187.6 198 181.6 205.9 174.6 205.4C167.6 204.9 152.2 208.8 142.2 215.1Z" fill="#506B34"/>
<path d="M139.3 227.5C139.3 227.5 153.7 211 169.2 210.7C184.7 210.4 178.7 218.3 171.7 217.8C164.8 217.2 149.4 221.1 139.3 227.5Z" fill="#506B34"/>
<path d="M137.7 235.6C137.7 235.6 149.8 219.4 163.1 219.3C176.4 219.2 171.4 227 165.4 226.4C159.3 225.8 146.2 229.4 137.7 235.6Z" fill="#506B34"/>
<path d="M134 249.3C134 249.3 147.4 233 162 232.7C176.6 232.4 171 240.3 164.4 239.8C157.9 239.2 143.4 243 134 249.3Z" fill="#506B34"/>
<path d="M131 265.9C131 265.9 144.4 249.6 159 249.3C173.6 249 168 256.9 161.4 256.4C154.9 255.8 140.4 259.6 131 265.9Z" fill="#506B34"/>
<path d="M128.2 284.3C128.2 284.3 141.6 268 156.2 267.7C170.8 267.4 165.2 275.3 158.6 274.8C152.1 274.2 137.6 278 128.2 284.3Z" fill="#506B34"/>
<path d="M98.6 173.5C98.6 173.5 80.9 175.7 61.6 182.3C51.3 184.7 51.1 176.5 61.4 173.3C71.7 170.1 96 170.3 96 170.3C96 170.3 78.8 162.5 59.1 166.4C39.4 170.4 38.5 158.2 45.5 156.5C52.5 154.8 87.6 159 95 165.2C68.6 146.4 48 149 42.5 145.7C37 142.5 41 131.6 54.5 135.9C68.1 140.2 94.2 157.7 97.4 163.5C80.9 140.6 67.7 138.1 64.4 132.8C61.1 127.5 64.4 123.6 74.5 128.3C84.6 133 100.6 162.3 100.6 162.3C98.8 148.8 90.4 136.1 88 131.4C85.6 126.7 87.9 118 94.7 126.3C101.5 134.5 104.3 160.5 104.3 163.3C108.9 155.3 104.4 140 105.7 134.4C107 128.8 114.4 129.1 115.5 139.6C116.6 150.1 108 164.7 107.1 165.7C114.1 161.9 116.3 154.2 118.9 149.6C121.6 145 127.8 144.5 127.2 152.7C126.7 160.9 107 171 107 171C115.8 169.9 121.3 168.7 126.3 165C131.3 161.3 135.4 165.7 133.5 170.5C131.6 175.3 115 178.6 107.8 175.9C115.7 182.6 125.4 177.3 127.6 182.2C129.8 187.2 124.5 190.4 119 189.3C113.5 188.2 106 178.5 105.2 177.3C108.1 195.7 102.7 201.1 96.7 203C90.7 204.9 90.7 199.5 94.3 195.3C97.9 191.1 102.3 181.8 102.2 178.3C93.8 192.2 82.5 197.6 72.5 196.9C62.5 196.2 59.3 188.5 68.9 187.7C78.5 186.8 97.6 180.2 98.6 173.5Z" fill="#60823C"/>
<path d="M121.5 301.3C130.8 263.2 125.3 229.8 119.1 208.5C112.3 185.4 103.2 171 103.1 170.9L101.4 172C101.5 172.1 110.5 186.3 117.1 209.1C123.3 230.2 128.7 263.2 119.5 300.8L121.5 301.3Z" fill="#60823C"/>
<path d="M185.8 273.5C185.8 273.5 201.4 282 217.1 295.2C225.9 301.2 229 293.6 220.6 286.9C212.2 280.2 189.5 271.5 189.5 271.5C189.5 271.5 208.4 270.5 225.3 281.4C242.2 292.3 247.5 281.3 241.6 277.2C235.7 273.1 201.5 264.1 192.4 267.2C223.8 259.2 242 269.1 248.3 268.1C254.6 267.1 254.9 255.5 240.7 254.6C226.5 253.7 195.8 260.5 190.7 264.7C214.4 249.4 227.6 251.9 232.6 248.2C237.6 244.4 236 239.7 224.8 240.3C213.6 240.9 188 262.4 188 262.4C194.6 250.5 207.1 241.7 211 238.2C214.9 234.7 216 225.8 206.7 231C197.4 236.2 185.3 259.3 184.3 262C182.9 252.9 192.7 240.3 193.5 234.6C194.3 228.9 187.3 226.5 182.4 235.8C177.5 245.1 180.2 261.9 180.7 263.2C175.5 257.1 176.4 249.1 175.6 243.9C174.8 238.7 169.2 235.9 166.7 243.7C164.2 251.5 178.9 268.1 178.9 268.1C171.1 263.9 166.4 260.7 163.1 255.5C159.8 250.3 154.4 252.8 154.4 258C154.4 263.2 168.7 272.3 176.4 272.4C166.5 275.8 159.5 267.3 155.6 271.1C151.7 274.9 155.5 279.9 161 280.9C166.5 281.9 177 275.6 178.2 274.8C168.8 290.9 171.8 297.9 176.8 301.8C181.7 305.7 183.7 300.7 181.8 295.5C179.9 290.3 179.2 280 180.7 276.8C183.5 292.8 192 301.9 201.6 305C211.2 308.1 216.9 302 208.3 297.7C199.6 293.3 184.3 280.1 185.8 273.5Z" fill="#60823C"/>
<path d="M117.8 384.2C123 345.4 140.3 316.3 153.9 298.7C168.6 279.6 182.3 269.6 182.5 269.5L183.7 271.1C183.6 271.2 170.1 281.1 155.5 299.9C142.1 317.3 125 346 119.9 384.4L117.8 384.2Z" fill="#60823C"/>
<path d="M119.2 273.1C119.2 273.1 136.9 272 157.2 274.8C167.8 275.2 166.4 267.1 155.7 265.9C145 264.7 121.2 269.4 121.2 269.4C121.2 269.4 136.7 258.5 156.8 258.7C176.9 258.9 175.6 246.8 168.4 246.4C161.2 246 127.5 256.7 121.4 264.1C143.7 240.6 164.4 239.4 169.2 235.1C174 230.9 168.1 221 155.6 227.7C143.1 234.4 120.7 256.5 118.6 262.8C130.5 237.3 143.1 232.3 145.3 226.5C147.5 220.6 143.6 217.5 134.5 223.9C125.4 230.3 115.2 262.2 115.2 262.2C114.5 248.6 120.4 234.5 121.8 229.5C123.3 224.5 119.5 216.4 114.3 225.7C109.2 235.1 111.2 261.1 111.8 263.8C105.8 256.8 107.4 240.9 105 235.7C102.7 230.5 95.5 232.1 96.3 242.6C97.1 253.1 108.4 265.9 109.4 266.7C101.8 264.2 98.2 257.1 94.8 253.1C91.3 249.1 85.1 249.7 87.2 257.7C89.2 265.6 110.5 271.9 110.5 271.9C101.6 272.5 96 272.3 90.4 269.6C84.8 266.9 81.6 272 84.3 276.4C87.1 280.8 104 280.9 110.6 276.9C104 285 93.6 281.5 92.3 286.8C91 292.1 96.9 294.3 102.1 292.2C107.3 290.1 112.8 279.2 113.4 277.9C114 296.5 120.3 300.8 126.6 301.5C132.9 302.2 131.9 296.9 127.5 293.5C123.1 290.1 117.1 281.7 116.6 278.2C127.4 290.3 139.5 293.5 149.3 290.9C159.1 288.3 160.7 280.2 151.1 281.2C141.4 282.4 121.4 279.5 119.2 273.1Z" fill="#60823C"/>
<path d="M120.5 403C104.3 367.3 103.4 333.5 105.6 311.4C107.9 287.4 114.2 271.6 114.3 271.5L116.2 272.3C116.1 272.4 110 288 107.7 311.7C105.6 333.5 106.4 367 122.5 402.2L120.5 403Z" fill="#60823C"/>
<path d="M677.7 193.5C677.7 193.5 680.8 130.5 626.9 138C653 142.5 669.5 155.4 667.6 179.5C661.4 160.5 649.5 152.2 645.1 152.5C659.4 163.3 662.5 180.1 662.6 181.4C642.4 156.2 622.4 148.5 613.1 149.2C629.4 154.5 653.1 170 655.4 181.4C645.1 170.2 631.3 169.2 624.4 172.7C635.1 172.7 646.2 183.8 646.2 183.8C623.4 178.2 614.5 187.4 614.5 187.4C614.5 187.4 628.1 181.4 644.4 188.6C660.7 195.8 677.7 193.5 677.7 193.5Z" fill="#304221"/>
<path d="M612.3 209.6C612.3 209.6 614.5 165.1 576.4 170.4C594.9 173.6 606.5 182.7 605.1 199.8C600.7 186.3 592.3 180.5 589.2 180.7C599.3 188.3 601.5 200.2 601.6 201.1C587.3 183.3 573.2 177.9 566.6 178.3C578.1 182.1 594.9 193 596.5 201.1C589.2 193.2 579.5 192.5 574.6 195C582.2 195 590 202.9 590 202.9C573.9 198.9 567.6 205.4 567.6 205.4C567.6 205.4 579.8 198.3 592.6 213.1C600.8 222.6 612.3 209.6 612.3 209.6Z" fill="#304221"/>
<path d="M571.5 239.1C571.5 239.1 573.7 194.6 535.6 199.9C554.1 203.1 565.7 212.2 564.3 229.3C559.9 215.8 551.5 210 548.4 210.2C558.5 217.8 560.7 229.7 560.8 230.6C546.5 212.8 532.4 207.4 525.8 207.8C537.3 211.6 554.1 222.5 555.7 230.6C548.4 222.7 538.7 222 533.8 224.5C541.4 224.5 549.2 232.4 549.2 232.4C533.1 228.4 526.8 234.9 526.8 234.9C526.8 234.9 536.4 230.6 547.9 235.8C559.4 240.8 571.5 239.1 571.5 239.1Z" fill="#304221"/>
<path d="M707.8 181.3C707.8 181.3 704.7 118.3 758.6 125.8C732.5 130.3 716 143.2 717.9 167.3C724.1 148.3 736 140 740.4 140.3C726.1 151.1 723 167.9 722.9 169.2C743.1 144 763.1 136.3 772.4 137C756.1 142.3 732.4 157.8 730.1 169.2C740.4 158 754.2 157 761.1 160.5C750.4 160.5 739.3 171.6 739.3 171.6C762.1 166 771 175.2 771 175.2C771 175.2 757.4 169.2 741.1 176.4C724.8 183.6 707.8 181.3 707.8 181.3Z" fill="#304221"/>
</svg>
