<svg width="1125" height="321" viewBox="0 0 1125 321" fill="none" xmlns="http://www.w3.org/2000/svg">
<rect x="-1" y="154" width="1126" height="167" fill="#304221"/>
<path d="M-1.19995 0.800049H1111.9C1112.3 0.900049 1112.7 0.999976 1113 1.09998C1117.9 2.69998 1122.3 4.90002 1126.2 7.90002V194.3C1126.2 194.3 1065.5 248.2 1062 247.6C1056.2 246.6 1050.4 247.3 1044.9 248.5C1040.9 249.3 1035.8 245.1 1031.9 243.9C1027.8 242.6 1024.2 240.5 1019.6 241.2C1016.2 241.7 1016.5 243.3 1014.6 245.8C1013.6 247.2 1008.8 251.3 1007.3 251.6C1004.4 252.1 998.1 248.5 995.8 247.3C989.4 244.1 981.7 243.9 974.8 242.4C968 241 962.7 238.3 955.5 238.3C952.9 238.3 950.3 237.8 947.8 238.6C945.2 239.4 942.9 241.8 940.6 243.2C939.5 243.8 937.6 245.8 936.4 245.9C935 246.1 932.1 244.3 930.6 243.9C924.8 242.2 917.7 242.1 911.6 242.7C906.6 243.2 903.7 246.9 898.7 244.6C892.5 241.7 886.4 238.6 880.1 235.6C872.2 231.9 865.1 235 859.6 241.6C858.3 243.2 858.1 244.5 856.3 245.9C854.7 247.1 852.9 247.4 851.5 248.9C848.7 251.8 846.7 255.7 844.7 259.2C842.9 259.2 840.9 256.8 839.3 255.9C836.6 254.3 833.3 253.3 830.3 252.5C821.8 250.3 811.6 251.7 802.8 251.8C792.5 251.9 781.9 248.4 771.9 245.5C765.9 243.7 759.8 241.6 753.9 239.4C752.9 239 751.4 237.4 750.5 237.1C747.2 236.1 745 238.1 742.1 239.7C735.3 243.6 729.1 244.5 721.7 246.5C716.6 247.8 714.9 245.7 710.3 243.6C707.7 242.4 705.7 243 703.1 242.8C699.7 242.5 696.4 241.1 693.2 240.1C685.2 237.6 676.2 237.2 668.6 233.8C664.9 232.2 661.8 230.1 657.8 229.4C655.2 228.9 652.9 228.3 650.4 227.4C645.2 225.6 645 245.6 639.1 245.5C634.7 245.4 627.5 247.3 623.4 245.8C612.7 242 598.3 243.9 587.7 247.2C572.9 251.8 560.4 245.3 544.5 245.5C537.4 245.6 531.6 234.7 524.9 236.9C523.3 237.4 522.6 237 521.3 238.3C520.1 239.5 519.8 241.3 518.7 242.6C517.6 243.9 516.7 244.6 514.9 244.6C513.9 244.6 509.4 241.6 509.9 241.8C507 240.4 503.9 239.5 500.8 238.7C494.7 237.2 488.5 236.9 482.8 234.7C478.4 233 472.3 229.4 467.5 231C465.6 231.7 464.4 233.9 462.6 234.8C460.8 235.7 459.3 235.3 457.3 235.4C449.6 235.9 442.5 237.7 434.7 236.6C429.2 235.8 423.8 235.6 418.4 234.7C413.7 233.9 409.2 232.8 404.5 232.4C400 232 397.5 229.2 393.1 228.1C388 226.9 386.7 225.4 383.2 230.2C381.4 232.7 379.9 235.3 378.4 237.7C375.6 242 371.1 238 367.1 236.5C361.7 234.4 361.3 236.7 356.5 239.9C353.8 241.7 351.1 243.1 347.9 243C344 242.9 340.9 240.4 337.1 239.9C331.6 239.1 325.7 238.8 321.5 242.7C319.6 244.5 317.8 246.8 316 248.7C312.9 251.8 309.9 256.5 306.2 259C303.2 261 299.8 261.2 296.7 263.1C291.9 266.1 288 270.4 283.3 273.5C281.1 275 280.4 275.6 278.3 274.6C277.9 274.4 277.4 273.3 277.1 273C275.6 271.8 273.4 271.6 271.6 271.1C261.8 268.3 251.2 269.3 241.2 267.8C231.7 266.4 220.1 259.4 210.6 263C206.6 264.5 203.6 266.1 199.4 266.7C197 267 195.4 267.1 193.3 268.5C190.7 270.2 190.4 271.7 187.5 270.5C185.2 269.5 183.7 266.8 181.9 265.2C171.9 256.5 156.5 259.2 144.9 261.5C141.6 262.2 138 263.8 134.7 264C132.3 264.1 131.1 263.7 128.5 262.6C125.8 261.5 123.1 260.1 120.3 259.5C117 258.8 112.1 260.4 109.7 257.8C104.8 263.2 99.8 268.3 93.1 271.4C90.7 272.5 89.1 272 86.8 272.6C84.8 273.2 84.9 274 83.2 275.3C80.2 277.6 74 278.4 70.5 279.8C66.2 281.6 62.0001 284 57.4001 285.2C51.7001 286.6 47.5 289.1 42.1 291.4C36.7 293.7 31.9 296.8 26.5 298.4C24.2 299.1 21.8 301.3 19.4 301.3C18.9 301.3 18.3 300.5 17.9 300.4C16.1 300.1 15 308.8 12.9 308.8C8.20005 308.7 3.30005 320.2 -1.09995 320.7L-1.19995 0.800049Z" fill="#CCCC99"/>
</svg>
