<svg width="418" height="320" viewBox="0 0 418 320" fill="none" xmlns="http://www.w3.org/2000/svg">
<g style="mix-blend-mode:multiply">
<path d="M743.2 319.021C738.8 318.522 733.9 307.06 729.2 307.16C727.2 307.16 726.1 298.489 724.2 298.788C723.8 298.887 723.2 299.685 722.7 299.685C720.2 299.685 717.9 297.492 715.6 296.794C710.2 295.199 705.4 292.11 700 289.817C694.5 287.525 690.4 285.033 684.7 283.638C680.1 282.442 675.9 280.049 671.6 278.255C668.2 276.86 661.9 276.063 658.9 273.77C657.2 272.475 657.3 271.677 655.3 271.079C653 270.481 651.3 270.979 649 269.883C642.3 266.793 637.3 261.71 632.4 256.328C630 258.919 625.1 257.324 621.8 258.022C619 258.62 616.3 260.016 613.6 261.112C611 262.208 609.7 262.607 607.4 262.507C604.1 262.308 600.5 260.713 597.2 260.016C585.6 257.723 570.2 255.032 560.2 263.704C558.4 265.298 556.9 267.989 554.6 268.986C551.7 270.182 551.3 268.687 548.8 266.993C546.7 265.597 545.1 265.498 542.7 265.199C538.5 264.601 535.5 263.006 531.5 261.511C522 257.923 510.4 264.9 500.9 266.295C490.9 267.79 480.2 266.793 470.5 269.584C468.7 270.082 466.5 270.282 465 271.478C464.6 271.777 464.2 272.873 463.8 273.072C461.7 274.069 461 273.471 458.8 271.976C454.1 268.886 450.2 264.6 445.4 261.61C442.3 259.717 438.9 259.517 435.9 257.524C432.2 255.032 429.2 250.348 426.1 247.258C424.3 245.364 422.5 243.072 420.6 241.278C416.4 237.39 410.5 237.689 405 238.487C401.2 238.985 398 241.477 394.2 241.577C390.9 241.676 388.3 240.281 385.6 238.487C380.8 235.297 380.3 233.005 375 235.098C371 236.593 366.6 240.58 363.7 236.294C362.2 233.902 360.7 231.31 358.9 228.819C355.5 224.035 354.1 225.529 349 226.726C344.5 227.822 342 230.613 337.6 231.011C332.8 231.41 328.4 232.507 323.7 233.304C318.3 234.201 312.9 234.4 307.4 235.198C299.6 236.294 292.4 234.5 284.8 234.002C282.8 233.902 281.3 234.301 279.5 233.404C277.7 232.507 276.5 230.314 274.6 229.616C269.8 228.021 263.7 231.609 259.3 233.304C253.6 235.497 247.3 235.796 241.3 237.291C238.2 238.088 235.1 238.985 232.2 240.381C232.6 240.181 228.2 243.171 227.2 243.171C225.4 243.171 224.5 242.474 223.4 241.178C222.3 239.882 222.1 238.088 220.8 236.892C219.5 235.596 218.8 235.995 217.2 235.497C210.5 233.304 204.7 244.168 197.6 244.068C181.7 243.869 169.1 250.348 154.4 245.763C143.8 242.474 129.4 240.58 118.7 244.367C114.7 245.862 107.4 243.969 103 244.068C97.0999 244.168 96.8999 224.234 91.6999 226.028C89.1999 226.925 86.8999 227.523 84.2999 228.021C80.2999 228.719 77.1999 230.812 73.4999 232.407C65.7999 235.796 56.8999 236.194 48.8999 238.686C45.6999 239.683 42.4999 241.078 38.9999 241.377C36.3999 241.577 34.3999 240.978 31.7999 242.175C27.0999 244.268 25.4999 246.361 20.3999 245.065C12.9999 243.072 6.79991 242.175 -9.15527e-05 238.287C-2.80009 236.693 -5.00009 234.699 -8.40009 235.696C-9.40009 235.995 -10.9001 237.59 -11.8001 237.988C-17.6001 240.181 -23.8001 242.274 -29.8001 244.068C-39.8001 246.959 -50.4001 250.447 -60.7001 250.348C-69.5001 250.248 -79.6001 248.852 -88.2001 251.045C-91.2001 251.843 -94.4001 252.839 -97.2001 254.434C-98.8001 255.331 -100.7 257.723 -102.6 257.723C-104.5 254.235 -106.6 250.348 -109.4 247.457C-110.8 245.962 -112.7 245.663 -114.2 244.467C-116 243.072 -116.1 241.776 -117.5 240.181C-123 233.603 -130.1 230.513 -138 234.201C-144.2 237.191 -150.3 240.281 -156.6 243.171C-161.6 245.464 -164.5 241.776 -169.5 241.278C-175.6 240.68 -182.7 240.779 -188.5 242.474C-190 242.872 -192.9 244.666 -194.3 244.467C-195.5 244.367 -197.5 242.374 -198.5 241.776C-200.8 240.381 -203.2 237.988 -205.7 237.191C-208.2 236.394 -210.8 236.892 -213.4 236.892C-220.5 236.892 -225.9 239.583 -232.7 240.979C-239.7 242.474 -247.3 242.673 -253.7 245.862C-256.1 247.058 -262.3 250.647 -265.2 250.148C-266.7 249.849 -271.5 245.763 -272.5 244.367C-274.4 241.876 -274.1 240.281 -277.5 239.783C-282.1 239.085 -285.7 241.178 -289.8 242.474C-293.8 243.67 -298.9 247.856 -302.8 247.058C-308.3 245.862 -314.1 245.165 -319.9 246.161C-323.4 246.759 -384.1 193.037 -384.1 193.037V7.25043C-380.2 4.26031 -375.8 2.0675 -370.9 0.472768C-370.5 0.373097 -370.1 0.273499 -369.8 0.173828H743.3V319.021H743.2Z" fill="#314222"/>
</g>
</svg>
