<?xml version="1.0" encoding="utf-8"?>
<!-- Generator: Adobe Illustrator 23.0.0, SVG Export Plug-In . SVG Version: 6.00 Build 0)  -->
<svg version="1.1" id="Layer_1" xmlns="http://www.w3.org/2000/svg" xmlns:xlink="http://www.w3.org/1999/xlink" x="0px" y="0px"
	 viewBox="0 0 1125 2436" style="enable-background:new 0 0 1125 2436;" xml:space="preserve">
<style type="text/css">
	.st0{display:none;}
	.st1{display:inline;}
	.st2{clip-path:url(#SVGID_2_);}
	.st3{fill:#CCCC99;}
	.st4{fill:#304221;}
	.st5{fill:#506B34;}
	.st6{display:inline;fill:#405B27;}
	.st7{display:inline;opacity:0.3;fill:#405B27;enable-background:new    ;}
	.st8{display:inline;fill:#304221;}
	.st9{opacity:0.3;}
	.st10{fill:#405B27;}
	.st11{fill:none;}
	.st12{opacity:0.3;fill:#405B27;enable-background:new    ;}
	.st13{fill:#60823C;}
	.st14{fill:#304221;enable-background:new    ;}
</style>
<g class="st0">
	<g id="OBJECTS" class="st1">
		<g>
			<g>
				<g>
					<g>
						<g>
							<g>
								<g>
									<defs>
										<polyline id="SVGID_1_" points="1125,2436 -1397,2436 -1397,0 1125,0 										"/>
									</defs>
									<clipPath id="SVGID_2_">
										<use xlink:href="#SVGID_1_"  style="overflow:visible;"/>
									</clipPath>
									<g class="st2">
										<g>
											<path class="st3" d="M550,2168.5c137.9-180.3,151.3-160.8,312.7-185.1c116.1-17.5,204.4-67.8,262.3-72.9V0H0v2279.7
												C173.9,2294.8,448.7,2300.9,550,2168.5z"/>
											<path class="st4" d="M1125,2436v-525.5c-57.9,5.1-146.2,55.4-262.3,72.9c-161.4,24.4-174.9,4.9-312.7,185.1
												c-101.3,132.4-376.1,126.3-550,111.2V2436H1125z"/>
										</g>
										<path class="st5" d="M879.9,2011.6c0,0,10.4-306.9-170.8-270.4c87.8,21.9,143.2,84.8,136.9,202.2
											c-20.8-92.6-60.9-133-75.7-131.5c48.1,52.6,58.5,134.5,58.8,140.8c-67.9-122.8-135.2-160.3-166.5-156.9
											c54.8,25.8,134.5,101.3,142.2,156.9c-34.6-54.6-81-59.4-104.2-42.4c36,0,73.3,54.1,73.3,54.1
											c-76.7-27.3-106.6,17.5-106.6,17.5s45.7-29.2,100.5,5.8C822.7,2022.9,879.9,2011.6,879.9,2011.6z"/>
										<path class="st4" d="M881.9,2034.1c0,0,10.4-306.9-170.8-270.4c87.8,21.9,143.2,84.8,136.9,202.2
											c-20.8-92.6-60.9-133-75.7-131.5c48.1,52.6,58.5,134.5,58.8,140.8c-67.9-122.8-135.2-160.3-166.5-156.9
											c54.8,25.8,134.5,101.3,142.2,156.9c-34.6-54.6-81-59.4-104.2-42.4c36,0,73.3,54.1,73.3,54.1
											c-76.7-27.3-106.6,17.5-106.6,17.5s45.7-29.2,100.5,5.8C824.7,2045.3,881.9,2034.1,881.9,2034.1z"/>
										<path class="st5" d="M662,2091.5c0,0,7.4-216.8-120.7-191c62.2,15.6,101.2,59.9,96.5,143.2c-14.8-65.8-43-94-53.5-93.1
											c34,37,41.4,95,41.7,99.4c-48.1-86.7-95.5-113-117.7-111.1c38.7,18.5,95.2,71.6,100.5,111.1
											c-24.5-38.5-57.2-41.9-73.6-29.7c25.6,0,51.8,38.5,51.8,38.5c-54.1-19.5-75.3,12.2-75.3,12.2s41-34.6,84.1,37.5
											C623.3,2154.9,662,2091.5,662,2091.5z"/>
										<path class="st4" d="M662,2112.5c0,0,7.4-216.8-120.7-191c62.2,15.6,101.2,59.9,96.5,143.2c-14.8-65.8-43-94-53.5-93.1
											c34,37,41.4,95,41.7,99.4c-48.1-86.7-95.5-113-117.7-111.1c38.7,18.5,95.2,71.6,100.5,111.1
											c-24.5-38.5-57.2-41.9-73.6-29.7c25.6,0,51.8,38.5,51.8,38.5c-54.1-19.5-75.3,12.2-75.3,12.2s41-34.6,84.1,37.5
											C623.3,2175.8,662,2112.5,662,2112.5z"/>
										<path class="st4" d="M524.8,2256.2c0,0,7.4-216.8-120.7-191c62.2,15.6,101.2,59.9,96.5,143.2c-14.8-65.8-43-94-53.5-93.1
											c34,37,41.4,95,41.7,99.4c-48.1-86.7-95.5-113-117.7-111.1c38.7,18.5,95.2,71.6,100.5,111.1
											c-24.5-38.5-57.2-41.9-73.6-29.7c25.6,0,51.8,38.5,51.8,38.5c-54.1-19.5-75.3,12.2-75.3,12.2s32.3-20.9,71,4.4
											C484.1,2264.5,524.8,2256.2,524.8,2256.2z"/>
										<path class="st5" d="M983.8,1950.3c0,0-10.4-306.9,170.8-270.4c-87.8,21.9-143.2,84.8-136.9,202.2
											c20.8-92.6,60.9-133,75.7-131.5c-48.1,52.6-58.5,134.5-58.8,140.8c67.9-122.8,135.2-160.3,166.5-156.9
											c-54.8,25.8-134.5,101.3-142.2,156.9c34.6-54.6,81-59.4,104.2-42.4c-36,0-73.3,54.1-73.3,54.1
											c76.7-27.3,106.6,17.5,106.6,17.5s-45.7-29.2-100.5,5.8C1040.9,1961.5,983.8,1950.3,983.8,1950.3z"/>
										<path class="st4" d="M983.1,1974.6c0,0-10.4-306.9,170.8-270.4c-87.8,21.9-143.2,84.8-136.9,202.2
											c20.8-92.6,60.9-133,75.7-131.5c-48.1,52.6-58.5,134.5-58.8,140.8c67.9-122.8,135.2-160.3,166.5-156.9
											c-54.8,25.8-134.5,101.3-142.2,156.9c34.6-54.6,81-59.4,104.2-42.4c-36,0-73.3,54.1-73.3,54.1
											c76.7-27.3,106.6,17.5,106.6,17.5s-45.7-29.2-100.5,5.8C1040.3,1985.8,983.1,1974.6,983.1,1974.6z"/>
									</g>
								</g>
							</g>
						</g>
					</g>
				</g>
			</g>
		</g>
	</g>
	<path class="st6" d="M2270,1865.2L2270,1865.2L2270,1865.2L2270,1865.2z"/>
	<path class="st7" d="M435.8,1252.4c1.2,0.5,2.3,1,3.5,1.6C438.4,1253.7,437.2,1253.2,435.8,1252.4c-47.4-21.2-58.5-48.1-69.8-51.7
		c-11.5-3.7-16.8,6-3.3,25.6c13.7,19.6,75.8,35.7,75.8,35.7c-25.8,4.8-53.6-5.5-63.4-7.6c-9.8-2-24.6,8.3-6.1,17.9s67.7-1.1,72.9-3
		c-12.4,15.5-42.8,15.5-52.3,22.1c-9.5,6.5-5.2,22.8,14.6,18.6c19.8-4.2,42.2-33,43.7-35.6c-3.4,18.1-16.4,27.9-23.7,37
		c-7.2,9.1-4.7,22.8,9.9,16.5s23.2-56.8,23.2-56.8c2.4,20.5,3,33.6-1.2,46.8c-4.1,13.5,6,19.8,13.8,12.4s5.6-46.6-3.3-60.6
		c16.4,13.3,11.3,38.2,21.6,39.8c10.3,1.5,13.5-12.3,8.7-23.7c-4.8-11.5-26.4-21.8-29-22.9c35.3-5.7,42.4-21.2,42.8-35.6
		s-9.4-11.1-15.4-0.4c-6,11-20.8,26.7-27.3,28.8c21.3-27.7,25.4-56.5,19.1-78.4c-6.3-22-22.1-23.7-18.9-1.9
		c3.7,21.6,1.2,68.3-10.3,75c0,0-4.9-40.4-2.8-87.9c-0.9-24.4-16.1-19.4-16.8,5.4c-0.6,24.9,12.2,78.7,12.2,78.7
		s-23.3-33.1-25.9-79.6s-25.6-40.5-25-23.8c0.4,15.7,23.4,84.1,38.8,101.6c0.8,0.8,1.7,1.6,2.5,2.4c-0.8-0.6-1.6-1.5-2.5-2.4
		c-45.8-45.2-51.6-91.1-60-100.9c-8.8-10-26.7,5.8-12,33.2"/>
	<path class="st7" d="M855.8,715.4c1.2,0.5,2.3,1,3.5,1.6C858.4,716.7,857.2,716.2,855.8,715.4c-47.4-21.2-58.5-48.1-69.8-51.7
		c-11.5-3.7-16.8,6-3.3,25.6c13.7,19.6,75.8,35.7,75.8,35.7c-25.8,4.8-53.6-5.5-63.4-7.6c-9.8-2-24.6,8.3-6.1,17.9
		c18.5,9.6,67.7-1.1,72.9-3c-12.4,15.5-42.8,15.5-52.3,22.1c-9.5,6.5-5.2,22.8,14.6,18.6s42.2-33,43.7-35.6
		c-3.4,18.1-16.4,27.9-23.7,37c-7.2,9.1-4.7,22.8,9.9,16.5c14.6-6.3,23.2-56.8,23.2-56.8c2.4,20.5,3,33.6-1.2,46.8
		c-4.1,13.5,6,19.8,13.8,12.4c7.8-7.4,5.6-46.6-3.3-60.6c16.4,13.3,11.3,38.2,21.6,39.8c10.3,1.5,13.5-12.3,8.7-23.7
		c-4.8-11.5-26.4-21.8-29-22.9c35.3-5.7,42.4-21.2,42.8-35.6c0.4-14.4-9.4-11.1-15.4-0.4c-6,11-20.8,26.7-27.3,28.8
		c21.3-27.7,25.4-56.5,19.1-78.4c-6.3-22-22.1-23.7-18.9-1.9c3.7,21.6,1.2,68.3-10.3,75c0,0-4.9-40.4-2.8-87.9
		c-0.9-24.4-16.1-19.4-16.8,5.4c-0.6,24.9,12.2,78.7,12.2,78.7s-23.3-33.1-25.9-79.6c-2.6-46.4-25.6-40.5-25-23.8
		c0.4,15.7,23.4,84.1,38.8,101.6c0.8,0.8,1.7,1.6,2.5,2.4c-0.8-0.6-1.6-1.5-2.5-2.4c-45.8-45.2-51.6-91.1-60-100.9
		c-8.8-10-26.7,5.8-12,33.2"/>
	<path class="st7" d="M183.3,343.4c-0.6-0.2-1.3-0.5-2.2-1c-29.7-13.3-36.7-30.1-43.7-32.4c-7.2-2.3-10.5,3.7-2.1,16
		c8.6,12.3,47.5,22.3,47.5,22.3c-16.1,3-33.5-3.5-39.7-4.7c-6.2-1.3-15.4,5.2-3.8,11.2s42.4-0.7,45.6-1.9
		c-7.7,9.7-26.8,9.7-32.8,13.8c-6,4.1-3.2,14.3,9.2,11.6s26.4-20.6,27.3-22.3c-2.1,11.3-10.3,17.5-14.8,23.1
		c-4.5,5.7-3,14.3,6.2,10.3c9.1-4,14.5-35.6,14.5-35.6c1.5,12.8,1.8,21-0.7,29.3c-2.6,8.4,3.7,12.4,8.6,7.7c4.9-4.6,3.5-29.2-2.1-38
		c10.3,8.3,7.1,23.9,13.5,24.9s8.5-7.7,5.5-14.8c-3-7.2-16.5-13.6-18.1-14.4c22.1-3.6,26.5-13.3,26.8-22.3s-5.9-7-9.6-0.3
		c-3.7,6.9-13,16.7-17.1,18c13.3-17.3,15.9-35.3,11.9-49.1c-4-13.7-13.8-14.8-11.8-1.2c2.3,13.5,0.8,42.8-6.5,47c0,0-3-25.3-1.7-55
		c-0.6-15.3-10.1-12.2-10.5,3.4s7.7,49.3,7.7,49.3s-14.6-20.7-16.2-49.8s-16-25.3-15.6-14.9c0.2,9.8,14.5,52.3,24.2,63.5
		c0.6,0.5,1.1,1.1,1.7,1.6c-0.5-0.4-1.1-1-1.7-1.6c-28.5-28.3-32.2-56.9-37.5-63.1c-5.5-6.3-16.7,3.6-7.5,20.8"/>
</g>
<g class="st0">
	<g id="OBJECTS_1_" class="st1">
		<g>
			<g>
				<g>
					<path class="st3" d="M1695,2168.5c137.9-180.3,151.3-160.8,312.7-185.1c116.1-17.5,204.4-67.8,262.3-72.9V0H1145v2279.7
						C1318.9,2294.8,1593.7,2300.9,1695,2168.5z"/>
					<path class="st4" d="M2270,2436v-525.5c-57.9,5.1-146.2,55.4-262.3,72.9c-161.4,24.4-174.9,4.9-312.7,185.1
						c-101.3,132.4-376.1,126.3-550,111.2V2436H2270z"/>
				</g>
				<path class="st5" d="M2024.9,2011.6c0,0,10.4-306.9-170.8-270.4c87.8,21.9,143.2,84.8,136.9,202.2
					c-20.8-92.6-60.9-133-75.7-131.5c48.1,52.6,58.5,134.5,58.8,140.8c-67.9-122.8-135.2-160.3-166.5-156.9
					c54.8,25.8,134.5,101.3,142.2,156.9c-34.6-54.6-81-59.4-104.2-42.4c36,0,73.3,54.1,73.3,54.1c-76.7-27.3-106.6,17.5-106.6,17.5
					s45.7-29.2,100.5,5.8C1967.7,2022.9,2024.9,2011.6,2024.9,2011.6z"/>
				<path class="st4" d="M2026.9,2034.1c0,0,10.4-306.9-170.8-270.4c87.8,21.9,143.2,84.8,136.9,202.2
					c-20.8-92.6-60.9-133-75.7-131.5c48.1,52.6,58.5,134.5,58.8,140.8c-67.9-122.8-135.2-160.3-166.5-156.9
					c54.8,25.8,134.5,101.3,142.2,156.9c-34.6-54.6-81-59.4-104.2-42.4c36,0,73.3,54.1,73.3,54.1c-76.7-27.3-106.6,17.5-106.6,17.5
					s45.7-29.2,100.5,5.8C1969.7,2045.3,2026.9,2034.1,2026.9,2034.1z"/>
				<path class="st5" d="M1807,2091.5c0,0,7.4-216.8-120.7-191c62.2,15.6,101.2,59.9,96.5,143.2c-14.8-65.8-43-94-53.5-93.1
					c34,37,41.4,95,41.7,99.4c-48.1-86.7-95.5-113-117.7-111.1c38.7,18.5,95.2,71.6,100.5,111.1c-24.5-38.5-57.2-41.9-73.6-29.7
					c25.6,0,51.8,38.5,51.8,38.5c-54.1-19.5-75.3,12.2-75.3,12.2s41-34.6,84.1,37.5C1768.3,2154.9,1807,2091.5,1807,2091.5z"/>
				<path class="st4" d="M1807,2112.5c0,0,7.4-216.8-120.7-191c62.2,15.6,101.2,59.9,96.5,143.2c-14.8-65.8-43-94-53.5-93.1
					c34,37,41.4,95,41.7,99.4c-48.1-86.7-95.5-113-117.7-111.1c38.7,18.5,95.2,71.6,100.5,111.1c-24.5-38.5-57.2-41.9-73.6-29.7
					c25.6,0,51.8,38.5,51.8,38.5c-54.1-19.5-75.3,12.2-75.3,12.2s41-34.6,84.1,37.5C1768.3,2175.8,1807,2112.5,1807,2112.5z"/>
				<path class="st4" d="M1669.8,2256.2c0,0,7.4-216.8-120.7-191c62.2,15.6,101.2,59.9,96.5,143.2c-14.8-65.8-43-94-53.5-93.1
					c34,37,41.4,95,41.7,99.4c-48.1-86.7-95.5-113-117.7-111.1c38.7,18.5,95.2,71.6,100.5,111.1c-24.5-38.5-57.2-41.9-73.6-29.7
					c25.6,0,51.8,38.5,51.8,38.5c-54.1-19.5-75.3,12.2-75.3,12.2s32.3-20.9,71,4.4C1629.1,2264.5,1669.8,2256.2,1669.8,2256.2z"/>
				<path class="st5" d="M2234.7,1903c9.9-3.5,18.9-5.8,27.3-7.2c2.8-0.5,5.4-0.8,8-1.1v18.2c-8,2.3-16.5,5.9-25.2,11
					c-1.4,0.8-2.7,1.6-4.1,2.5c-54.8,35.1-112,23.9-112,23.9s-0.1-4.3-0.1-11.8c0.3-52.4,9.8-260.7,141.3-261.6v12.5
					c-11.6,4.6-22.5,10.2-32.5,16.7c-47.8,30.9-76.3,83.5-75.2,162.3c0.1,4.5,0.2,9.1,0.5,13.8c20.9-92.6,60.9-133,75.7-131.5
					c-13.7,15-24.3,32.3-32.5,49.6c-20.7,43.5-26.1,86.7-26.3,91.2c1.9-3.4,3.8-6.7,5.6-10c29.6-51.4,58.8-86.9,84.8-110.2v17.8
					c-21.8,20.7-41.3,44.1-53.5,66.7c-6.7,12.3-11.2,24.4-12.7,35.6c6.7-10.6,13.8-19.2,21.2-26.3c15-14.4,30.7-21.8,45.1-24.1v24.3
					l0,0l0,0C2249.8,1881.1,2234.7,1903,2234.7,1903z"/>
				<path class="st4" d="M2270,1865.2L2270,1865.2v23.9c-2.8,2.1-5.5,4.4-8,6.7c-16.4,14.8-28,31.5-28,31.5
					c3.7-1.3,7.3-2.5,10.8-3.5c9.1-2.6,17.5-4.1,25.2-4.8v18c-9.5,2.7-19.5,7-29.9,13.7c-54.8,35.1-112,23.9-112,23.9
					s-0.5-14.2,0.6-36.2c3.2-66.8,20.6-205.1,108.8-232.4c9.9-3.1,20.7-4.8,32.5-4.8v12.2c-61.6,24.3-102.1,73.8-107.7,154.8
					c-0.9,12-0.9,24.7-0.2,38.2c11.3-50.2,28.3-85.1,43.8-106.3c13.1-17.8,25.1-25.9,31.9-25.3c-29.8,32.6-45.1,76.3-52.5,106.4
					c-4.6,18.6-6.2,31.9-6.3,34.4c12.6-22.8,25.3-42.7,37.6-59.9c18.7-26,36.8-45.9,53.5-60.8v17.8c-17.2,16.3-33.1,34.3-45.1,52.3
					c-11.6,17.4-19.6,34.8-21.8,50.6C2223.7,1883.2,2248.4,1868.3,2270,1865.2L2270,1865.2z"/>
			</g>
			<g class="st0">
				<path class="st8" d="M1050.7,1952.2c0,0-11.8-34.1-26.6-56.5c0,0-11.4-20.5-59.2-27.8c-47.7-7.3-90.1-43.8-138.9-41.4
					s-33.3,24.4-55.5,20.5s-21.9,30.7-19.2,62.4c2.7,31.7,19.8,85.3,16.8,111.6c-3,26.3-22.9,64.8-27.2,68.2
					c-4.7,2.9-4.4,29.7-6.1,59c-1,21.4-0.3,60.9-9.1,92.1c-8.7,30.7-14.5,46.8-10.4,48.2c4,1.5,2-2.4,4,1.5s1.7,13.6,0.3,17.5
					c-1,3.9,19.8,12.7,19.8,0s-5-95.5,10.8-150.5c15.8-55.1,37-74.5,49.1-93.5s14.5-28.7,14.5-28.7s-1.7,29.2-20.2,57.5
					c-18.8,27.8-0.3,24.8,5.7,52.1s22.9,89.6,22.9,100.9c0,11.2-5.7,18.5,1.7,21.9c7.4,2.9,12.4,10.7,12.4,10.7s14.5,1.5,15.5,0
					s-7.7-6.8-9.8-31.7c-2-24.8-24.5-71.6-23.9-103.3c0,0-6.4-13.6,13.1-46.8c19.2-33.1,26.9-58,26.9-58s63.9,30.7,77.3,20.9
					c12.4,19.5,17.8,80.4,22.2,107.2c4.7,26.3,7.4,107.7,6.4,123.7c-1,16.1,21.2,16.1,21.2,16.1s-4.7-34.1-5.7-53.6s-1-37-2-53.6
					s3-30.7-0.3-56.5c-3.4-25.8-3-78.4,31.3-76c15.1,2.4,48.8,59.9,68.3,77.5c19.2,17.5,11.4,24.8,33,54.1
					c21.2,29.2,34,50.7,50.1,72.6c16.1,21.9,12.1,28.7,17.8,23.4c6.1-5.4,2-4.9,2.4-3.9c0.3,1,0,3.4,6.1,1.9s11.1-3.9,10.1-20
					s-9.8-30.7-9.1-60.4s-1-32.2-0.3-45.8s0.3-17.5,3-27.3c1.3-5.8-11.1-2.4-18.8,1c-7.4,3.9-12.8-5.8-12.8-5.8s-3.4-33.6-16.8-47.3
					c-6.4,19-3.4,30.7-3.4,30.7s-5.7-1.9-24.2-34.6c-18.8-32.6-35.6-57-43.7-79.4C1061.5,1979.5,1050.7,1952.2,1050.7,1952.2z"/>
				<path class="st8" d="M1185.5,2160.2c0,0-1-15.1,6.7-24.4c7.7-9.3,13.5-6.3,27.6,6.3c14.1,12.7,30.6,26.8,44.4,37.5
					s25.2,12.2,31.9,9.7c6.7-2.4-0.3,0-11.4-7.3s-24.9-16.1-29.6-27.8c-5-12.2,27.9-19.5,36.3-20.5s6.7-2.4-2-5.4
					c-8.7-2.9-27.9,7.3-39.3,9.3c-11.4,1.5-21.9-4.9-26.2-12.2c-4.7-7.8,8.4-20,21.2-29.7c12.8-9.7,31.3-26.3,45.4-29.2
					s9.4-8.3-4.7-5.4c-14.1,2.9-37.7,18.5-53.1,34.1c-15.1,15.6-26.9,20.9-29.9,20.9s1-9.7,0.3-14.6s-3.7,1-6.4,8.3
					c-2.4,7.8-2.7,8.8-11.1,15.1s-11.8,17.1-12.8,22.4C1171.8,2152.4,1185.5,2160.2,1185.5,2160.2z"/>
				<path class="st8" d="M1161.3,2140.8c0,0-6.1-22.4-1-35.1c5-12.2,11.4-12.2,27.2-7.3s35,10.7,50.4,14.1c15.5,3.9,26.6,0,32.3-5.8
					c5.7-5.4-0.3,0-12.4-1.5s-26.9-3.4-34.3-12.2s21.9-31.7,29.6-36.5c7.7-4.9,6.1-5.4-3-3.9s-24.5,20.5-35,27.3
					c-10.4,6.8-21.5,5.8-27.6,0.5c-6.1-4.9,3.4-22.9,13.5-38.5s23.9-39.5,36.3-49.2s7.1-12.2-5.4-2.9c-12.8,9.3-31.6,35.1-42.4,57
					c-11.1,21.9-20.8,32.6-23.5,34.1s-1.3-9.7-2.7-13.6c-1.7-4.4-3.4,2.4-4,11.2s-0.7,9.7-7.1,19.5c-6.7,9.7-7.4,21.9-7.1,27.3
					C1144.5,2131,1161.3,2140.8,1161.3,2140.8z"/>
				<path class="st8" d="M997.6,2187c-1-16.6,3-30.7-0.3-56.5c-3-20.5-3-58.5,14.5-71.1c-4.4-7.3-9.1-13.6-14.8-18
					c-10.8-8.3-36.3-10.2-34.3,16.1c0,1.9-0.3,3.4-1,4.9c8.4,26.3,12.4,71.1,16.1,92.6c4.7,26.3,7.4,107.7,6.4,123.7
					c-1,16.1,21.2,16.1,21.2,16.1s-4.7-34.1-5.7-53.6C998.6,2220.7,998.6,2203.6,997.6,2187z"/>
				<path class="st8" d="M756.8,1851.4c-2.7,1.5-20.5,21.9-19.5,46.3c0.3,7.8,0.7,15.1-0.7,27.3c-1,7.3,4,19,3.4,32.6
					c-0.7,22.9,0.7,32.2-2,44.8c18.2-10.7,24.2-61.4,23.2-75.5C760.2,1912.7,756.8,1851.4,756.8,1851.4z"/>
			</g>
		</g>
	</g>
	<g class="st1">
		<g class="st0">
			<g class="st1">
				<g class="st9">
					<path class="st5" d="M639.9,1717.5c0,0,48,16,99.4,47.7c27.8,13,31.4-14.7,4.2-30.3c-27.2-15.7-94.9-26.9-94.9-26.9
						s51.1-18.1,104.1,5.1s60.6-17.4,41.8-26.6s-118.2-12.3-140.9,5.1c80.6-50.8,136.7-32,153.2-40.2c16.6-8.2,9.8-46.7-29.5-39.2
						c-39.3,7.8-119,54.2-130.2,72.2c55-69.2,92.9-70.9,104.1-87.2c11.2-16.4,3.6-31-26.4-20.4s-86.2,101.9-86.2,101.9
						c10.7-44.6,39-83.5,47.4-98.2s5.9-45-16.3-20.4c-22.2,24.5-40.4,110.4-41.5,120c-9.5-29.3,9.3-78.7,7.9-98.2
						c-1.4-19.4-22.2-22.2-29.5,12.6c-7.3,34.8,10.7,88.3,12.6,92c-18-16.4-20.8-43.3-26.4-60.3c-5.6-17-22.5-21.5-24.4,6.1
						s48.8,71.6,48.8,71.6c-24.1-8.2-39-15-51.4-29.6c-12.3-14.7-25.5-2-22.2,15s48.3,36.5,69.3,30.7c-24.7,18.7-49.4-4.1-57.5,11.6
						s5.3,29.3,21.1,28.3c15.7-1,40.4-30,43.2-33.4c-15.4,60.7-2.5,81.5,13.2,90.7s18.2-8.9,9.8-24.9s-16.8-49.4-15.2-61.3
						c17.7,51.1,46.9,74.6,75.2,77.4c28.3,2.7,39.9-21.8,13.8-29.3C690.4,1772,640.2,1740.3,639.9,1717.5z"/>
				</g>
				<g>
					<path class="st10" d="M600.6,1717.5c0,0,48,16,99.4,47.7c27.8,13,31.4-14.7,4.2-30.3s-94.9-26.9-94.9-26.9s51.1-18.1,104.1,5.1
						s60.6-17.4,41.8-26.6s-118.2-12.3-140.9,5.1c80.6-50.8,136.7-32,153.2-40.2c16.6-8.2,9.8-46.7-29.5-39.2
						c-39.3,7.8-119,54.2-130.2,72.2c55-69.2,92.9-70.9,104.1-87.2c11.2-16.4,3.6-31-26.4-20.4s-86.2,101.9-86.2,101.9
						c10.7-44.6,39-83.5,47.4-98.2s5.9-45-16.3-20.4c-22.2,24.5-40.4,110.4-41.5,120c-9.5-29.3,9.3-78.7,7.9-98.2
						c-1.4-19.4-22.2-22.2-29.5,12.6c-7.3,34.8,10.7,88.3,12.6,92c-18-16.4-20.8-43.3-26.4-60.3c-5.6-17-22.5-21.5-24.4,6.1
						s48.8,71.6,48.8,71.6c-24.1-8.2-39-15-51.4-29.6c-12.3-14.7-25.5-2-22.2,15c3.4,17,48.3,36.5,69.3,30.7
						c-24.7,18.7-49.4-4.1-57.5,11.6c-8.1,15.7,5.3,29.3,21.1,28.3c15.7-1,40.4-30,43.2-33.4c-15.4,60.7-2.5,81.5,13.2,90.7
						s18.2-8.9,9.8-24.9s-16.8-49.4-15.2-61.3c17.7,51.1,46.9,74.6,75.2,77.4c28.3,2.7,39.9-21.8,13.8-29.3
						C651.1,1772,600.9,1740.3,600.6,1717.5z"/>
				</g>
				<g>
					<path class="st10" d="M485.5,2137.4c-10.4-132.9,18.2-243,44.1-311.8c28.1-74.6,59.2-118.6,59.5-118.9l4.2,4.4
						c-0.3,0.3-30.9,43.6-58.7,117.6c-25.5,68.2-53.9,176.5-43.5,308.1L485.5,2137.4z"/>
				</g>
			</g>
		</g>
		<g>
			<g>
				<g>
					<g>
						<path class="st5" d="M1178.4,2640h-5.6c0-1,0.8-118.3,24.1-268.2c21.6-138.4,67.1-333.6,162.2-478.1l4.5,4.4
							c-94.3,143.5-139.8,337.7-161.1,475.4C1179,2522.4,1178.4,2639,1178.4,2640z"/>
					</g>
					<g>
						<path class="st5" d="M1349.9,1913.1c0,0,34.5-90,82.8-106.3c19.6-9.2,7,18.1-17.4,37.5
							C1391.2,1863.7,1349.9,1913.1,1349.9,1913.1z"/>
					</g>
					<g>
						<path class="st5" d="M1338.7,1932.5c0,0,61.5-66.5,116.8-63.7c21.6,4.1,4.8,31.7-25.8,34.1
							C1399,1904.9,1338.7,1932.5,1338.7,1932.5z"/>
					</g>
					<g>
						<path class="st5" d="M1321,1964.9c0,0,55.3-49.8,107.8-44.6c52.5,5.1,28.9,29.6,5.6,24.9
							C1410.8,1940.7,1357.2,1947.8,1321,1964.9z"/>
					</g>
					<g>
						<path class="st5" d="M1300.8,2004.1c0,0,55.3-49.8,107.5-44.6c52.2,5.1,28.9,29.6,5.6,24.9
							C1390.6,1979.9,1337.3,1987,1300.8,2004.1z"/>
					</g>
					<g>
						<path class="st5" d="M1334.5,1937.9c0,0,23.3-95.8-2.2-155.1c-12.1-21.8-25.5,8.5-14.3,42.6
							C1329.2,1859.9,1334.5,1937.9,1334.5,1937.9z"/>
					</g>
					<g>
						<path class="st5" d="M1317.6,1971.3c0,0,13.5-81.8-12.6-137.3c-26.1-55.6-34.2-19.4-21.1,4.4
							C1297.4,1862.3,1315.1,1924,1317.6,1971.3z"/>
					</g>
					<g>
						<path class="st5" d="M1297.2,2010.2c0,0,13.5-81.8-12.6-137.3c-26.1-55.6-34.2-19.4-21.1,4.4
							C1276.9,1901.1,1294.6,1962.8,1297.2,2010.2z"/>
					</g>
					<g>
						<path class="st5" d="M1283.1,2046.3c0,0,9.3-99.2-24.7-152.3c-15.2-19.1-24.1,13.6-8.1,45.3
							C1266.6,1970.7,1283.1,2046.3,1283.1,2046.3z"/>
					</g>
					<g>
						<path class="st5" d="M1271.6,2082.8c0,0,1.4-83.5-32.3-132.6c-33.7-49.1-36.5-11.6-19.9,8.9
							C1236,1979.9,1262.1,2036.4,1271.6,2082.8z"/>
					</g>
					<g>
						<path class="st5" d="M1256.7,2125.4c0,0,1.4-83.5-32.3-132.6c-33.7-49.1-36.5-11.6-19.9,8.9
							C1221.1,2022.1,1247.5,2079,1256.7,2125.4z"/>
					</g>
					<g>
						<path class="st5" d="M1245.2,2164.9c0,0,4.8-99.9-31.4-150.3c-16-18.1-23.3,15.3-5.9,45.7
							C1225,2090.6,1245.2,2164.9,1245.2,2164.9z"/>
					</g>
					<g>
						<path class="st5" d="M1235.1,2202.1c0,0-2.2-83.5-38.2-130.2c-35.9-46.7-37-9.2-19.6,10.2S1223.6,2156.7,1235.1,2202.1z"/>
					</g>
					<g>
						<path class="st5" d="M1222.5,2245.7c0,0-2.2-83.5-38.2-130.2c-35.9-46.7-37-9.2-19.6,10.2S1211,2200.4,1222.5,2245.7z"/>
					</g>
					<g>
						<path class="st5" d="M1216.6,2273c0,0-4.5-84.5-39-125.4c-14.9-14.3-18.2,14-1.1,38.9C1193.3,2211.3,1216.6,2273,1216.6,2273z
							"/>
					</g>
					<g>
						<path class="st5" d="M1211.3,2305c-13.5-37.8-42.1-83.2-58.4-98.5c-3.3-3.1-5.9-6.9-7.9-10.6v-16.8
							c3.9-0.2,11.4,4.6,23.3,17.8C1202.3,2234.8,1211.3,2305,1211.3,2305z"/>
					</g>
					<g>
						<path class="st5" d="M1204.3,2342.1c-13.5-37.8-42.1-82.8-58.4-98.5c-0.3-0.3-0.6-0.6-0.9-0.9V2219c4.1,2.7,9.5,7.5,16.3,15.1
							C1195.3,2271.9,1204.3,2342.1,1204.3,2342.1z"/>
					</g>
					<g>
						<path class="st5" d="M1197.2,2384.4c0,0-28.3-58.6-47.4-81.1c-1.8-2.1-3.4-4.2-4.8-6.4v-34.1c0.8,0.4,1.7,1,2.6,1.7
							C1185.4,2300.9,1197.2,2384.4,1197.2,2384.4z"/>
					</g>
					<g>
						<path class="st5" d="M1194.7,2416.8c-12.1-26.1-32.6-55-49.7-74v-25.6C1180.2,2351,1194.7,2416.8,1194.7,2416.8z"/>
					</g>
					<g class="st9">
						<path class="st5" d="M1361.2,1932.5c0,0,61.5-66.5,116.8-63.7c21.6,4.1,4.8,31.7-25.8,34.1
							C1421.5,1904.9,1361.2,1932.5,1361.2,1932.5z"/>
					</g>
					<g class="st9">
						<path class="st5" d="M1343.5,1964.9c0,0,55.3-49.8,107.8-44.6c52.5,5.1,28.9,29.6,5.6,24.9
							C1433.3,1940.7,1379.7,1947.8,1343.5,1964.9z"/>
					</g>
					<g class="st9">
						<path class="st5" d="M1323.3,2004.1c0,0,55.3-49.8,107.5-44.6s28.9,29.6,5.6,24.9C1413.1,1979.9,1359.7,1987,1323.3,2004.1z"
							/>
					</g>
					<g class="st9">
						<path class="st5" d="M1307,2046.7c0,0,55.3-49.8,107.8-44.6c52.5,5.1,28.9,29.6,5.6,24.9
							C1396.8,2022.5,1343.2,2029.6,1307,2046.7z"/>
					</g>
					<g class="st9">
						<path class="st5" d="M1292.4,2084.2c0,0,51.6-55.2,104.1-55.2s30.9,26.6,7.3,24.2C1380.2,2051.1,1327.5,2063.4,1292.4,2084.2z
							"/>
					</g>
					<g class="st9">
						<path class="st5" d="M1275.3,2132.9c0,0,51.6-55.2,104.1-55.2s30.9,26.6,7.3,24.2C1363.1,2100.2,1310.3,2112.1,1275.3,2132.9z
							"/>
					</g>
					<g>
						<path class="st5" d="M1191.1,2454.9c-11.2-24.2-29.8-51-46.1-69.8V2359C1177.6,2393.8,1191.1,2454.9,1191.1,2454.9z"/>
					</g>
					<g>
						<path class="st5" d="M1284.5,2046.7c0,0,55.3-49.8,107.8-44.6c52.5,5.1,28.9,29.6,5.6,24.9
							C1374.3,2022.5,1320.7,2029.6,1284.5,2046.7z"/>
					</g>
					<g>
						<path class="st5" d="M1269.9,2084.2c0,0,51.6-55.2,104.1-55.2s30.9,26.6,7.3,24.2C1357.8,2051.1,1305,2063.4,1269.9,2084.2z"
							/>
					</g>
					<g>
						<path class="st5" d="M1252.8,2132.9c0,0,51.6-55.2,104.1-55.2s30.9,26.6,7.3,24.2C1340.7,2100.2,1287.9,2112.1,1252.8,2132.9z
							"/>
					</g>
					<g>
						<path class="st5" d="M1245.2,2159.5c0,0,58.7-43.3,110.6-32.4c51.9,10.9,26.7,32.7,3.6,25.6
							C1336.7,2145.5,1283.1,2146.2,1245.2,2159.5z"/>
					</g>
					<g>
						<path class="st5" d="M1234,2198c0,0,49.4-44.3,92.1-34.4c42.7,9.9,21.6,32,2.8,25.6C1310.1,2182.3,1265.4,2184.3,1234,2198z"
							/>
					</g>
					<g>
						<path class="st5" d="M1224.5,2237.5c0,0,40.4-56.2,83.9-57.3c43.5-1,26.7,25.9,7,24.2
							C1295.8,2202.8,1252.5,2216,1224.5,2237.5z"/>
					</g>
					<g>
						<path class="st5" d="M1216.3,2279.8c0,0,40.4-56.2,83.9-57.3c43.5-1,26.7,25.9,7,24.2
							C1287.9,2244.7,1244.7,2258,1216.3,2279.8z"/>
					</g>
					<g>
						<path class="st5" d="M1211.8,2307.4c0,0,34-55.2,71.3-55.6c37.3-0.3,23.3,26.2,6.5,24.2
							C1272.5,2274,1235.7,2286.2,1211.8,2307.4z"/>
					</g>
					<g>
						<path class="st5" d="M1201.4,2354.1c0,0,37.6-55.6,78.6-56.6s25.3,25.9,6.7,24.2C1268.5,2319.6,1227.8,2332.6,1201.4,2354.1z"
							/>
					</g>
					<g>
						<path class="st5" d="M1193,2410.6c0,0,37.6-55.6,78.6-56.6s25.3,25.9,6.7,24.2C1260.1,2376.2,1219.4,2389.2,1193,2410.6z"/>
					</g>
					<g>
						<path class="st5" d="M1185.2,2473.3c0,0,37.6-55.6,78.6-56.6s25.3,25.9,6.7,24.2C1252.2,2438.9,1211.6,2451.9,1185.2,2473.3z"
							/>
					</g>
				</g>
			</g>
		</g>
	</g>
	<g class="st1">
		<g class="st9">
			<path class="st10" d="M1554,1236.3c0,0-4.9-40.4-2.8-87.9c-0.9-24.4-16.1-19.4-16.8,5.4c-0.6,24.9,12.2,78.7,12.2,78.7
				s-23.3-33.1-25.9-79.6c-2.6-46.4-25.6-40.5-25-23.8c0.4,16.6,26,91.9,41.3,104.1c-48.1-46-53.9-93.4-62.5-103.4
				c-8.8-10-26.7,5.8-12,33.2c14.7,27.1,60.3,73.8,72.7,77c-50.4-21.5-61.8-49.5-73.3-53.2s-16.8,6-3.3,25.6
				c13.7,19.6,75.8,35.7,75.8,35.7c-25.8,4.8-53.6-5.5-63.4-7.6c-9.8-2-24.6,8.3-6.1,17.9s67.7-1.1,72.9-3
				c-12.4,15.5-42.8,15.5-52.3,22.1c-9.5,6.5-5.2,22.8,14.6,18.6c19.8-4.2,42.2-33,43.7-35.6c-3.4,18.1-16.4,27.9-23.7,37
				c-7.2,9.1-4.7,22.8,9.9,16.5s23.2-56.8,23.2-56.8c2.4,20.5,3,33.6-1.2,46.8c-4.1,13.5,6,19.8,13.8,12.4s5.6-46.6-3.3-60.6
				c16.4,13.3,11.3,38.2,21.6,39.8c10.3,1.5,13.5-12.3,8.7-23.7c-4.8-11.5-26.4-21.8-29-22.9c35.3-5.7,42.4-21.2,42.8-35.6
				s-9.4-11.1-15.4-0.4c-6,11-20.8,26.7-27.3,28.8c21.3-27.7,25.4-56.5,19.1-78.4c-6.3-22-22.1-23.7-18.9-1.9
				C1568,1182.8,1565.6,1229.5,1554,1236.3z"/>
		</g>
		<g class="st9">
			<path class="st10" d="M1974,699.3c0,0-4.9-40.4-2.8-87.9c-0.9-24.4-16.1-19.4-16.8,5.4c-0.6,24.9,12.2,78.7,12.2,78.7
				s-23.3-33.1-25.9-79.6c-2.6-46.4-25.6-40.5-25-23.8c0.4,16.6,26,91.9,41.3,104.1c-48.1-46-53.9-93.4-62.5-103.4
				c-8.8-10-26.7,5.8-12,33.2c14.7,27.1,60.3,73.8,72.7,77c-50.4-21.5-61.8-49.5-73.3-53.2s-16.8,6-3.3,25.6
				c13.7,19.6,75.8,35.7,75.8,35.7c-25.8,4.8-53.6-5.5-63.4-7.6c-9.8-2-24.6,8.3-6.1,17.9c18.5,9.6,67.7-1.1,72.9-3
				c-12.4,15.5-42.8,15.5-52.3,22.1c-9.5,6.5-5.2,22.8,14.6,18.6c19.8-4.2,42.2-33,43.7-35.6c-3.4,18.1-16.4,27.9-23.7,37
				c-7.2,9.1-4.7,22.8,9.9,16.5s23.2-56.8,23.2-56.8c2.4,20.5,3,33.6-1.2,46.8c-4.1,13.5,6,19.8,13.8,12.4
				c7.8-7.4,5.6-46.6-3.3-60.6c16.4,13.3,11.3,38.2,21.6,39.8c10.3,1.5,13.5-12.3,8.7-23.7c-4.8-11.5-26.4-21.8-29-22.9
				c35.3-5.7,42.4-21.2,42.8-35.6c0.4-14.4-9.4-11.1-15.4-0.4c-6,11-20.8,26.7-27.3,28.8c21.3-27.7,25.4-56.5,19.1-78.4
				c-6.3-22-22.1-23.7-18.9-1.9C1988,645.8,1985.6,692.5,1974,699.3z"/>
		</g>
		<g class="st9">
			<path class="st10" d="M1291,327.1c0,0-3-25.3-1.7-55c-0.6-15.3-10.1-12.2-10.5,3.4s7.7,49.3,7.7,49.3s-14.6-20.7-16.2-49.8
				c-1.6-29.1-16-25.3-15.6-14.9c0.2,10.4,16.3,57.5,25.9,65.1c-30.1-28.8-33.8-58.4-39.1-64.7c-5.5-6.3-16.7,3.6-7.5,20.8
				c9.2,17,37.7,46.2,45.5,48.2c-31.6-13.4-38.7-31-45.9-33.3c-7.2-2.3-10.5,3.7-2.1,16c8.6,12.3,47.5,22.3,47.5,22.3
				c-16.1,3-33.5-3.5-39.7-4.7c-6.2-1.3-15.4,5.2-3.8,11.2s42.4-0.7,45.6-1.9c-7.7,9.7-26.8,9.7-32.8,13.8c-6,4.1-3.2,14.3,9.2,11.6
				c12.4-2.6,26.4-20.6,27.3-22.3c-2.1,11.3-10.3,17.5-14.8,23.1c-4.5,5.7-3,14.3,6.2,10.3c9.1-4,14.5-35.6,14.5-35.6
				c1.5,12.8,1.8,21-0.7,29.3c-2.6,8.4,3.7,12.4,8.6,7.7s3.5-29.2-2.1-38c10.3,8.3,7.1,23.9,13.5,24.9s8.5-7.7,5.5-14.8
				c-3-7.2-16.5-13.6-18.1-14.4c22.1-3.6,26.5-13.3,26.8-22.3s-5.9-7-9.6-0.3c-3.7,6.9-13,16.7-17.1,18
				c13.3-17.3,15.9-35.3,11.9-49.1c-4-13.7-13.8-14.8-11.8-1.2C1299.8,293.6,1298.3,322.9,1291,327.1z"/>
		</g>
	</g>
	<g class="st1">
		<path class="st11" d="M2252.5,0h-13.2c-0.7,1.4-1.4,2.7-2.1,4.1c1.5,22,6.1,47,11.7,68.5c1.4-9.8,3.1-20,5-30.4
			C2252.3,27.4,2252.1,12.7,2252.5,0z"/>
		<path class="st11" d="M2069.5,121.3c0-1.5,0-3,0-4.5c-4.3-3.2-7.7-6.2-10.2-9c-1,6.4-2.4,12.9-4.2,19c5.5,2.9,11.7,5.9,18.3,8.7
			C2071.1,132.1,2069.6,127.1,2069.5,121.3z"/>
		<path class="st11" d="M2270.3-4.7c-0.4,1.6-0.8,3.1-1.2,4.7h0.9v35.7c2.1,8.3,4.4,15.9,6.8,21.9c0.6,1.4,1.1,2.9,1.6,4.3
			c3.4-3.4,8.3-4.8,13.6-4.3c-1.5-2.4-3-5.1-4.7-8.1C2278.3,33.2,2273.2,13.7,2270.3-4.7z"/>
		<path class="st11" d="M2262.5,2c0.2-0.7,0.3-1.3,0.5-2h-0.9C2262.3,0.6,2262.4,1.3,2262.5,2z"/>
		<path class="st11" d="M2262.4,272.3c0,0,2.7,0.7,7.6,1.8v-10C2266.5,266.4,2263.9,269.1,2262.4,272.3z"/>
		<path class="st11" d="M2109.9,90c-0.7-1.2-1.3-2.4-1.8-3.9c-7.3-18.7-19.4-31.2-39.8-48.5c0,0,12.3,21.9,20.4,45
			c1.5,0.4,3.1,1,4.5,1.8C2097.5,86.6,2103.3,88.5,2109.9,90z"/>
		<path class="st11" d="M2180.3,94.3c-12.2,7-37.2,19.3-62.2,19.9c14.4,4.7,30.2,8,44.6,8.5C2168.7,113.3,2174.6,103.8,2180.3,94.3z
			"/>
		<path class="st11" d="M2224,0h8.8c1.2-2.4,2.4-4.7,3.6-7C2233.2-5,2229-2.6,2224,0z"/>
		<path class="st11" d="M2070.2,89.1c-0.3-11.7-2.1-24-8.2-35.3c0.4,2,1,16.1-0.3,33.6C2064.3,87.3,2067.3,87.8,2070.2,89.1z"/>
		<path class="st11" d="M2269,234.2c-5.7,7.4-10.2,14.6-11.4,19.5c3.8-3.7,7.6-7.1,11.3-10.2C2268.7,240.7,2268.7,237.6,2269,234.2z
			"/>
		<path class="st11" d="M2204.4,64.8c-4,7-8.1,14.1-12.3,21.2c-1.1,35.4,4.9,78.8,12.4,108.7c0.7-0.2,1.4-0.4,2.1-0.5
			c-0.1-0.2-0.3-0.5-0.4-0.7C2188.9,149.1,2200.5,83.8,2204.4,64.8z"/>
		<path class="st11" d="M2051.8,56.1c-2,4.6-15.4,28.7-31.6,51.9c3.8,0.3,8.1,1.7,12.3,4.1C2042,94.3,2052.1,73.9,2051.8,56.1z"/>
		<path class="st11" d="M2128.4,268.7c-2.1-40.9,8.9-84.8,15.2-106.1c-6,8.7-12.1,17.5-18.3,26.1
			C2123.5,214.1,2125.1,243.3,2128.4,268.7z"/>
		<path class="st11" d="M2241.2,172.1c-3.3-4-7.3-11.1-12-22.1c-16.8-39.1-12.9-91.1-10.6-110.9c-4.2,7.6-8.4,15.4-12.8,23.1
			c0.9,13.3,5,68.2,12.7,94.8c4.8,16.5,3.6,31.5,0,38.7c1.8,0.8,3.7,1.8,5.4,3.1c7.8,5.8,14.7,21.9,19.1,35.1
			C2241.9,217.5,2241,196.5,2241.2,172.1z"/>
		<path class="st11" d="M2189.5,286.4c21-10.6,48.2-15.2,48.2-15.2c-19.4-5.2-33.2-7.8-46.7-5.3
			C2192.6,274.5,2191.9,282.5,2189.5,286.4z"/>
		<path class="st11" d="M2190.9,88.1c-7.4,12.5-15.1,25.2-23.2,37.8c-0.6,37.1,6.1,81.9,14,110.7c4.6-0.5,9.9-0.4,15.4,0.2
			c-2-4.3-4.2-9.7-6.4-16.2C2173.7,171.4,2186.5,107,2190.9,88.1z"/>
		<path class="st11" d="M2216.1,241.1c9.9,3.2,18.8,7.9,24.3,13.5c-6.5-13.6-16.1-19.9-25-24.4
			C2216.1,234.1,2216.3,237.8,2216.1,241.1z"/>
		<path class="st11" d="M2255,135.3c-2.6-0.2-4.7-1.1-6.4-2.6c-0.1,1.5-0.2,3-0.3,4.5c-0.2,4.3-0.5,8.6-0.6,12.8
			c2.9,6.6,4.1,13.8,3.8,19c3.6-6.5,10.4-12.2,18.5-16.9v-20.8c-0.5,0.1-1,0.3-1.6,0.5C2269.8,143.9,2265,151.5,2255,135.3z"/>
		<path class="st11" d="M2267.8,95.1c-5.2-10.3-8.8-22.1-11.2-34.3c-1.4,9-2.7,17.7-3.8,26.2c1.7,5.7,3.5,10.9,5.2,15.6
			c3.4-1,7.5-1.5,11.9-1.7V98C2269.3,97.2,2268.6,96.3,2267.8,95.1z"/>
		<path class="st11" d="M2235.8,6.8c-5,9.7-10.3,19.7-15.7,29.7c2.4,35.3,12.7,78.1,22.2,101.8c0-0.5,0.1-1.1,0.1-1.6
			c0.4-7.6,1-15.6,1.8-23.9C2229.8,74.1,2233.6,25.5,2235.8,6.8z"/>
		<path class="st11" d="M2046.2,148.1c-7.6,12.5-15.4,16.8-21.2,16c23,9.3,66.3,16.9,100.8,13.5c5.1-7.2,10.2-14.4,15.1-21.7
			C2125.8,158.8,2082.2,165,2046.2,148.1z"/>
		<path class="st11" d="M2248.9,176.2c-0.5,0.3-1.1,0.5-1.8,0.4c-0.2,28.5,1.3,52.2,2.9,69.1c5.1-27.1,12.2-43.4,20-53v-2.4
			c-0.2,0.3-0.5,0.5-0.7,0.8C2258.6,202.6,2242.9,199.4,2248.9,176.2z"/>
		<path class="st11" d="M2270,314.3v-1.4c-1.5-1.8-2.9-3.6-4-5.3C2267.3,309.9,2268.7,312.1,2270,314.3z"/>
		<path class="st11" d="M2270,290v-2.6c-2.5-1.1-4-1.7-4-1.7S2267.4,287.3,2270,290z"/>
		<path class="st11" d="M2182.3,91c7-11.7,13.7-23.2,20.2-34.7c-11.8,7-41,22.3-69.2,21.2c0.1,1.1,0.2,2.2,0.1,3.2
			c-0.6,5.2-2.4,9.4-4.8,12.3C2145.6,95,2165.2,94.7,2182.3,91z"/>
		<path class="st11" d="M2270,356.6v-15.1c-6.4-12.1-11.2-22.7-13.4-30C2260.7,328.9,2265.3,343.8,2270,356.6z"/>
		<path class="st11" d="M2203.8,54c4.3-7.7,8.5-15.2,12.5-22.7c-11.7,8.5-49.9,33.4-79.2,21c-13-5.5-18.3-11.6-19.1-16.7
			c-10.3-5.7-23.4-15.9-41-11.2c11.2,1.6,26.9,12.3,38.8,24.7C2134.2,57.2,2173,61.3,2203.8,54z"/>
		<path class="st11" d="M2270,35.7V0h-0.9c-1.3,5.3-2.6,10.6-3.8,15.8C2266.8,22.6,2268.4,29.3,2270,35.7z"/>
		<path class="st11" d="M2248.7,419.7c1.8,17.8-12.8,43.1-22.6,8.9c-10-34.2,8.1-120.7,10.7-129.8c-20,20.6-22.9,74.7-31.8,91.4
			c-8.9,16.7-28.1,7.3-20.7-27.8c7.4-35.2,44.7-72.4,48.2-74.3c-22.1,4.2-35.4,26.4-46.9,38.6c-11.5,11.8-28.4,6.3-18.8-19.2
			c2.7-7.5,9.7-13.6,18.4-18.6c-3.5-0.7-8.3-6.2-13.9-19.4c-7.2-2.3-10-11.2-7.1-19.9c-12.4-44.1-3.6-97.3,1.2-119.8
			c-5.8,9-11.7,18.1-17.8,27.1c-0.3,20-0.7,77.4,5.3,106.4c7.5,34.7-7.7,62.6-17.7,42.9c1.4,5.4,2.8,10,4.3,13.9
			c9.5,26-3.7,60.2-21.4,0.4c-13.9-47.3-1.1-105.7,4.9-128.5c-7.8,10.7-15.8,21.3-24,31.7c-2.9,46.6,5.1,105.6,14.2,130.7
			c9.5,26-3.7,60.2-21.4,0.4c-13.8-47.1-1.3-105.1,4.8-128.1c-6.1,7.7-12.3,15.3-18.6,22.7c-1.1,14.7-5.2,79.4,0.3,111.3
			c6,36.1-11.8,63.6-20.5,39.4c-14.3-54.8,11-128.7,18.5-148.5c-7.1,8.4-14.4,16.7-21.8,24.8c-10.9,45.8-12,109.8-6.2,137.4
			c5.8,27.9-12.4,58.5-20.9-4.3c-7.6-56.1,20.3-119.3,26.3-132.2c-9.9,10.8-20.1,21.3-30.5,31.4c-9.9,45.2-10.8,106.6-5.4,133.8
			c5.8,27.9-12.4,58.5-20.9-4.3c-6.9-50.9,15.4-107.7,24.2-127.4c-7.4,7.2-15,14.1-22.7,20.9c-3.4,15.5-16.5,77.2-15.9,109.3
			c0.7,36.5-20.6,59.8-25.7,34.4c-5.9-55.6,28.1-121.8,39-141.4c-9.4,8.2-19,16-28.8,23.5c-19,20-60.5,58.2-97.4,55.1
			c-21.1,0.8-1.4-19.8,27.1-28.5c17.8-5.5,45.9-19.7,63.9-29.2l-0.2-0.4c7.8-5.8,15.4-11.9,22.9-18.2c-22.7,9.3-77.7,27.8-117.5,8.6
			c-19.1-12.4,4.5-31.9,34.1-21.7c24.1,8.7,72.8,8.8,88.7,8.6c8-6.8,15.8-13.9,23.5-21.2c-18.5,5.5-68.3,17.2-106.7-3.6
			c-47.8-26-18.5-39.7,2-25.8c20.2,13.3,69,27.2,107.2,27.1c8.8-8.4,17.4-17,25.8-25.8c-19.8,5.7-67.6,15.9-104.5-4.1
			c-47.8-26-18.5-39.7,2-25.8c19.4,12.8,67,26.8,105.2,27.1c9.7-10.3,19.2-20.9,28.4-31.8c-17,5.3-68.7,18.3-108.3-3.1
			c-47.8-26-18.5-39.7,2-25.8c20,13,69.6,27.4,107.9,27.1c7.5-8.8,14.7-17.8,21.9-26.8c-17.6,7.2-67.1,24.3-106.8,7.2
			c-49.4-21.2-21.4-37.4,0-25.9c20.5,11.4,70.1,20.5,108.6,16.4c9.3-11.9,18.3-24,27-36.1c-18.6,7.5-66.8,23.5-105.6,6.7
			c-49.4-21.2-21.4-37.4,0-25.9c0.6,0.3,1.3,0.7,2,1c-3.7-3.1-5.5-9.2-3.9-16.4c0.8-3.8,2.8-8.4,5.4-13.6
			c-5.3-4.6-8.6-8.6-10.5-11.9c-11.1,14.6-22.9,27.3-32.9,32.4c-27.9,14.1-21.5-15.6-9.5-26s49.9-35.7,72.6-73.6
			c0,0-78.9,63.4-110,61.4s-34-18.9-18.9-29.8c14.8-10.7,49.9,2.4,118.4-37.9c-23.3,11.3-102.1,21.1-138.6,13.1
			c-38.9-8.9-34.2-47.9-16.4-48.8c17.4-0.9,63.6,38,150.6,24.5c-22.4,1.7-72.2-18.3-103.6-35.4H-252v2436h2522v-2014
			c-15.2-41.9-24.3-116.3-24.3-116.3C2237.3,351.7,2247.2,401.9,2248.7,419.7z M179.1,312.6c-0.3,9-4.7,18.7-26.8,22.3
			c1.6,0.7,15.1,7.2,18.1,14.4c3,7.2,1,15.8-5.5,14.8c-6.4-1-3.3-16.6-13.5-24.9c5.6,8.8,7,33.3,2.1,38c-4.9,4.6-11.2,0.7-8.6-7.7
			c2.6-8.3,2.2-16.5,0.7-29.3c0,0-5.4,31.6-14.5,35.6s-10.7-4.7-6.2-10.3c4.5-5.7,12.7-11.8,14.8-23.1c-0.9,1.6-14.9,19.6-27.3,22.3
			s-15.1-7.5-9.2-11.6c6-4.1,25-4.1,32.8-13.8c-3.2,1.2-34,7.9-45.6,1.9S88,328.7,94.2,330c6.2,1.3,23.5,7.7,39.7,4.7
			c0,0-38.9-10.1-47.5-22.3c-8.4-12.3-5.1-18.3,2.1-16c7,2.3,14,19.1,43.7,32.4c-9.9-5.5-34.8-31.6-43.3-47.3
			c-9.2-17.2,2-27.1,7.5-20.8c5.3,6.1,8.9,34.8,37.5,63.1c-9.7-11.1-24-53.7-24.2-63.5c-0.4-10.4,14-14.1,15.6,14.9
			s16.2,49.8,16.2,49.8s-8.1-33.7-7.7-49.3c0.4-15.6,9.9-18.7,10.5-3.4c-1.3,29.8,1.7,55,1.7,55c7.2-4.2,8.8-33.5,6.5-47
			c-2-13.7,7.9-12.6,11.8,1.2c4,13.7,1.4,31.7-11.9,49.1c4.1-1.3,13.3-11.1,17.1-18C173.2,305.6,179.4,303.6,179.1,312.6z
			 M461.9,1213.1c-0.4,14.4-7.5,29.9-42.8,35.6c2.6,1.2,24.2,11.5,29,22.9c4.8,11.5,1.5,25.2-8.7,23.7c-10.3-1.5-5.2-26.5-21.6-39.8
			c8.9,14,11.1,53.2,3.3,60.6c-7.8,7.4-17.9,1.1-13.8-12.4c4.1-13.2,3.6-26.3,1.2-46.8c0,0-8.6,50.5-23.2,56.8s-17.1-7.4-9.9-16.5
			s20.2-18.9,23.7-37c-1.4,2.6-23.9,31.4-43.7,35.6c-19.8,4.2-24.2-12-14.6-18.6c9.5-6.5,40-6.6,52.3-22.1
			c-5.2,1.9-54.3,12.6-72.9,3c-18.5-9.6-3.8-20,6.1-17.9c9.8,2,37.6,12.3,63.4,7.6c0,0-62.1-16.1-75.8-35.7
			c-13.5-19.6-8.2-29.3,3.3-25.6c11.2,3.6,22.3,30.5,69.8,51.7c-15.9-8.9-55.6-50.5-69.2-75.5c-14.7-27.4,3.2-43.2,12-33.2
			c8.5,9.8,14.3,55.7,60,100.9c-15.5-17.5-38.5-85.9-38.8-101.6c-0.6-16.6,22.4-22.6,25,23.8s25.9,79.6,25.9,79.6
			s-12.9-53.8-12.2-78.7c0.6-24.9,15.8-29.8,16.8-5.4c-2.1,47.6,2.8,87.9,2.8,87.9c11.5-6.7,14-53.5,10.3-75
			c-3.2-21.8,12.6-20.1,18.9,1.9s2.2,50.7-19.1,78.4c6.5-2.1,21.3-17.8,27.3-28.8C452.4,1202,462.3,1198.7,461.9,1213.1z
			 M881.9,676.1c-0.4,14.4-7.5,29.9-42.8,35.6c2.6,1.2,24.2,11.5,29,22.9c4.8,11.5,1.5,25.2-8.7,23.7c-10.3-1.5-5.2-26.5-21.6-39.8
			c8.9,14,11.1,53.2,3.3,60.6c-7.8,7.4-17.9,1.1-13.8-12.4c4.1-13.2,3.6-26.3,1.2-46.8c0,0-8.6,50.5-23.2,56.8
			c-14.6,6.3-17.1-7.4-9.9-16.5c7.2-9.1,20.2-18.9,23.7-37c-1.4,2.6-23.9,31.4-43.7,35.6c-19.8,4.2-24.2-12-14.6-18.6
			c9.5-6.5,40-6.6,52.3-22.1c-5.2,1.9-54.3,12.6-72.9,3c-18.5-9.6-3.8-20,6.1-17.9c9.8,2,37.6,12.3,63.4,7.6
			c0,0-62.1-16.1-75.8-35.7c-13.5-19.6-8.2-29.3,3.3-25.6c11.2,3.6,22.3,30.5,69.8,51.7c-15.9-8.9-55.6-50.5-69.2-75.5
			c-14.7-27.4,3.2-43.2,12-33.2c8.5,9.8,14.3,55.7,60,100.9c-15.5-17.5-38.5-85.9-38.8-101.6c-0.6-16.6,22.4-22.6,25,23.8
			c2.6,46.4,25.9,79.6,25.9,79.6s-12.9-53.8-12.2-78.7c0.6-24.9,15.8-29.8,16.8-5.4c-2.1,47.6,2.8,87.9,2.8,87.9
			c11.5-6.7,14-53.5,10.3-75c-3.2-21.8,12.6-20.1,18.9,1.9c6.3,22,2.2,50.7-19.1,78.4c6.5-2.1,21.3-17.8,27.3-28.8
			C872.4,665,882.3,661.7,881.9,676.1z"/>
		<path class="st11" d="M2217.3,29.5c5.4-10,10.6-19.8,15.5-29.5h-8.8c-18.4,9.5-47,20-71.1,10.3c-8.4-3.4-14-6.9-17.3-10.3h-40.2
			c-3.2,3-6.2,5.7-9,8.3c11.4-5.1,27-10.5,36.3-7.1c11.5,4.2,19.3,16,16.8,26.5C2155.6,35.8,2190.3,38.4,2217.3,29.5z"/>
		<path class="st11" d="M2008.6,0h-31.8c33.3,19.6,63.6,21.5,63.6,21.5S2025.9,12.3,2008.6,0z"/>
		<path class="st11" d="M2086.3,0h-4.8c-1.4,2.7-3,5.5-4.6,8.4C2079.8,5.9,2082.9,3.1,2086.3,0z"/>
		<path class="st11" d="M2050.2,0h-16.1c10.5,10.1,17.1,15.8,17.1,15.8C2052.6,11.5,2052,6.1,2050.2,0z"/>
		<path class="st11" d="M2068.9,0h-2.8c0.2,2.6,0.3,5.2,0.4,7.9C2067.4,6,2068.2,3.3,2068.9,0z"/>
		<path class="st11" d="M2092.9,128.2c-2.9,6.5-6.1,10.1-9.3,11.4c18.6,7.1,39.5,12.8,58.4,14.7c6.6-9.8,13.1-19.6,19.3-29.4
			C2148.6,128.6,2119.2,135.4,2092.9,128.2z"/>
		<path class="st10" d="M2026.6,35.4c1.5-0.2,3-0.5,4.5-0.7C2029.8,35.1,2028.2,35.3,2026.6,35.4c-87.1,13.4-133.2-25.5-150.6-24.5
			c-17.7,0.9-22.5,40,16.4,48.8c36.6,7.9,115.4-1.8,138.6-13.1c1.4-0.8,2.8-1.6,4.2-2.5c-1.1,0.8-2.5,1.7-4.2,2.5
			c-68.5,40.2-103.6,27.2-118.4,37.9c-15.1,10.9-12.2,27.8,18.9,29.8s110-61.4,110-61.4c-22.7,37.9-60.6,63.2-72.6,73.6
			s-18.3,40.1,9.5,26c10-5.1,21.7-17.8,32.9-32.4c-4.8-8.6,0.6-12.8,8.8-12.1c16.2-23.2,29.6-47.3,31.6-51.9
			c0.3,17.9-9.8,38.2-19.3,56c1.7,1,3.4,2.1,5,3.4c4.4,3.6,10.5,7.5,17.7,11.3c1.8-6.1,3.1-12.6,4.2-19
			c-11.6-12.6-6.4-20.1,2.4-20.4c1.3-17.5,0.8-31.6,0.3-33.6c6.1,11.3,7.9,23.6,8.2,35.3c0.1,0,0.2,0.1,0.3,0.1
			c1.3-5.7,9.7-9,18.3-6.6c-8.1-23.1-20.4-45-20.4-45c20.3,17.3,32.4,29.7,39.8,48.5c0.6,1.4,1.2,2.7,1.8,3.9
			c5.6,1.3,11.9,2.4,18.6,3.1c2.4-2.9,4.2-7.1,4.8-12.3c0.1-1,0.1-2.1-0.1-3.2c-7-0.3-13.9-1.5-20.4-4.2
			c-41.1-16.5-17.6-35.2,0.3-25.6c0.9,0.5,1.8,0.9,2.8,1.3c-12-12.4-27.6-23.1-38.8-24.7c17.6-4.7,30.6,5.5,41,11.2
			c-1.3-8.6,10.4-14.2,19.9-8.9c0.5,0.3,1.1,0.6,1.7,0.9c2.4-10.4-5.4-22.3-16.8-26.5c-9.2-3.4-24.9,2-36.3,7.1
			c-16.8,15-27.5,22.5-27.7,22.5l-2.6-5.9c0.1-0.1,7.9-5.6,20.6-16.5c1.7-2.9,3.2-5.7,4.6-8.4H2069c-0.7,3.3-1.5,6-2.4,7.9
			c-0.1-2.7-0.3-5.3-0.4-7.9h-15.9c1.8,6.1,2.3,11.5,1.1,15.8c0,0-6.6-5.7-17.1-15.8h-25.6c17.3,12.3,31.8,21.5,31.8,21.5
			s-30.2-1.9-63.6-21.5H1923C1954.4,17.1,2004.1,37.1,2026.6,35.4z"/>
		<path class="st10" d="M2092.9,128.2c-7.5-2-14.7-5.2-21.3-9.9c-0.7-0.5-1.4-1-2.1-1.5c0,1.5,0,3.1,0,4.5
			c0.1,5.8,1.6,10.8,3.9,14.2c3.3,1.4,6.7,2.8,10.2,4.1C2086.7,138.3,2090,134.8,2092.9,128.2z"/>
		<path class="st10" d="M2026.6,35.4c1.7-0.1,3.2-0.4,4.5-0.7C2029.6,35,2028.1,35.2,2026.6,35.4z"/>
		<path class="st10" d="M2046.2,148.1c-4.4-2-8.6-4.4-12.7-7.2c-4.7-3.2-8.5-6.2-11.7-8.9c-2.6,5.2-4.5,9.8-5.4,13.6
			c-1.6,7.3,0.1,13.4,3.9,16.4c1.4,0.7,3,1.4,4.7,2C2030.8,164.9,2038.6,160.5,2046.2,148.1z"/>
		<path class="st10" d="M2031,46.6c1.7-0.8,3.1-1.7,4.2-2.5C2033.8,44.9,2032.4,45.8,2031,46.6z"/>
		<path class="st10" d="M386.8,1238.4c1.4,0.8,2.6,1.3,3.5,1.6C389.1,1239.5,388,1239,386.8,1238.4z"/>
		<path class="st12" d="M392.2,1233.1c-0.8-0.8-1.7-1.6-2.5-2.4C390.5,1231.7,391.4,1232.5,392.2,1233.1z"/>
		<path class="st10" d="M812.2,696.1c-0.8-0.8-1.7-1.6-2.5-2.4C810.5,694.7,811.4,695.5,812.2,696.1z"/>
		<path class="st10" d="M806.8,701.4c1.4,0.8,2.6,1.3,3.5,1.6C809.1,702.5,808,702,806.8,701.4z"/>
		<path class="st10" d="M135.5,325.1c-0.6-0.5-1.1-1.1-1.7-1.6C134.4,324.1,135,324.7,135.5,325.1z"/>
		<path class="st10" d="M132.2,328.5c0.8,0.5,1.6,0.8,2.2,1C133.6,329.1,132.9,328.8,132.2,328.5z"/>
		<path class="st10" d="M2072.7,15.4c1.3-0.9,6.8-3.9,13.8-7.1c2.8-2.5,5.9-5.3,9-8.3h-9.2c-3.4,3.1-6.6,5.9-9.5,8.4
			C2075.5,10.7,2074.2,13,2072.7,15.4z"/>
		<path class="st10" d="M2076.9,8.4c-12.7,10.9-20.5,16.4-20.6,16.5l2.6,5.9c0.1,0,10.9-7.5,27.7-22.5c-7,3.2-12.5,6.2-13.8,7.1
			C2074.2,13,2075.5,10.7,2076.9,8.4z"/>
		<path class="st10" d="M2270,232.9c-0.3,0.4-0.7,0.9-1,1.3c-0.3,3.4-0.3,6.5-0.1,9.3c0.4-0.3,0.7-0.6,1.1-0.9V232.9z"/>
		<path class="st10" d="M2251.5,169c-0.2,3.5-1.1,6.2-2.6,7.2c-6,23.2,9.7,26.5,20.4,14.9c0.2-0.3,0.5-0.5,0.7-0.8v-38.2
			C2261.9,156.8,2255.1,162.5,2251.5,169z"/>
		<path class="st10" d="M2263.6,115.4c2.7,5.3,4.3,11.2,4.9,16.3c0.5-0.2,1-0.3,1.6-0.5v-30.3c-4.4,0.1-8.4,0.7-11.9,1.7
			C2260,107.6,2261.8,111.9,2263.6,115.4z"/>
		<path class="st10" d="M2248.6,132.7c1.7,1.5,3.8,2.5,6.4,2.6c-1.8-2.9-3.7-6.5-5.8-10.9C2249,127.2,2248.8,130,2248.6,132.7z"/>
		<path class="st5" d="M2239.3,0h-2.4c0.1,1.4,0.2,2.7,0.2,4.1C2237.9,2.7,2238.6,1.4,2239.3,0z"/>
		<path class="st5" d="M2220.1,36.5c5.5-10.1,10.7-20,15.7-29.7c0.4-3.2,0.7-5.5,0.9-6.8h-3.9c-5,9.6-10.1,19.5-15.5,29.5
			c0.9-0.3,1.7-0.6,2.6-0.9c0,0-1.3,1-3.5,2.7c-4.1,7.5-8.2,15.1-12.5,22.7c1.4-0.3,2.7-0.7,4.1-1c0,0-1.9,1.3-5.4,3.4
			c-6.5,11.4-13.2,23-20.2,34.7c1.9-0.4,3.8-0.9,5.7-1.4c0,0-2.8,1.9-7.7,4.7c-5.7,9.4-11.6,18.9-17.6,28.4c1.4,0.1,2.8,0.1,4.2,0.1
			c0.6-2.6,1-4.1,1-4.1c-0.1,2.4-0.2,4.8-0.2,7.2c8-12.7,15.8-25.3,23.2-37.8c0.8-3.5,1.4-5.5,1.4-5.5c0,1.1-0.1,2.2-0.1,3.4
			c4.2-7.1,8.3-14.2,12.3-21.2c0.7-3.5,1.2-5.4,1.2-5.4s0.1,1.1,0.2,3c4.4-7.8,8.7-15.5,12.8-23.1c0.6-5.2,1.1-8.2,1.1-8.2
			C2219.9,32.8,2220,34.6,2220.1,36.5z"/>
		<path class="st5" d="M2161.3,124.9c-6.3,9.8-12.7,19.6-19.3,29.4c1.4,0.1,2.7,0.3,4.1,0.4c1-3.2,1.7-5,1.7-5s-0.1,2.6-0.2,7.1
			c6.1-9,12-18,17.8-27.1c0.6-2.6,1.1-4.8,1.5-6.5C2165.8,123.5,2163.9,124.2,2161.3,124.9z"/>
		<path class="st5" d="M2125.3,188.7c6.3-8.7,12.4-17.4,18.3-26.1c0.9-3.1,1.8-5.8,2.4-7.8c-0.7,0.2-2.5,0.6-5.1,1.1
			c-4.9,7.3-10,14.5-15.1,21.7c2-0.2,3.9-0.4,5.9-0.7c0,0-2.9,1.4-7.8,3.4c-8.7,12.2-17.8,24.3-27,36.1c1.6-0.2,3.2-0.4,4.8-0.6
			c0,0-0.7,0.3-2,0.9c-0.2,2.2-0.4,4.5-0.5,6.7c8.2-10.4,16.2-21,24-31.7c1.6-6.2,2.8-9.7,2.8-9.7
			C2125.6,184.3,2125.4,186.5,2125.3,188.7z"/>
		<path class="st5" d="M2095,218.7c-7.1,9.1-14.4,18-21.9,26.8c1.4,0,2.8,0,4.2-0.1c0,0-2.1,0.8-5.7,1.9
			c-9.2,10.8-18.7,21.5-28.4,31.8c2.2,0,4.4,0,6.5-0.1c0,0-3.4,1.3-9.3,3c-8.4,8.9-17,17.5-25.8,25.8c1.6,0,3.3,0,4.9-0.1
			c0,0-2.7,1-7.3,2.4c-7.7,7.3-15.6,14.3-23.5,21.2c3.2,0,5.1-0.1,5.1-0.1s-3.8,1.9-10.4,4.6c-7.5,6.3-15.2,12.4-22.9,18.2l0.2,0.4
			c10.1-5.4,17-9.2,17-9.2s-3.9,4.8-10.6,11.8c9.8-7.5,19.4-15.3,28.8-23.5c2.1-3.7,3.3-5.8,3.3-5.8s-0.3,1.3-0.8,3.6
			c7.7-6.8,15.3-13.7,22.7-20.9c2-4.6,3.3-7.2,3.3-7.2c-0.4,1.7-0.8,3.4-1.2,5.1c10.4-10.1,20.6-20.6,30.5-31.4
			c0.7-1.6,1.1-2.4,1.1-2.4c-0.1,0.5-0.2,1-0.4,1.5c7.4-8.1,14.7-16.4,21.8-24.8c1.2-3.3,2-5.1,2-5.1s-0.1,1.1-0.2,3
			c6.3-7.5,12.5-15.1,18.6-22.7c1.4-5.2,2.4-8.6,2.8-9.7C2098.4,217.3,2096.9,217.9,2095,218.7z"/>
		<path class="st5" d="M1960.7,354.4c-17.9,9.5-46,23.7-63.9,29.2c-28.5,8.7-48.2,29.3-27.1,28.5c36.9,3.1,78.3-35.1,97.4-55.1
			c-1.3,1-2.5,1.9-3.8,2.9L1960.7,354.4z"/>
		<path class="st5" d="M1960.7,354.4l2.6,5.5c1.3-1,2.5-1.9,3.8-2.9c6.7-7,10.6-11.8,10.6-11.8S1970.8,349.1,1960.7,354.4z"/>
		<path class="st5" d="M1900,322.7c-29.6-10.2-53.2,9.3-34.1,21.7c39.7,19.2,94.8,0.6,117.5-8.6c1.8-1.5,3.5-3,5.3-4.5
			C1972.9,331.5,1924.2,331.4,1900,322.7z"/>
		<path class="st5" d="M1988.7,331.3c-1.8,1.5-3.5,3-5.3,4.5c6.5-2.7,10.4-4.6,10.4-4.6S1991.9,331.3,1988.7,331.3z"/>
		<path class="st5" d="M1907.5,280.7c-20.5-13.9-49.7-0.1-2,25.8c38.4,20.8,88.3,9.1,106.7,3.6c0.8-0.8,1.6-1.5,2.4-2.3
			C1976.4,308,1927.6,294,1907.5,280.7z"/>
		<path class="st5" d="M2014.7,307.9c-0.8,0.8-1.6,1.5-2.4,2.3c4.6-1.4,7.3-2.4,7.3-2.4C2017.9,307.8,2016.3,307.8,2014.7,307.9z"/>
		<path class="st5" d="M1937.9,252c-20.5-13.9-49.7-0.1-2,25.8c36.9,20.1,84.7,9.8,104.5,4.1c0.9-1,1.8-1.9,2.7-2.9
			C2005,278.8,1957.3,264.8,1937.9,252z"/>
		<path class="st5" d="M2043.2,279.1c-0.9,1-1.8,1.9-2.7,2.9c5.8-1.7,9.3-3,9.3-3C2047.6,279.1,2045.4,279.2,2043.2,279.1z"/>
		<path class="st5" d="M1956.9,474.9c5.1,25.5,26.3,2.2,25.7-34.4c-0.6-32.1,12.5-93.8,15.9-109.3c-0.8,0.7-1.7,1.5-2.5,2.2
			C1985,353.2,1951.1,419.3,1956.9,474.9z"/>
		<path class="st5" d="M1995.9,333.5c0.8-0.7,1.7-1.5,2.5-2.2c0.5-2.3,0.8-3.6,0.8-3.6S1998,329.8,1995.9,333.5z"/>
		<path class="st5" d="M1997,437.8c8.5,62.8,26.7,32.2,20.9,4.3c-5.3-27.2-4.4-88.6,5.4-133.8c-0.7,0.7-1.4,1.4-2.2,2.1
			C2012.5,330.1,1990.1,386.9,1997,437.8z"/>
		<path class="st5" d="M2021.2,310.4c0.7-0.7,1.4-1.4,2.2-2.1c0.4-1.7,0.8-3.4,1.2-5.1C2024.5,303.2,2023.2,305.8,2021.2,310.4z"/>
		<path class="st5" d="M2027.5,409.1c8.5,62.8,26.7,32.2,20.9,4.3c-5.7-27.6-4.7-91.5,6.2-137.4c-0.3,0.3-0.5,0.6-0.8,0.9
			C2047.7,289.8,2019.9,353,2027.5,409.1z"/>
		<path class="st5" d="M2053.8,276.9c0.3-0.3,0.5-0.6,0.8-0.9c0.1-0.5,0.2-1,0.4-1.5C2055,274.5,2054.5,275.3,2053.8,276.9z"/>
		<path class="st5" d="M2057.9,399.8c8.8,24.3,26.6-3.3,20.5-39.4c-5.6-31.9-1.4-96.6-0.3-111.3c-0.6,0.7-1.2,1.4-1.8,2.1
			C2068.9,271.2,2043.7,345.1,2057.9,399.8z"/>
		<path class="st5" d="M2076.4,251.3c0.6-0.7,1.2-1.4,1.8-2.1c0.1-1.9,0.2-3,0.2-3S2077.6,248,2076.4,251.3z"/>
		<path class="st5" d="M2091.9,354.6c17.6,59.8,30.9,25.6,21.4-0.4c-9.1-25.1-17.2-84-14.2-130.7c-0.8,1-1.6,2-2.3,3
			C2090.7,249.4,2078.1,307.5,2091.9,354.6z"/>
		<path class="st5" d="M2099.5,216.8c-0.3,1.1-1.4,4.5-2.8,9.7c0.8-1,1.6-2,2.3-3C2099.2,221.2,2099.4,219,2099.5,216.8
			C2099.6,216.8,2099.5,216.8,2099.5,216.8z"/>
		<path class="st5" d="M2128.4,268.7c-3.3-25.4-4.9-54.6-3.1-80c-0.7,1-1.5,2-2.2,3.1c-6,22.7-18.8,81.1-4.9,128.5
			c17.6,59.8,30.9,25.6,21.4-0.4c-1.5-3.8-2.9-8.5-4.3-13.9c-0.3-0.6-0.6-1.3-0.9-2.1C2130.8,292.9,2129,280.9,2128.4,268.7z"/>
		<path class="st5" d="M2125.8,182.1c0,0-1.1,3.5-2.8,9.7c0.7-1,1.5-2,2.2-3.1C2125.4,186.5,2125.6,184.3,2125.8,182.1z"/>
		<path class="st5" d="M2128.4,268.7c1.8,14.1,4.2,26.9,6.9,37.3c10,19.8,25.2-8.2,17.7-42.9c-6.1-29-5.7-86.3-5.3-106.4
			c-1.3,2-2.6,3.9-4,5.9C2137.3,183.9,2126.3,227.8,2128.4,268.7z"/>
		<path class="st5" d="M2146.1,154.6c0.1,0,0.2,0,0.3,0c0,0-0.1,0-0.4,0.1c-0.7,2.1-1.5,4.7-2.4,7.8c1.3-2,2.7-3.9,4-5.9
			c0.1-4.5,0.2-7.1,0.2-7.1S2147.1,151.4,2146.1,154.6z"/>
		<path class="st5" d="M2134.3,303.9c0.3,0.7,0.6,1.4,0.9,2.1c-2.6-10.3-5-23.2-6.9-37.3C2129,280.9,2130.8,292.9,2134.3,303.9z"/>
		<path class="st5" d="M2171.2,269.4c5.6,13.2,10.4,18.7,13.9,19.4c1.4-0.8,2.9-1.6,4.4-2.4c2.4-3.9,3.1-11.9,1.5-20.4
			c-3.3,0.6-6.6,1.5-10,2.8C2177.2,270.1,2173.9,270.2,2171.2,269.4z"/>
		<path class="st5" d="M2167.7,125.9c-0.8,1.2-1.6,2.5-2.4,3.7c-4.8,22.5-13.6,75.7-1.2,119.8c0.8-2.2,1.9-4.5,3.5-6.6
			c2.5-3.5,7.7-5.5,14.2-6.2C2173.8,207.9,2167.1,163,2167.7,125.9z"/>
		<path class="st5" d="M2167.9,118.8c0,0-0.4,1.4-1,4.1c0.3,0,0.6,0,0.8,0c0,0-0.3,0.1-0.9,0.3c-0.4,1.7-0.9,3.9-1.5,6.5
			c0.8-1.2,1.6-2.5,2.4-3.7C2167.8,123.5,2167.8,121.1,2167.9,118.8z"/>
		<path class="st5" d="M2192.1,86c-0.4,0.7-0.8,1.4-1.2,2.1c-4.4,18.9-17.2,83.3-0.2,132.6c2.2,6.5,4.4,11.9,6.4,16.2
			c6.2,0.7,12.8,2.2,19,4.2c0.2-3.3,0-7-0.7-10.8c-10.9-5.5-20.5-8.2-20.9-18.2c-0.5-9.6,3.9-15.3,10-17.3
			C2197.1,164.8,2191.1,121.4,2192.1,86z"/>
		<path class="st5" d="M2190.9,88.1c0.4-0.7,0.8-1.4,1.2-2.1c0-1.1,0.1-2.3,0.1-3.4C2192.2,82.6,2191.7,84.6,2190.9,88.1z"/>
		<path class="st5" d="M2218.5,157.1c-7.7-26.6-11.8-81.5-12.7-94.8c-0.5,0.8-0.9,1.6-1.4,2.5c-4,19.1-15.5,84.3,1.8,128.7
			c0.1,0.3,0.3,0.5,0.4,0.7c3.7-0.7,7.8-0.1,11.9,1.7C2222.2,188.7,2223.3,173.6,2218.5,157.1z"/>
		<path class="st5" d="M2204.4,64.8c0.5-0.8,0.9-1.6,1.4-2.5c-0.1-1.9-0.2-3-0.2-3S2205.1,61.3,2204.4,64.8z"/>
		<path class="st5" d="M2248.9,176.2c0.3-1.1,0.6-2.2,1-3.4c0.4-1.3,1-2.6,1.7-3.8c0.3-5.2-1-12.4-3.8-19
			c-0.4,9.2-0.6,18.1-0.6,26.5C2247.7,176.6,2248.4,176.5,2248.9,176.2z"/>
		<path class="st5" d="M2220.1,36.5c-0.5,0.9-1,1.8-1.4,2.7c-2.3,19.9-6.2,71.8,10.6,110.9c4.7,11,8.7,18,12,22.1
			c0.1-10.7,0.5-22,1.1-33.9C2232.8,114.6,2222.5,71.8,2220.1,36.5z"/>
		<path class="st5" d="M2248.9,176.2c1.5-1,2.4-3.6,2.6-7.2c-0.7,1.2-1.2,2.5-1.7,3.8C2249.5,174,2249.2,175.1,2248.9,176.2z"/>
		<path class="st5" d="M2219.8,31c0,0-0.5,3-1.1,8.2c0.5-0.9,1-1.8,1.4-2.7C2220,34.6,2219.9,32.8,2219.8,31z"/>
		<path class="st5" d="M2255,135.3c10,16.2,14.8,8.6,13.5-3.6c-1.9,0.6-3.8,1.3-5.7,2.1C2259.9,135,2257.3,135.5,2255,135.3z"/>
		<path class="st5" d="M2258.1,102.6c-1.7-4.7-3.5-9.9-5.2-15.6c-0.8,6.5-1.5,12.9-2.2,19.1C2252.7,104.6,2255.2,103.4,2258.1,102.6
			z"/>
		<path class="st5" d="M2235.8,6.8c-2.2,18.7-6,67.3,8.4,106c1.1-12.6,2.7-26.1,4.7-40.1c-5.6-21.5-10.2-46.5-11.7-68.5
			C2236.7,5,2236.3,5.9,2235.8,6.8z"/>
		<path class="st5" d="M2249.2,124.4c2.1,4.5,4,8.1,5.8,10.9c2.3,0.2,4.9-0.3,7.8-1.5c1.9-0.8,3.8-1.5,5.7-2.1
			c-0.6-5.1-2.2-11-4.9-16.3c-1.8-3.5-3.6-7.8-5.4-12.8c-2.9,0.8-5.5,2-7.4,3.5C2250.1,112.4,2249.6,118.5,2249.2,124.4z"/>
		<path class="st5" d="M2237,0h-0.2c-0.2,1.2-0.5,3.6-0.9,6.8c0.5-0.9,0.9-1.8,1.4-2.7C2237.1,2.7,2237,1.4,2237,0z"/>
		<path class="st5" d="M2236.9-1.1c0,0-0.1,0.4-0.2,1.1h0.2C2236.9-0.3,2236.9-0.7,2236.9-1.1z"/>
		<path class="st5" d="M2270,35.7V98c6.1,6.8,11.1,1.1,12.1-10.2c-4.4-2.5-7.5-5.7-8.1-11.1c-0.6-6.6,1.2-11.5,4.4-14.7
			c-0.5-1.4-1-2.9-1.6-4.3C2274.4,51.6,2272.1,44,2270,35.7z"/>
		<path class="st5" d="M2252.5,0c-0.4,12.7-0.2,27.4,1.4,42.2c2.4-13,5.3-26.5,8.6-40.3c-0.1-0.7-0.3-1.3-0.4-2L2252.5,0L2252.5,0z"
			/>
		<path class="st5" d="M2256.7,60.8c2.4,12.2,6,24,11.2,34.3c0.7,1.1,1.5,2.1,2.2,2.9V35.7c-1.6-6.4-3.2-13.1-4.6-19.9
			C2261.9,31.3,2259,46.4,2256.7,60.8z"/>
		<path class="st5" d="M2274,76.6c0.6,5.5,3.7,8.6,8.1,11.1c0.6-7-0.4-16.2-3.7-25.8C2275.2,65.1,2273.4,70.1,2274,76.6z"/>
		<path class="st5" d="M1965.2,218.4c-20.5-13.9-49.7-0.1-2,25.8c39.6,21.4,91.3,8.4,108.3,3.1c0.5-0.6,1-1.2,1.5-1.8
			C2034.8,245.8,1985.3,231.5,1965.2,218.4z"/>
		<path class="st5" d="M2073.1,245.6c-0.5,0.6-1,1.2-1.5,1.8c3.6-1.1,5.7-1.9,5.7-1.9C2075.9,245.5,2074.5,245.5,2073.1,245.6z"/>
		<path class="st5" d="M1988.2,200c-21.4-11.5-49.4,4.7,0,25.9c39.6,17.1,89.2,0,106.8-7.2c0.6-0.8,1.2-1.5,1.8-2.3
			C2058.4,220.5,2008.8,211.4,1988.2,200z"/>
		<path class="st5" d="M2099.6,216.4c0,0.1,0,0.2,0,0.3c1.3-0.6,2-0.9,2-0.9c-1.6,0.2-3.2,0.4-4.8,0.6c-0.6,0.8-1.2,1.5-1.8,2.3
			c1.9-0.8,3.4-1.4,4.5-1.9C2099.6,216.6,2099.6,216.4,2099.6,216.4z"/>
		<path class="st5" d="M2099.5,216.8C2099.5,216.8,2099.6,216.8,2099.5,216.8c0.1-0.2,0.1-0.3,0.1-0.4
			C2099.6,216.4,2099.6,216.6,2099.5,216.8z"/>
		<path class="st5" d="M2025,164.1c-1.8-0.2-3.3-0.9-4.7-2c-0.7-0.3-1.4-0.7-2-1c-21.4-11.5-49.4,4.7,0,25.9
			c38.8,16.8,87,0.8,105.6-6.7c0.6-0.9,1.3-1.8,1.9-2.7C2091.2,181,2048,173.4,2025,164.1z"/>
		<path class="st5" d="M2020.3,162c1.3,1.1,2.9,1.8,4.7,2C2023.3,163.4,2021.7,162.7,2020.3,162z"/>
		<path class="st5" d="M2125.8,177.6c-0.6,0.9-1.3,1.8-1.9,2.7c5-2,7.8-3.4,7.8-3.4C2129.8,177.1,2127.8,177.4,2125.8,177.6z"/>
		<path class="st5" d="M2046.2,148.1c36,16.9,79.6,10.7,94.7,7.8c0.4-0.5,0.7-1,1.1-1.6c-18.9-1.9-39.8-7.6-58.4-14.7
			c-3.8,1.6-7.5-0.2-10.2-4.1c-6.6-2.8-12.8-5.8-18.3-8.7c-2,6.9-4.4,13.3-7.5,18.8C2047.2,146.5,2046.7,147.3,2046.2,148.1z"/>
		<path class="st5" d="M2020.2,108c-2.9,4.1-5.8,8.2-8.8,12.1c1.8,3.3,5.2,7.3,10.5,11.9c3-6,6.7-12.7,10.6-19.9
			C2028.3,109.6,2023.9,108.3,2020.2,108z"/>
		<path class="st5" d="M2083.6,139.6c-3.5-1.3-6.9-2.7-10.2-4.1C2076,139.4,2079.7,141.2,2083.6,139.6z"/>
		<path class="st5" d="M2011.4,120.1c3-3.9,6-8,8.8-12.1C2012,107.3,2006.6,111.5,2011.4,120.1z"/>
		<path class="st5" d="M2046.2,148.1c0.5-0.8,1-1.6,1.4-2.5c3.1-5.5,5.5-11.9,7.5-18.8c-7.2-3.9-13.3-7.7-17.7-11.3
			c-1.6-1.3-3.3-2.5-5-3.4c-3.9,7.2-7.7,14-10.6,19.9c3.2,2.8,7,5.7,11.7,8.9C2037.6,143.7,2041.8,146,2046.2,148.1z"/>
		<path class="st5" d="M2146,154.8v-0.1c-1.4-0.1-2.7-0.2-4.1-0.4c-0.4,0.5-0.7,1-1.1,1.6C2143.5,155.3,2145.3,154.9,2146,154.8z"/>
		<path class="st5" d="M2146.4,154.7c-0.1,0-0.2,0-0.3,0v0.1C2146.3,154.7,2146.4,154.7,2146.4,154.7z"/>
		<path class="st5" d="M2069.5,116.8c0.2-8.3,1-17.8,0.7-27.7c-2.9-1.3-5.9-1.8-8.5-1.7c-0.5,6.5-1.3,13.4-2.4,20.4
			C2061.8,110.6,2065.2,113.6,2069.5,116.8z"/>
		<path class="st5" d="M2118.1,114.2c-7.7,0.2-15.3-0.7-22.6-3.3c0.4,5.5,0.1,10.5-1.5,14.5c-0.4,1-0.8,1.9-1.2,2.8
			c26.4,7.2,55.7,0.4,68.4-3.3c0.5-0.7,0.9-1.4,1.4-2.2C2148.3,122.2,2132.5,118.9,2118.1,114.2z"/>
		<path class="st5" d="M2059.3,107.8c1.1-7,1.9-13.9,2.4-20.4C2052.9,87.7,2047.7,95.2,2059.3,107.8z"/>
		<path class="st5" d="M2069.5,116.8c0.7,0.5,1.4,1,2.1,1.5c6.6,4.7,13.8,7.9,21.3,9.9c0.4-0.9,0.8-1.8,1.2-2.8
			c1.5-4,1.9-9,1.5-14.5c-0.8-0.3-1.7-0.6-2.5-0.9c-18.4-7.4-23.8-15.3-22.5-20.8c-0.1,0-0.2-0.1-0.3-0.1
			C2070.5,99,2069.7,108.5,2069.5,116.8z"/>
		<path class="st5" d="M2161.3,124.9c2.6-0.8,4.5-1.4,5.5-1.7c0-0.1,0.1-0.2,0.1-0.3c-1.4,0-2.8,0-4.2-0.1
			C2162.2,123.5,2161.8,124.2,2161.3,124.9z"/>
		<path class="st5" d="M2167.7,122.8c-0.3,0-0.6,0-0.8,0c0,0.1-0.1,0.2-0.1,0.3C2167.4,123,2167.7,122.8,2167.7,122.8z"/>
		<path class="st5" d="M2118.1,114.2c25-0.6,50-12.9,62.2-19.9c0.7-1.1,1.3-2.2,2-3.3c-17.1,3.7-36.7,4-53.8,2.1
			c-5.2,6.2-13.2,6.3-18.6-3.1c-6.7-1.5-12.4-3.4-16.7-5.5c-1.5-0.8-3-1.4-4.5-1.8c2.6,7.5,4.8,15.1,6,22.2
			C2101.7,108.2,2109.6,111.5,2118.1,114.2z"/>
		<path class="st5" d="M2128.5,93.1c-6.7-0.7-13-1.8-18.6-3.1C2115.3,99.4,2123.4,99.3,2128.5,93.1z"/>
		<path class="st5" d="M2094.7,104.8c-1.2-7-3.4-14.7-6-22.2c-8.5-2.4-17,0.9-18.3,6.6c2,0.9,4,2.1,5.9,3.7
			C2080.7,96.9,2087,101,2094.7,104.8z"/>
		<path class="st5" d="M2182.3,91c-0.7,1.1-1.3,2.2-2,3.3c4.9-2.8,7.7-4.7,7.7-4.7C2186.1,90.1,2184.2,90.6,2182.3,91z"/>
		<path class="st5" d="M2118.1,114.2c-8.5-2.8-16.5-6-23.4-9.4c0.4,2.1,0.6,4.2,0.8,6.2C2102.8,113.5,2110.4,114.4,2118.1,114.2z"/>
		<path class="st5" d="M2093,110c0.8,0.3,1.7,0.6,2.5,0.9c-0.2-2-0.4-4.1-0.8-6.2c-7.7-3.8-14.1-7.9-18.4-11.8
			c-1.9-1.6-3.8-2.8-5.9-3.7C2069.2,94.8,2074.6,102.6,2093,110z"/>
		<path class="st5" d="M2202.5,56.3c0.4-0.8,0.9-1.6,1.3-2.3c-30.8,7.3-69.6,3.2-87.9-4.9c9.3,9.7,16.4,20.3,17.4,28.4
			C2161.5,78.6,2190.7,63.3,2202.5,56.3z"/>
		<path class="st5" d="M2113.1,47.8c-17.8-9.6-41.4,9.1-0.3,25.6c6.6,2.6,13.5,3.9,20.4,4.2c-1-8.1-8.1-18.7-17.4-28.4
			C2114.9,48.7,2114,48.3,2113.1,47.8z"/>
		<path class="st5" d="M2203.8,54c-0.4,0.8-0.9,1.6-1.3,2.3c3.4-2,5.4-3.4,5.4-3.4C2206.5,53.3,2205.2,53.7,2203.8,54z"/>
		<path class="st5" d="M2137.1,52.3c29.3,12.4,67.6-12.6,79.2-21c0.3-0.6,0.6-1.2,1-1.8c-27,9-61.7,6.4-77.7-1.8
			c-0.7,3.2-2.4,6.2-5.2,8.8c-4.7,4.5-10,2.7-16.4-0.8C2118.8,40.7,2124.1,46.8,2137.1,52.3z"/>
		<path class="st5" d="M2134.4,36.5c2.8-2.6,4.4-5.7,5.2-8.8c-0.6-0.3-1.1-0.6-1.7-0.9c-9.5-5.4-21.2,0.3-19.9,8.9
			C2124.4,39.1,2129.7,40.9,2134.4,36.5z"/>
		<path class="st5" d="M2217.3,29.5c-0.3,0.6-0.6,1.2-1,1.8c2.3-1.6,3.5-2.7,3.5-2.7C2219,28.9,2218.2,29.2,2217.3,29.5z"/>
		<path class="st5" d="M2153,10.3c24,9.7,52.7-0.8,71.1-10.3h-88.4C2139,3.4,2144.5,6.9,2153,10.3z"/>
		<path class="st5" d="M2243-11.4c-1.7,0.5-3.4,1-5.1,1.5c-0.5,1-1,1.9-1.4,2.9C2240.6-9.6,2243-11.4,2243-11.4z"/>
		<path class="st13" d="M2266,307.6c-0.8-1.4-1.6-2.8-2.4-4.2C2264.2,304.7,2265,306.1,2266,307.6z"/>
		<path class="st13" d="M2262.4,272.3c1.5-3.2,4.1-5.9,7.6-8.1v-13.8c-0.5-2-0.9-4.3-1.1-6.9c-3.8,3.1-7.5,6.4-11.3,10.2
			c1.3-4.8,5.7-12,11.4-19.5c0.2-2.3,0.5-4.7,1-7.3v-0.1v-34.1c-7.8,9.6-14.9,26-20,53c1.7,18.1,3.5,28.5,3.6,28.6l-5.7,1.5
			c-0.1-0.4-2.8-15.6-4.8-41.6c-4.5-13.3-11.3-29.4-19.1-35.1c-1.8-1.3-3.6-2.3-5.4-3.1c-2.9,5.9-7.5,6.5-11.9-1.7
			c-0.7,0.1-1.4,0.3-2.1,0.5c2.4,9.8,5.1,18.1,7.6,24.2c1.6,3.7,2.6,7.6,3.3,11.3c8.8,4.5,18.5,10.8,25,24.4
			c-5.4-5.6-14.4-10.3-24.3-13.5c-0.8,13.2-8.1,19.1-19-4.2c-5.5-0.6-10.8-0.8-15.4-0.2c2,7.3,4.1,13.5,6.1,18.4
			c1.5,3.5,2.5,7.3,3.2,10.9c13.4-2.5,27.3,0.1,46.7,5.3c0,0-27.2,4.5-48.2,15.2c-1.1,1.8-2.6,2.7-4.4,2.4
			c-8.7,5-15.7,11.2-18.4,18.6c-9.5,25.5,7.4,31,18.8,19.2c11.5-12.1,24.8-34.4,46.9-38.6c-3.5,1.9-40.8,39.2-48.2,74.3
			c-7.4,35.2,11.8,44.5,20.7,27.8s11.8-70.8,31.8-91.4c-2.6,9.1-20.7,95.6-10.7,129.8c9.8,34.2,24.3,8.9,22.6-8.9
			c-1.5-17.8-11.4-68-2.9-113.4c0,0,9.1,74.4,24.3,116.3v-66.1c-4.7-12.8-9.3-27.7-13.4-45.1c-0.6-2.1-1.1-3.9-1.3-5.4
			c0.4,1.8,0.8,3.6,1.3,5.4c2.2,7.3,7,17.9,13.4,30v-27.2c-1.3-2.2-2.7-4.4-4-6.7c-1-1.5-1.8-2.9-2.4-4.2c0.8,1.4,1.6,2.8,2.4,4.2
			c1.1,1.7,2.5,3.5,4,5.3V290c-2.6-2.7-4-4.3-4-4.3s1.4,0.6,4,1.7v-13.3C2265.1,273,2262.4,272.3,2262.4,272.3z"/>
		<path class="st13" d="M2256.6,311.5c-0.4-1.8-0.8-3.6-1.3-5.4C2255.5,307.6,2255.9,309.4,2256.6,311.5z"/>
		<path class="st13" d="M2164.1,249.5c-3,8.7-0.1,17.7,7.1,19.9c-1.5-3.6-3.1-7.7-4.8-12.5C2165.6,254.4,2164.8,252,2164.1,249.5z"
			/>
		<path class="st13" d="M2270,226.8v0.1c-0.5,2.6-0.8,5-1,7.3c0.3-0.4,0.7-0.8,1-1.3V226.8z"/>
		<path class="st13" d="M2268.9,243.5c0.2,2.6,0.6,4.8,1.1,6.9v-7.8C2269.6,242.9,2269.3,243.2,2268.9,243.5z"/>
		<path class="st13" d="M2167.6,242.9c-1.6,2.1-2.7,4.3-3.5,6.6c0.7,2.5,1.5,5,2.3,7.4c1.7,4.8,3.2,8.9,4.8,12.5
			c2.7,0.8,6,0.8,9.9-0.6c3.3-1.3,6.6-2.2,10-2.8c-0.7-3.6-1.7-7.3-3.2-10.9c-2-4.8-4.1-11.1-6.1-18.4
			C2175.3,237.4,2170.1,239.4,2167.6,242.9z"/>
		<path class="st13" d="M2189.5,286.4c-1.5,0.8-2.9,1.5-4.4,2.4C2186.9,289.1,2188.4,288.2,2189.5,286.4z"/>
		<path class="st13" d="M2216.1,241.1c-6.2-2-12.7-3.4-19-4.2C2208,260.2,2215.3,254.3,2216.1,241.1z"/>
		<path class="st13" d="M2194.5,212c0.5,10,10.1,12.7,20.9,18.2c-0.6-3.8-1.7-7.6-3.3-11.3c-2.6-6.1-5.2-14.4-7.6-24.2
			C2198.4,196.7,2194,202.5,2194.5,212z"/>
		<path class="st13" d="M2206.6,194.2c4.4,8.1,9,7.5,11.9,1.7C2214.5,194.1,2210.3,193.5,2206.6,194.2z"/>
		<path class="st13" d="M2245.2,115.4c-0.3-0.9-0.7-1.7-1-2.6c-0.8,8.3-1.3,16.3-1.8,23.9c0,0.5-0.1,1.1-0.1,1.6
			c1.4,3.5,2.8,6.6,4.1,9.1c0.4,0.9,0.8,1.7,1.2,2.6c0.2-4.2,0.4-8.4,0.6-12.8c0.1-1.5,0.2-3,0.3-4.5
			C2244.5,129.1,2243.2,122.3,2245.2,115.4z"/>
		<path class="st13" d="M2248.9,72.6c1.3,5,2.6,9.8,4,14.4c1.1-8.5,2.3-17.2,3.8-26.2c-1.2-6.1-2.1-12.4-2.8-18.6
			C2252,52.6,2250.3,62.8,2248.9,72.6z"/>
		<path class="st13" d="M2247.1,176.6c-1.6-0.2-3.5-1.5-5.8-4.4c-0.3,24.3,0.7,45.3,1.9,61.9c3.1,9.3,5.1,17.2,5.5,19.2
			c0.4-2.6,0.9-5.1,1.3-7.6C2248.4,228.8,2246.9,205.1,2247.1,176.6z"/>
		<path class="st13" d="M2262.5,2c0.9,4.5,1.8,9.2,2.8,13.9c1.2-5.2,2.4-10.5,3.8-15.8h-6.1C2262.9,0.7,2262.7,1.3,2262.5,2z"/>
		<path class="st13" d="M2246.3,118.1c-0.4-0.9-0.7-1.8-1.1-2.7c-2,6.9-0.7,13.7,3.4,17.3c0.2-2.7,0.4-5.5,0.6-8.3
			C2248.3,122.5,2247.3,120.3,2246.3,118.1z"/>
		<path class="st13" d="M2242.3,138.3c-0.7,11.9-1,23.2-1.1,33.9c2.3,2.9,4.3,4.2,5.8,4.4c0-8.4,0.2-17.3,0.6-26.5
			c-0.4-0.9-0.8-1.8-1.2-2.6C2245.1,144.8,2243.7,141.8,2242.3,138.3z"/>
		<path class="st13" d="M2244.2,112.8c0.3,0.9,0.7,1.8,1,2.6c0.7-2.3,1.7-4.6,3.2-6.8c0.6-0.9,1.4-1.8,2.3-2.5
			c0.6-6.2,1.3-12.6,2.2-19.1c-1.4-4.5-2.7-9.4-4-14.4C2246.9,86.7,2245.4,100.1,2244.2,112.8z"/>
		<path class="st13" d="M2249.2,124.4c0.4-5.9,1-12,1.6-18.3c-0.9,0.8-1.7,1.6-2.3,2.5c-1.5,2.2-2.5,4.5-3.2,6.8
			c0.4,0.9,0.7,1.8,1.1,2.7C2247.3,120.3,2248.3,122.5,2249.2,124.4z"/>
		<path class="st13" d="M2262.5,2c-3.4,13.8-6.2,27.2-8.6,40.3c0.7,6.2,1.6,12.5,2.8,18.6c2.3-14.4,5.2-29.5,8.7-45
			C2264.4,11.2,2263.4,6.5,2262.5,2z"/>
		<path class="st13" d="M2243.1,234.1c1.9,26,4.7,41.3,4.8,41.6l5.7-1.5c-0.1-0.2-1.9-10.5-3.6-28.6c-0.5,2.4-0.9,5-1.3,7.6
			C2248.2,251.3,2246.2,243.4,2243.1,234.1z"/>
	</g>
</g>
<path class="st14" d="M1126.2,1671.8c-4.4-0.5-9.3-12-14-11.9c-2,0-3.1-8.7-5-8.4c-0.4,0.1-1,0.9-1.5,0.9c-2.5,0-4.8-2.2-7.1-2.9
	c-5.4-1.6-10.2-4.7-15.6-7c-5.5-2.3-9.6-4.8-15.3-6.2c-4.6-1.2-8.8-3.6-13.1-5.4c-3.4-1.4-9.7-2.2-12.7-4.5
	c-1.7-1.3-1.6-2.1-3.6-2.7c-2.3-0.6-4-0.1-6.3-1.2c-6.7-3.1-11.7-8.2-16.6-13.6c-2.4,2.6-7.3,1-10.6,1.7c-2.8,0.6-5.5,2-8.2,3.1
	c-2.6,1.1-3.9,1.5-6.2,1.4c-3.3-0.2-6.9-1.8-10.2-2.5c-11.6-2.3-27-5-37,3.7c-1.8,1.6-3.3,4.3-5.6,5.3c-2.9,1.2-3.3-0.3-5.8-2
	c-2.1-1.4-3.7-1.5-6.1-1.8c-4.2-0.6-7.2-2.2-11.2-3.7c-9.5-3.6-21.1,3.4-30.6,4.8c-10,1.5-20.7,0.5-30.4,3.3c-1.8,0.5-4,0.7-5.5,1.9
	c-0.4,0.3-0.8,1.4-1.2,1.6c-2.1,1-2.8,0.4-5-1.1c-4.7-3.1-8.6-7.4-13.4-10.4c-3.1-1.9-6.5-2.1-9.5-4.1c-3.7-2.5-6.7-7.2-9.8-10.3
	c-1.8-1.9-3.6-4.2-5.5-6c-4.2-3.9-10.1-3.6-15.6-2.8c-3.8,0.5-7,3-10.8,3.1c-3.3,0.1-5.9-1.3-8.6-3.1c-4.8-3.2-5.3-5.5-10.6-3.4
	c-4,1.5-8.4,5.5-11.3,1.2c-1.5-2.4-3-5-4.8-7.5c-3.4-4.8-4.8-3.3-9.9-2.1c-4.5,1.1-7,3.9-11.4,4.3c-4.8,0.4-9.2,1.5-13.9,2.3
	c-5.4,0.9-10.8,1.1-16.3,1.9c-7.8,1.1-15-0.7-22.6-1.2c-2-0.1-3.5,0.3-5.3-0.6c-1.8-0.9-3-3.1-4.9-3.8c-4.8-1.6-10.9,2-15.3,3.7
	c-5.7,2.2-12,2.5-18,4c-3.1,0.8-6.2,1.7-9.1,3.1c0.4-0.2-4,2.8-5,2.8c-1.8,0-2.7-0.7-3.8-2c-1.1-1.3-1.3-3.1-2.6-4.3
	c-1.3-1.3-2-0.9-3.6-1.4c-6.7-2.2-12.5,8.7-19.6,8.6c-15.9-0.2-28.5,6.3-43.2,1.7c-10.6-3.3-25-5.2-35.7-1.4
	c-4,1.5-11.3-0.4-15.7-0.3c-5.9,0.1-6.1-19.9-11.3-18.1c-2.5,0.9-4.8,1.5-7.4,2c-4,0.7-7.1,2.8-10.8,4.4c-7.7,3.4-16.6,3.8-24.6,6.3
	c-3.2,1-6.4,2.4-9.9,2.7c-2.6,0.2-4.6-0.4-7.2,0.8c-4.7,2.1-6.3,4.2-11.4,2.9c-7.4-2-13.6-2.9-20.4-6.8c-2.8-1.6-5-3.6-8.4-2.6
	c-1,0.3-2.5,1.9-3.4,2.3c-5.8,2.2-12,4.3-18,6.1c-10,2.9-20.6,6.4-30.9,6.3c-8.8-0.1-18.9-1.5-27.5,0.7c-3,0.8-6.2,1.8-9,3.4
	c-1.6,0.9-3.5,3.3-5.4,3.3c-1.9-3.5-4-7.4-6.8-10.3c-1.4-1.5-3.3-1.8-4.8-3c-1.8-1.4-1.9-2.7-3.3-4.3c-5.5-6.6-12.6-9.7-20.5-6
	c-6.2,3-12.3,6.1-18.6,9c-5,2.3-7.9-1.4-12.9-1.9c-6.1-0.6-13.2-0.5-19,1.2c-1.5,0.4-4.4,2.2-5.8,2c-1.2-0.1-3.2-2.1-4.2-2.7
	c-2.3-1.4-4.7-3.8-7.2-4.6c-2.5-0.8-5.1-0.3-7.7-0.3c-7.1,0-12.5,2.7-19.3,4.1c-7,1.5-14.6,1.7-21,4.9c-2.4,1.2-8.6,4.8-11.5,4.3
	c-1.5-0.3-6.3-4.4-7.3-5.8c-1.9-2.5-1.6-4.1-5-4.6c-4.6-0.7-8.2,1.4-12.3,2.7c-4,1.2-9.1,5.4-13,4.6c-5.5-1.2-11.3-1.9-17.1-0.9
	c-3.5,0.6-64.2-53.3-64.2-53.3v-186.4c3.9-3,8.3-5.2,13.2-6.8c0.4-0.1,0.8-0.2,1.1-0.3h1113.1V1671.8z"/>
</svg>
