<svg width="143" height="136" viewBox="0 0 143 136" fill="none" xmlns="http://www.w3.org/2000/svg">
<path d="M0 120V119.29H2.47V120.29H2.29L0 120ZM2.47 130V131H0V130.29L2.29 130H2.47ZM1.64 124.7C1.64 122.9 1.64 121.09 1.59 119.29H3.34C3.29 121.05 3.29 122.87 3.29 124.7V125.36C3.29 127.36 3.29 129.17 3.34 130.97H1.59C1.64 129.21 1.64 127.39 1.64 125.36V124.7ZM2.47 130.16H4.71C7.41 130.16 8.89 128.32 8.89 125.16C8.89 122 7.41 120.16 4.89 120.16H2.47V119.35H5.15C8.49 119.35 10.8 121.42 10.8 125.21C10.8 129 8.22 131.03 4.8 131.03H2.47V130.16Z" fill="white"/>
<path d="M19.6704 125.76C19.6779 126.098 19.6375 126.434 19.5504 126.76H13.0904V126H17.2304C18.0704 126 18.2304 125.6 18.2304 125.09C18.2278 124.59 18.0278 124.111 17.674 123.757C17.3201 123.403 16.8409 123.203 16.3404 123.2C15.2404 123.2 13.9904 124.14 13.9904 126.63C13.9904 128.84 15.1004 130.02 16.8204 130.02C17.2896 130.02 17.752 129.909 18.1705 129.697C18.5891 129.485 18.9521 129.178 19.2304 128.8L19.6404 129.13C19.3373 129.754 18.8589 130.275 18.2638 130.63C17.6687 130.985 16.9829 131.159 16.2904 131.13C13.9404 131.13 12.4004 129.51 12.4004 126.84C12.3583 126.283 12.4296 125.722 12.6099 125.193C12.7902 124.664 13.0759 124.177 13.4497 123.761C13.8235 123.345 14.2777 123.009 14.7848 122.774C15.292 122.538 15.8416 122.408 16.4004 122.39C16.8441 122.369 17.2872 122.443 17.7003 122.606C18.1133 122.769 18.487 123.018 18.7963 123.337C19.1056 123.656 19.3435 124.037 19.4942 124.455C19.6449 124.872 19.705 125.317 19.6704 125.76V125.76Z" fill="white"/>
<path d="M22.4701 126.44C22.4701 125.44 22.4701 124.93 22.4701 124.24L21.0901 124.08V123.46L23.7201 122.46L23.9801 122.63L23.8801 125V129.22C23.8801 132.07 23.7601 133.35 22.8801 134.33C22.6143 134.654 22.2777 134.913 21.8963 135.086C21.5149 135.259 21.0989 135.343 20.6801 135.33C19.6201 135.33 19.1301 134.79 19.1201 134.33C19.1825 134.116 19.3148 133.929 19.496 133.798C19.6773 133.668 19.897 133.602 20.1201 133.61C20.6029 133.635 21.0623 133.826 21.4201 134.15L22.2001 134.73L19.9201 135.01V134.32C20.186 134.585 20.5448 134.736 20.9201 134.74C21.1712 134.783 21.4289 134.728 21.6407 134.586C21.8526 134.445 22.0025 134.228 22.0601 133.98C22.4142 132.413 22.5389 130.803 22.4301 129.2L22.4701 126.44ZM22.0201 119.36C22.0201 119.05 22.1434 118.753 22.3628 118.533C22.5822 118.314 22.8798 118.19 23.1901 118.19C23.5004 118.19 23.798 118.314 24.0174 118.533C24.2369 118.753 24.3601 119.05 24.3601 119.36C24.3601 119.671 24.2369 119.968 24.0174 120.188C23.798 120.407 23.5004 120.53 23.1901 120.53C22.8798 120.53 22.5822 120.407 22.3628 120.188C22.1434 119.968 22.0201 119.671 22.0201 119.36Z" fill="white"/>
<path d="M27.2303 130.92C27.2303 130.14 27.2903 128.34 27.2903 127.26V126.44C27.2903 125.44 27.2903 124.93 27.2303 124.24L25.8203 124.08V123.46L28.5203 122.46L28.7803 122.63L28.7703 125V127.31C28.7703 128.39 28.7703 130.19 28.8203 130.97L27.2303 130.92ZM29.9803 130.3V130.92H25.9703V130.3L27.8703 129.95H28.2803L29.9803 130.3ZM26.8203 119.36C26.8203 119.05 26.9436 118.753 27.163 118.533C27.3824 118.314 27.68 118.19 27.9903 118.19C28.3006 118.19 28.5982 118.314 28.8176 118.533C29.037 118.753 29.1603 119.05 29.1603 119.36C29.1603 119.671 29.037 119.968 28.8176 120.188C28.5982 120.407 28.3006 120.53 27.9903 120.53C27.68 120.53 27.3824 120.407 27.163 120.188C26.9436 119.968 26.8203 119.671 26.8203 119.36Z" fill="white"/>
<path d="M34.6205 130.251C35.0568 130.221 35.4713 130.049 35.8005 129.761L36.2005 130.231C35.9538 130.535 35.6386 130.778 35.2806 130.937C34.9227 131.097 34.532 131.17 34.1405 131.151C33.8693 131.187 33.5934 131.16 33.3342 131.072C33.0751 130.985 32.8396 130.839 32.6461 130.645C32.4527 130.452 32.3064 130.216 32.2187 129.957C32.131 129.698 32.1042 129.422 32.1405 129.151C32.1405 128.721 32.1405 128.351 32.1405 127.671V123.561H30.7305V122.801L32.8905 122.521L32.1705 123.101L32.7305 120.261H33.7305L33.6005 123.321V129.001C33.6505 129.861 34.0305 130.251 34.6205 130.251ZM36.0305 122.641V123.561H32.9105V122.641H36.0305Z" fill="white"/>
<path d="M39.9204 126.331C40.8052 126.024 41.7109 125.78 42.6304 125.601V126.231C41.8367 126.403 41.0577 126.637 40.3004 126.931C38.7704 127.531 38.5804 128.191 38.5804 128.711C38.5681 128.892 38.5965 129.074 38.6635 129.243C38.7305 129.412 38.8345 129.564 38.9677 129.687C39.1009 129.811 39.2601 129.903 39.4336 129.958C39.607 130.012 39.7904 130.027 39.9704 130.001C40.5604 130.001 40.9104 129.781 41.9704 129.001L42.3404 128.731L42.5804 129.091L42.0604 129.611C41.0604 130.611 40.4304 131.141 39.3604 131.141C39.0635 131.169 38.764 131.134 38.4813 131.039C38.1987 130.944 37.9391 130.791 37.7195 130.589C37.4998 130.387 37.325 130.142 37.2063 129.868C37.0876 129.595 37.0276 129.299 37.0304 129.001C37.0304 128.001 37.5604 127.181 39.9204 126.331ZM41.9204 129.331V125.331C41.9204 123.631 41.4404 123.211 40.2904 123.211C39.7517 123.21 39.2182 123.315 38.7204 123.521L39.4404 122.971L39.0104 124.461C38.8604 125.001 38.5804 125.291 38.1004 125.291C37.9997 125.302 37.8977 125.292 37.8011 125.262C37.7045 125.231 37.6152 125.181 37.539 125.114C37.4628 125.047 37.4014 124.966 37.3586 124.874C37.3158 124.782 37.2925 124.682 37.2904 124.581C37.6104 123.251 38.9104 122.421 40.6904 122.421C42.4704 122.421 43.3904 123.251 43.3904 125.421V129.141C43.3904 129.901 43.6304 130.141 44.0204 130.141C44.1554 130.135 44.2872 130.097 44.4053 130.031C44.5233 129.965 44.6243 129.873 44.7004 129.761L45.0504 130.141C44.9098 130.421 44.6921 130.656 44.4228 130.817C44.1536 130.978 43.844 131.059 43.5304 131.051C43.3064 131.057 43.0837 131.016 42.8765 130.931C42.6694 130.846 42.4824 130.718 42.3278 130.556C42.1732 130.394 42.0544 130.201 41.979 129.99C41.9037 129.779 41.8735 129.554 41.8904 129.331H41.9204Z" fill="white"/>
<path d="M47.0696 127.26V126.42C47.0696 125.42 47.0696 124.93 47.0096 124.24L45.6396 124.08V123.46L48.0696 122.46L48.3296 122.63L48.5396 124.81V127.31C48.5396 128.39 48.5396 130.19 48.5396 130.97H47.0096C47.0496 130.14 47.0696 128.34 47.0696 127.26ZM45.7696 130.26L47.6796 129.91H48.1096L50.0196 130.26V130.88H45.7696V130.26ZM47.7696 124.86H48.7696L48.3496 125.01C48.8896 123.35 49.9696 122.37 50.9996 122.37C51.2444 122.36 51.4876 122.413 51.7063 122.523C51.9251 122.633 52.1121 122.798 52.2496 123C52.2496 123.83 51.9196 124.29 51.2496 124.29C50.849 124.281 50.4669 124.12 50.1796 123.84L49.7096 123.43L50.5496 123.28C50.0284 123.564 49.5739 123.957 49.2169 124.431C48.8598 124.906 48.6085 125.451 48.4796 126.03H47.7796L47.7696 124.86Z" fill="white"/>
<path d="M55.5196 127.85C55.5196 129.37 55.9696 129.9 56.9096 129.9C57.4143 129.867 57.9075 129.734 58.3606 129.509C58.8137 129.285 59.2178 128.972 59.5496 128.59H59.9296V129.49H59.0196L59.6296 129.22C59.2745 129.787 58.7866 130.259 58.2082 130.596C57.6297 130.932 56.9781 131.122 56.3096 131.15C54.9096 131.15 54.0296 130.31 54.0496 128.01V123.4L54.4296 123.74L52.8096 123.39V122.77L55.3796 122.53L55.5596 122.71L55.4696 125.15L55.5196 127.85ZM59.5896 131.06L59.3496 129.06L59.3996 123.43L59.7796 123.78L58.1596 123.43V122.82L60.6996 122.57L60.8796 122.75V125.19V130.44L60.4096 129.99L62.0596 130.34V130.96L59.5896 131.06Z" fill="white"/>
<path d="M67.4404 120V119.29H72.3704V120L70.0904 120.26H69.7304L67.4404 120ZM70.0904 130L72.3704 130.26V130.97H67.4404V130.26L69.7304 130H70.0904ZM69.0904 124.7C69.0904 122.9 69.0904 121.09 69.0304 119.29H70.7904C70.7304 121.05 70.7304 122.87 70.7304 124.7V125.56C70.7304 127.36 70.7304 129.17 70.7904 130.97H69.0304C69.0904 129.21 69.0904 127.39 69.0904 125.56V124.7Z" fill="white"/>
<path d="M75.1202 130.921C75.1202 130.141 75.1202 128.341 75.1202 127.261V126.431C75.1202 125.431 75.1202 124.931 75.1202 124.241L73.7402 124.081V123.461L76.1802 122.461L76.4402 122.631L76.6502 124.631V127.291C76.6502 128.371 76.6502 130.171 76.6502 130.951L75.1202 130.921ZM77.9002 130.301V130.921H73.9002V130.301L75.8002 129.951H76.2102L77.9002 130.301ZM81.9002 125.631V127.261C81.9002 128.371 81.9002 130.141 81.9602 130.921H80.4202C80.4202 130.141 80.4802 128.371 80.4802 127.261V125.771C80.4802 124.171 80.0702 123.661 79.0402 123.661C78.0618 123.715 77.1433 124.149 76.4802 124.871H76.1002V124.061H77.0102L76.2602 124.391C76.6541 123.823 77.1684 123.349 77.7665 123.004C78.3647 122.658 79.0318 122.449 79.7202 122.391C81.2302 122.411 81.9502 123.341 81.9502 125.631H81.9002ZM81.4602 130.001L83.2102 130.351V130.971H79.2102V130.351L81.1102 130.001H81.4602Z" fill="white"/>
<path d="M84.9002 123.61L83.2002 123.31V122.64H87.4302V123.31L85.3302 123.61H84.9002ZM85.5402 122.61L88.2302 129.61L87.4902 130.61L90.3002 122.61H91.3002L88.0802 131H87.3302L83.8002 122.62L85.5402 122.61ZM90.2702 123.61L88.5402 123.32V122.65H91.8502V123.32L90.6202 123.61H90.2702Z" fill="white"/>
<path d="M93.9295 130.921C93.9295 130.141 93.9295 128.341 93.9295 127.261V126.441C93.9295 125.441 93.9295 124.931 93.9295 124.241L92.5195 124.081V123.461L95.2095 122.461L95.4795 122.631L95.4195 125.001V127.311C95.4195 128.391 95.4195 130.191 95.4795 130.971L93.9295 130.921ZM96.6795 130.301V130.921H92.6795V130.301L94.5795 129.951H94.9795L96.6795 130.301ZM93.5095 119.361C93.5366 119.068 93.6721 118.795 93.8894 118.597C94.1068 118.399 94.3904 118.289 94.6845 118.289C94.9787 118.289 95.2623 118.399 95.4796 118.597C95.697 118.795 95.8325 119.068 95.8595 119.361C95.8325 119.653 95.697 119.926 95.4796 120.124C95.2623 120.322 94.9787 120.432 94.6845 120.432C94.3904 120.432 94.1068 120.322 93.8894 120.124C93.6721 119.926 93.5366 119.653 93.5095 119.361V119.361Z" fill="white"/>
<path d="M101.28 130.251C101.713 130.219 102.123 130.047 102.45 129.761L102.85 130.231C102.604 130.534 102.291 130.775 101.935 130.935C101.578 131.095 101.19 131.169 100.8 131.151C100.529 131.185 100.254 131.157 99.9959 131.068C99.7377 130.98 99.5031 130.834 99.3101 130.641C99.1171 130.448 98.9708 130.213 98.8823 129.955C98.7939 129.697 98.7657 129.422 98.7999 129.151C98.7999 128.721 98.7999 128.351 98.7999 127.671V123.561H97.3799V122.801L99.5399 122.521L98.8199 123.101L99.3799 120.261H100.44L100.3 123.321V129.001C100.3 129.861 100.69 130.251 101.28 130.251ZM102.68 122.641V123.561H99.5699V122.641H102.68Z" fill="white"/>
<path d="M106.58 126.331C107.465 126.024 108.37 125.78 109.29 125.601V126.231C108.493 126.404 107.711 126.638 106.95 126.931C105.42 127.531 105.23 128.191 105.23 128.711C105.218 128.892 105.246 129.074 105.313 129.243C105.38 129.412 105.484 129.564 105.617 129.687C105.75 129.811 105.91 129.903 106.083 129.958C106.256 130.012 106.44 130.027 106.62 130.001C107.22 130.001 107.56 129.781 108.62 129.001L108.99 128.731L109.23 129.091L108.71 129.611C107.71 130.611 107.09 131.141 106.01 131.141C105.709 131.171 105.405 131.136 105.118 131.04C104.831 130.943 104.568 130.786 104.347 130.58C104.126 130.374 103.951 130.123 103.834 129.843C103.717 129.564 103.661 129.263 103.67 128.961C103.68 128.001 104.23 127.181 106.58 126.331ZM108.58 129.331V125.331C108.58 123.631 108.11 123.211 106.96 123.211C106.418 123.209 105.881 123.314 105.38 123.521L106.11 122.971L105.67 124.461C105.52 125.001 105.24 125.291 104.76 125.291C104.659 125.302 104.557 125.292 104.461 125.262C104.364 125.231 104.275 125.181 104.198 125.114C104.122 125.047 104.061 124.966 104.018 124.874C103.975 124.782 103.952 124.682 103.95 124.581C104.27 123.251 105.57 122.421 107.36 122.421C109.15 122.421 110.06 123.251 110.06 125.421V129.141C110.06 129.901 110.29 130.141 110.69 130.141C110.824 130.136 110.954 130.098 111.071 130.032C111.187 129.966 111.287 129.873 111.36 129.761L111.72 130.141C111.579 130.421 111.362 130.656 111.092 130.817C110.823 130.978 110.513 131.059 110.2 131.051C109.974 131.06 109.749 131.021 109.54 130.937C109.33 130.853 109.141 130.726 108.984 130.563C108.827 130.401 108.707 130.207 108.63 129.995C108.553 129.782 108.523 129.556 108.54 129.331H108.58Z" fill="white"/>
<path d="M115.84 130.251C116.273 130.219 116.684 130.047 117.01 129.761L117.41 130.231C117.166 130.535 116.852 130.777 116.496 130.937C116.139 131.097 115.75 131.17 115.36 131.151C115.089 131.185 114.814 131.157 114.556 131.068C114.298 130.98 114.063 130.834 113.87 130.641C113.677 130.448 113.531 130.213 113.443 129.955C113.354 129.697 113.326 129.422 113.36 129.151C113.36 128.721 113.36 128.351 113.36 127.671V123.561H111.91V122.801L114.07 122.521L113.36 123.101L113.91 120.261H114.97L114.83 123.321V129.001C114.86 129.861 115.23 130.251 115.84 130.251ZM117.24 122.641V123.561H114.13V122.641H117.24Z" fill="white"/>
<path d="M119.37 130.92C119.37 130.14 119.37 128.34 119.37 127.26V126.44C119.37 125.44 119.37 124.93 119.37 124.24L117.95 124.08V123.46L120.65 122.46L120.91 122.63L120.86 125V127.31C120.86 128.39 120.86 130.19 120.91 130.97L119.37 130.92ZM122.11 130.3V130.92H118.11V130.3L120.02 129.95H120.42L122.11 130.3ZM118.95 119.36C118.95 119.05 119.073 118.753 119.293 118.533C119.512 118.314 119.81 118.19 120.12 118.19C120.43 118.19 120.728 118.314 120.948 118.533C121.167 118.753 121.29 119.05 121.29 119.36C121.29 119.671 121.167 119.968 120.948 120.188C120.728 120.407 120.43 120.53 120.12 120.53C119.81 120.53 119.512 120.407 119.293 120.188C119.073 119.968 118.95 119.671 118.95 119.36Z" fill="white"/>
<path d="M123.44 126.811C123.44 126.285 123.544 125.765 123.745 125.28C123.946 124.795 124.241 124.354 124.612 123.982C124.983 123.611 125.424 123.316 125.91 123.115C126.395 122.914 126.915 122.811 127.44 122.811C127.966 122.811 128.486 122.914 128.971 123.115C129.456 123.316 129.897 123.611 130.269 123.982C130.64 124.354 130.935 124.795 131.136 125.28C131.337 125.765 131.44 126.285 131.44 126.811C131.44 127.871 131.019 128.889 130.269 129.639C129.519 130.389 128.501 130.811 127.44 130.811C126.38 130.811 125.362 130.389 124.612 129.639C123.862 128.889 123.44 127.871 123.44 126.811V126.811ZM129.81 126.811C129.81 124.471 128.94 123.201 127.45 123.201C125.96 123.201 125.09 124.471 125.09 126.811C125.09 129.151 125.93 130.361 127.45 130.361C128.97 130.361 129.81 129.161 129.81 126.811V126.811Z" fill="white"/>
<path d="M134.23 130.921C134.23 130.141 134.23 128.341 134.23 127.261V126.431C134.23 125.431 134.23 124.931 134.23 124.241L132.85 124.081V123.461L135.28 122.461L135.55 122.631L135.75 124.631V127.291C135.75 128.371 135.75 130.171 135.81 130.951L134.23 130.921ZM137 130.301V130.921H133V130.301L134.9 129.951H135.3L137 130.301ZM141.06 125.631V127.261C141.06 128.371 141.06 130.141 141.11 130.921H139.53C139.53 130.141 139.58 128.371 139.58 127.261V125.771C139.58 124.171 139.17 123.661 138.14 123.661C137.164 123.715 136.249 124.15 135.59 124.871H135.23V124.061H136.13L135.39 124.391C135.781 123.823 136.293 123.349 136.89 123.003C137.486 122.657 138.152 122.448 138.84 122.391C140.32 122.411 141.05 123.341 141.05 125.631H141.06ZM140.57 129.951L142.31 130.301V130.921H138.31V130.301L140.21 129.951H140.57Z" fill="white"/>
<path d="M63.0896 14.3105H54.0196V17.0805H62.1396C70.7896 17.0805 75.8396 23.0805 75.8396 34.2105C75.8396 40.5805 74.2796 45.6605 70.9296 48.4905C70.9296 48.6705 70.9296 48.8005 71.1396 48.7405C74.51 47.4274 77.6649 45.6174 80.4996 43.3705L81.2096 41.4205C81.9576 39.0913 82.3256 36.6568 82.2996 34.2105C82.2496 21.3305 74.4396 14.3105 63.0896 14.3105ZM61.5796 51.2305H54.0196V54.0005H61.9596C62.2896 54.0005 63.7996 53.0005 66.4196 51.1205C64.8896 51.2305 63.5896 51.1405 61.5796 51.2305ZM56.7696 34.9305V32.6905C56.7696 27.4205 56.7696 22.2005 56.8796 17.0805C56.8796 16.1605 56.8796 15.2305 56.9496 14.3105H51.0196C51.0196 15.4205 51.0796 16.5205 51.0796 17.6205C51.1996 22.6205 51.1996 27.7005 51.1996 32.6905V34.9305C51.1996 40.6005 51.1996 45.7405 51.0996 50.7005C51.0996 51.8005 51.0996 52.9105 51.0196 53.9905H57.0196C57.0196 53.0705 57.0196 52.1505 56.9496 51.2305C56.7696 46.0005 56.7696 40.7005 56.7696 34.9305V34.9305ZM47.9096 50.7005L45.5996 54.0005H54.0196V50.7005H47.9096ZM45.5996 14.3105L47.9596 17.6205H53.9596V14.3105H45.5996Z" fill="white"/>
<path d="M89.6103 51.8L95.0203 51.17V48.75L85.3503 48.86C84.0603 49.86 82.8603 50.7 81.5903 51.55L83.7203 51.8C83.8303 56.91 83.8503 62.04 83.8503 67.13V70.05C83.8503 75.24 83.8503 80.36 83.7203 85.39L78.3203 86V88.41H95.0203V86L89.5703 85.37C89.4703 80.26 89.4503 75.13 89.4503 70.03V67.13C89.4903 62 89.5103 56.83 89.6103 51.8Z" fill="white"/>
<path d="M51.0898 72.0003C51.4209 69.2679 52.3275 66.6367 53.7498 64.2803C55.1483 61.8965 56.8677 59.7161 58.8598 57.8003C62.842 53.9658 67.5793 51.0028 72.7698 49.1003L76.3198 47.7703C76.8698 47.5703 77.4498 47.4003 77.9798 47.1703C78.5098 46.9403 79.0298 46.7003 79.5698 46.4803C80.6798 46.0703 81.6298 45.4803 82.6798 44.9803C83.2098 44.7403 83.6798 44.3903 84.1398 44.1203C84.6445 43.8617 85.1262 43.5606 85.5798 43.2203C87.4669 41.9633 89.1356 40.4061 90.5198 38.6103C92.0106 36.6781 93.0679 34.4476 93.6198 32.0703V31.9803C93.6257 31.9547 93.6366 31.9305 93.6519 31.9091C93.6671 31.8877 93.6865 31.8695 93.7087 31.8556C93.731 31.8417 93.7559 31.8323 93.7818 31.8279C93.8077 31.8236 93.8342 31.8244 93.8598 31.8303C93.901 31.8384 93.9385 31.8591 93.9672 31.8896C93.9959 31.9201 94.0143 31.9588 94.0198 32.0003C94.2239 34.6199 93.7268 37.2465 92.5798 39.6103C91.4169 41.953 89.7987 44.0403 87.8198 45.7503C84.0198 49.3003 79.0198 51.3003 74.2998 53.0903C69.5181 54.8264 65.0373 57.2996 61.0198 60.4203C59.0203 61.9884 57.1903 63.7614 55.5598 65.7103C53.8962 67.6246 52.5309 69.7788 51.5098 72.1003C51.4892 72.1445 51.4539 72.1802 51.4099 72.2011C51.3659 72.2221 51.3159 72.2271 51.2686 72.2153C51.2213 72.2035 51.1796 72.1755 51.1506 72.1363C51.1217 72.0971 51.1072 72.049 51.1098 72.0003H51.0898Z" fill="white"/>
<path d="M70.71 103.86C99.2686 103.86 122.42 80.7091 122.42 52.1504C122.42 23.5918 99.2686 0.44043 70.71 0.44043C42.1514 0.44043 19 23.5918 19 52.1504C19 80.7091 42.1514 103.86 70.71 103.86Z" stroke="white" stroke-width="2" stroke-miterlimit="10"/>
</svg>
