<svg width="135" height="254" viewBox="0 0 135 254" fill="none" xmlns="http://www.w3.org/2000/svg">
<path d="M24.0317 253.662H22.0317C22.0317 253.362 22.3317 218.962 30.6317 174.962C38.3317 134.362 54.5317 77.0616 88.4317 34.6616L90.0317 35.9616C56.4317 78.0616 40.2317 135.062 32.6317 175.462C24.2317 219.162 24.0317 253.362 24.0317 253.662Z" fill="#506B34"/>
<path d="M85.1318 40.3613C85.1318 40.3613 97.4318 13.9613 114.632 9.16126C121.632 6.46126 117.132 14.4613 108.432 20.1613C99.8318 25.8613 85.1318 40.3613 85.1318 40.3613Z" fill="#506B34"/>
<path d="M81.1318 46.0613C81.1318 46.0613 103.032 26.5614 122.732 27.3614C130.432 28.5614 124.432 36.6614 113.532 37.3614C102.632 37.9614 81.1318 46.0613 81.1318 46.0613Z" fill="#506B34"/>
<path d="M74.8318 55.5617C74.8318 55.5617 94.5318 40.9617 113.232 42.4617C131.932 43.9617 123.532 51.1617 115.232 49.7617C106.832 48.4617 87.7318 50.5617 74.8318 55.5617Z" fill="#506B34"/>
<path d="M67.6318 67.0617C67.6318 67.0617 87.3318 52.4617 105.932 53.9617C124.532 55.4617 116.232 62.6617 107.932 61.2617C99.6318 59.9617 80.6318 62.0617 67.6318 67.0617Z" fill="#506B34"/>
<path d="M79.6318 47.6615C79.6318 47.6615 87.9318 19.5615 78.8318 2.16146C74.5318 -4.23854 69.7318 4.66146 73.7318 14.6615C77.7318 24.7615 79.6318 47.6615 79.6318 47.6615Z" fill="#506B34"/>
<path d="M73.6318 57.4615C73.6318 57.4615 78.4318 33.4615 69.1318 17.1615C59.8318 0.86152 56.9318 11.4615 61.6318 18.4615C66.4318 25.4615 72.7318 43.5615 73.6318 57.4615Z" fill="#506B34"/>
<path d="M66.3318 68.8614C66.3318 68.8614 71.1318 44.8614 61.8318 28.5614C52.5318 12.2614 49.6318 22.8614 54.3318 29.8614C59.1318 36.8614 65.4318 54.9614 66.3318 68.8614Z" fill="#506B34"/>
<path d="M61.3319 79.4613C61.3319 79.4613 64.6319 50.3613 52.5319 34.7613C47.1319 29.1613 43.9319 38.7613 49.6319 48.0613C55.4319 57.2613 61.3319 79.4613 61.3319 79.4613Z" fill="#506B34"/>
<path d="M57.2317 90.1615C57.2317 90.1615 57.7317 65.6615 45.7317 51.2615C33.7317 36.8615 32.7317 47.8615 38.6317 53.8615C44.5317 59.9615 53.8317 76.5615 57.2317 90.1615Z" fill="#506B34"/>
<path d="M51.9319 102.661C51.9319 102.661 52.4319 78.1615 40.4319 63.7615C28.4319 49.3615 27.4319 60.3615 33.3319 66.3615C39.2319 72.3615 48.6319 89.0615 51.9319 102.661Z" fill="#506B34"/>
<path d="M47.8318 114.262C47.8318 114.262 49.5318 84.9617 36.6318 70.1617C30.9318 64.8617 28.3318 74.6617 34.5318 83.5617C40.6318 92.4617 47.8318 114.262 47.8318 114.262Z" fill="#506B34"/>
<path d="M44.2318 125.162C44.2318 125.162 43.4318 100.662 30.6318 86.9616C17.8318 73.2616 17.4318 84.2616 23.6318 89.9616C29.8318 95.6616 40.1318 111.862 44.2318 125.162Z" fill="#506B34"/>
<path d="M39.7318 137.961C39.7318 137.961 38.9318 113.461 26.1318 99.7614C13.3318 86.0614 12.9318 97.0614 19.1318 102.761C25.3318 108.461 35.6318 124.661 39.7318 137.961Z" fill="#506B34"/>
<path d="M37.6318 145.961C37.6318 145.961 36.0318 121.161 23.7318 109.161C18.4318 104.961 17.2318 113.261 23.3318 120.561C29.3318 127.861 37.6318 145.961 37.6318 145.961Z" fill="#506B34"/>
<path d="M35.7319 155.362C35.7319 155.362 32.5319 134.762 20.4319 123.662C8.33185 112.562 9.13185 121.862 14.9319 126.462C20.7319 130.962 30.9319 144.262 35.7319 155.362Z" fill="#506B34"/>
<path d="M33.2319 166.262C33.2319 166.262 30.0319 145.662 17.9319 134.562C5.83185 123.462 6.63185 132.762 12.4319 137.362C18.2319 141.962 28.4319 155.162 33.2319 166.262Z" fill="#506B34"/>
<path d="M30.7318 178.662C30.7318 178.662 26.5318 154.162 13.0318 143.462C7.33181 139.862 7.03181 148.262 13.8318 154.862C20.6318 161.462 30.7318 178.662 30.7318 178.662Z" fill="#506B34"/>
<path d="M29.8318 188.161C29.8318 188.161 24.4318 167.961 11.2318 158.261C-1.96816 148.561 -0.168161 157.761 6.03184 161.661C12.3318 165.561 23.9318 177.661 29.8318 188.161Z" fill="#506B34"/>
<g opacity="0.3">
<path d="M89.1318 46.0613C89.1318 46.0613 111.032 26.5614 130.732 27.3614C138.432 28.5614 132.432 36.6614 121.532 37.3614C110.632 37.9614 89.1318 46.0613 89.1318 46.0613Z" fill="#506B34"/>
</g>
<g opacity="0.3">
<path d="M82.8318 55.5617C82.8318 55.5617 102.532 40.9617 121.232 42.4617C139.932 43.9617 131.532 51.1617 123.232 49.7617C114.832 48.4617 95.7318 50.5617 82.8318 55.5617Z" fill="#506B34"/>
</g>
<g opacity="0.3">
<path d="M75.6318 67.0617C75.6318 67.0617 95.3318 52.4617 113.932 53.9617C132.532 55.4617 124.232 62.6617 115.932 61.2617C107.632 59.9617 88.6318 62.0617 75.6318 67.0617Z" fill="#506B34"/>
</g>
<g opacity="0.3">
<path d="M69.8318 79.5617C69.8318 79.5617 89.5318 64.9617 108.232 66.4617C126.932 67.9617 118.532 75.1617 110.232 73.7617C101.832 72.4617 82.7318 74.5617 69.8318 79.5617Z" fill="#506B34"/>
</g>
<g opacity="0.3">
<path d="M64.6318 90.5613C64.6318 90.5613 83.0318 74.3613 101.732 74.3613C120.432 74.3613 112.732 82.1613 104.332 81.4613C95.9318 80.8613 77.1318 84.4613 64.6318 90.5613Z" fill="#506B34"/>
</g>
<g opacity="0.3">
<path d="M58.5317 104.862C58.5317 104.862 76.9317 88.6616 95.6317 88.6616C114.332 88.6616 106.632 96.4616 98.2318 95.7616C89.8318 95.2616 71.0317 98.7616 58.5317 104.862Z" fill="#506B34"/>
</g>
<path d="M28.5318 199.361C28.5318 199.361 23.1318 179.161 9.93179 169.461C-3.26821 159.761 -1.46821 168.961 4.73179 172.861C11.0318 176.761 22.6318 188.861 28.5318 199.361Z" fill="#506B34"/>
<path d="M61.8318 79.5617C61.8318 79.5617 81.5318 64.9617 100.232 66.4617C118.932 67.9617 110.532 75.1617 102.232 73.7617C93.8318 72.4617 74.7318 74.5617 61.8318 79.5617Z" fill="#506B34"/>
<path d="M56.6318 90.5613C56.6318 90.5613 75.0318 74.3613 93.7318 74.3613C112.432 74.3613 104.732 82.1613 96.3318 81.4613C87.9318 80.8613 69.1318 84.4613 56.6318 90.5613Z" fill="#506B34"/>
<path d="M50.5317 104.862C50.5317 104.862 68.9317 88.6616 87.6317 88.6616C106.332 88.6616 98.6318 96.4616 90.2318 95.7616C81.8318 95.2616 63.0317 98.7616 50.5317 104.862Z" fill="#506B34"/>
<path d="M47.8318 112.662C47.8318 112.662 68.7318 99.9616 87.2318 103.162C105.732 106.362 96.7318 112.762 88.5318 110.662C80.4318 108.562 61.3318 108.762 47.8318 112.662Z" fill="#506B34"/>
<path d="M43.8318 123.961C43.8318 123.961 61.4318 110.961 76.6318 113.861C91.8318 116.761 84.3318 123.261 77.6318 121.361C70.9318 119.361 55.0318 119.961 43.8318 123.961Z" fill="#506B34"/>
<path d="M40.4319 135.561C40.4319 135.561 54.8319 119.061 70.3319 118.761C85.8319 118.461 79.8319 126.361 72.8319 125.861C65.8319 125.361 50.4319 129.261 40.4319 135.561Z" fill="#506B34"/>
<path d="M37.5317 147.962C37.5317 147.962 51.9317 131.462 67.4317 131.162C82.9317 130.862 76.9317 138.762 69.9317 138.262C63.0317 137.662 47.6317 141.562 37.5317 147.962Z" fill="#506B34"/>
<path d="M35.9319 156.062C35.9319 156.062 48.0319 139.862 61.3319 139.762C74.6319 139.662 69.6319 147.462 63.6319 146.862C57.5319 146.262 44.4319 149.862 35.9319 156.062Z" fill="#506B34"/>
<path d="M32.2317 169.762C32.2317 169.762 45.6317 153.462 60.2317 153.162C74.8317 152.862 69.2317 160.762 62.6317 160.262C56.1317 159.662 41.6317 163.462 32.2317 169.762Z" fill="#506B34"/>
<path d="M29.2317 186.361C29.2317 186.361 42.6317 170.061 57.2317 169.761C71.8317 169.461 66.2317 177.361 59.6317 176.861C53.1317 176.261 38.6317 180.061 29.2317 186.361Z" fill="#506B34"/>
<path d="M26.4319 204.762C26.4319 204.762 39.8319 188.462 54.4319 188.162C69.0319 187.862 63.4319 195.762 56.8319 195.262C50.3319 194.662 35.8319 198.462 26.4319 204.762Z" fill="#506B34"/>
</svg>
