<svg width="196" height="109" viewBox="0 0 196 109" fill="none" xmlns="http://www.w3.org/2000/svg">
<path d="M26.3 32.4C35.247 32.4 42.5 25.147 42.5 16.2C42.5 7.253 35.247 0 26.3 0C17.353 0 10.1 7.253 10.1 16.2C10.1 25.147 17.353 32.4 26.3 32.4Z" fill="white"/>
<path d="M33.2 109H19.4C16.3 109 13.7 106.4 13.7 103.3V41.6C13.7 38.5 16.3 35.9 19.4 35.9H33.2C36.3 35.9 38.9 38.5 38.9 41.6V103.3C38.9 106.4 36.3 109 33.2 109Z" fill="white"/>
<path d="M46.7 86.8C43.7 86.8 41.3 84.4 41.3 81.4V43.1C41.3 40.1 43.7 37.7 46.7 37.7C49.7 37.7 52.1 40.1 52.1 43.1V81.4C52.1 84.4 49.6 86.8 46.7 86.8Z" fill="white"/>
<path d="M6 86.8C3 86.8 0.599976 84.4 0.599976 81.4V43.1C0.599976 40.1 3 37.7 6 37.7C9 37.7 11.4 40.1 11.4 43.1V81.4C11.3 84.4 8.9 86.8 6 86.8Z" fill="white"/>
<path d="M169.7 32.4C178.647 32.4 185.9 25.147 185.9 16.2C185.9 7.253 178.647 0 169.7 0C160.753 0 153.5 7.253 153.5 16.2C153.5 25.147 160.753 32.4 169.7 32.4Z" fill="white"/>
<path d="M176.6 109H162.8C159.7 109 157.1 106.4 157.1 103.3V41.6C157.1 38.5 159.7 35.9 162.8 35.9H176.6C179.7 35.9 182.3 38.5 182.3 41.6V103.3C182.3 106.4 179.7 109 176.6 109Z" fill="white"/>
<path d="M190 85.8C187 85.8 184.6 83.4 184.6 80.4V42.1C184.6 39.1 187 36.7 190 36.7C193 36.7 195.4 39.1 195.4 42.1V80.4C195.4 83.4 193 85.8 190 85.8Z" fill="white"/>
<path d="M149.3 85.8C146.3 85.8 143.9 83.4 143.9 80.4V42.1C143.9 39.1 146.3 36.7 149.3 36.7C152.3 36.7 154.7 39.1 154.7 42.1V80.4C154.7 83.4 152.3 85.8 149.3 85.8Z" fill="white"/>
<path d="M81 49H64V53H81V49Z" fill="white"/>
<path d="M106 49H89V53H106V49Z" fill="white"/>
<path d="M130 49H113V53H130V49Z" fill="white"/>
</svg>
