<svg width="305" height="206" viewBox="0 0 305 206" fill="none" xmlns="http://www.w3.org/2000/svg">
<path d="M152.3 0.800041C160.7 0.900041 169 4.00004 176.3 8.10004C183.6 12.2 189.9 17.7 196.5 22.8C213.1 35.8 231.6 46.2 249 57.8C262.6 90 260.2 128.6 241.3 159.3C214.9 179.9 184.5 195.6 152.4 205.1C120.2 195.6 89.9 180 63.5 159.3C44.6 128.6 42.2 90 55.8 57.8C73.2 46.2 91.6 35.8 108.3 22.8C114.9 17.7 121.2 12.1 128.5 8.10004C136.2 3.70004 143.2 0.600041 152.3 0.800041Z" fill="white"/>
<path d="M152.3 202.7C121 193.4 90.8 177.8 65 157.8C56.1 143.2 50.7 126.4 49.5 109C48.3 92 51 74.8 57.4 59.3C63 55.6 68.7 52 74.3 48.4C86 41 98.2 33.3 109.4 24.6C110.8 23.5 112.3 22.3 113.7 21.2C118.7 17.2 123.8 13.2 129.3 10.1C137.1 5.70001 143.5 3 151.6 3C151.8 3 152 3 152.2 3C159.3 3.1 167 5.5 175.2 10C180.7 13.1 185.9 17.2 190.8 21.1C192.2 22.2 193.6 23.4 195.1 24.5C206.3 33.2 218.4 40.9 230.2 48.3C235.8 51.8 241.6 55.5 247.1 59.2C253.5 74.7 256.2 91.8 255 108.9C253.8 126.3 248.4 143.2 239.5 157.7C213.7 177.8 183.6 193.4 152.3 202.7Z" stroke="#EDEAFC" stroke-width="0.749" stroke-miterlimit="10" stroke-dasharray="0.75 0.75"/>
<path d="M152.3 200.4C121.6 191.2 92.1 175.9 66.7 156.3C58.1 142.1 52.9 125.7 51.7 108.8C50.5 92.4 53.1 75.8 59.2 60.8C64.6 57.3 70.1 53.7 75.5 50.4C87.3 42.9 99.5 35.2 110.8 26.4C112.2 25.3 113.7 24.1 115.1 23C120 19.1 125 15.1001 130.4 12.1001C137.9 7.90005 144 5.30005 151.6 5.30005C151.8 5.30005 152 5.30005 152.1 5.30005C158.8 5.40005 166.2 7.70005 174 12.1001C179.4 15.1001 184.4 19.1 189.3 23C190.7 24.1 192.2 25.3 193.6 26.4C204.9 35.2 217.1 42.9 228.9 50.3C234.3 53.7 239.8 57.2 245.2 60.8C251.3 75.8 253.9 92.4 252.7 108.8C251.5 125.7 246.3 142.1 237.7 156.3C212.5 175.9 183 191.1 152.3 200.4Z" stroke="#EDEAFC" stroke-width="0.749" stroke-miterlimit="10" stroke-dasharray="0.75 0.75"/>
<path d="M236.5 88.1C254.3 82.4 265.6 61.9 270 50C274.6 37.2 283.4 14.1 291.9 17.5C308.1 27.3 302.2 75.5 293.7 98.6C283.7 125.8 261.5 137.3 237.9 135.2" stroke="white" stroke-width="5.0512" stroke-miterlimit="10" stroke-linecap="round" stroke-linejoin="round"/>
<path d="M68.8 88.1C51 82.4 39.7 61.9 35.3 50C30.7 37.2 21.9 14.1 13.4 17.5C-2.80001 27.3 3.1 75.5 11.6 98.6C21.6 125.8 43.8 137.3 67.4 135.2" stroke="white" stroke-width="5.0512" stroke-miterlimit="10" stroke-linecap="round" stroke-linejoin="round"/>
<path opacity="0.65" d="M88.7 76L141.7 97.6" stroke="#F1EFFD" stroke-width="1.498" stroke-miterlimit="10" stroke-linecap="round"/>
<path opacity="0.65" d="M88.7 138.2L141.7 159.9" stroke="#F1EFFD" stroke-width="1.498" stroke-miterlimit="10" stroke-linecap="round"/>
<path d="M236.5 137.7C236.5 139.3 236 141.4 234.5 141.3C233 141.3 232.6 139.3 232.6 137.8C232.6 133.2 232.7 128.5 232.7 123.9C232.7 122.7 232.9 121.2 234 120.8C235 120.4 236.1 121.4 236.4 122.4C236.6 123.5 236.4 132.7 236.5 137.7Z" fill="#EDEAFC"/>
<path d="M236.5 93.3C236.5 94.9 236 97 234.5 96.9C233 96.9 232.6 94.9 232.6 93.4C232.6 88.8 232.7 84.1 232.7 79.5C232.7 78.3 232.9 76.8 234 76.4C235 76 236.1 77 236.4 78C236.6 79.1 236.4 88.3 236.5 93.3Z" fill="#EDEAFC"/>
<path d="M195.6 34.5C195.2 35.7 193.9 36.4 192.7 36C186.8 33.8 181.6 30 176.6 26.3C175.4 25.4 174.3 24.6 173.1 23.7C165.4 18.2 159 15.8 152.3 15.8C145.6 15.8 139.2 18.2 131.5 23.7C130.3 24.5 129.2 25.4 128 26.3C123 30 117.9 33.7 111.9 35.9C110.7 36.4 109.3 35.7 109 34.4C108.7 33.3 109.3 32.1 110.4 31.7C115.7 29.7 120.4 26.3 125.3 22.7C126.5 21.8 127.7 21.0001 128.9 20.1001C137.4 14.0001 144.7 11.3 152.3 11.3C160 11.3 167.2 14.0001 175.7 20.1001C176.9 20.9001 178.1 21.8 179.3 22.7C184.2 26.3 188.9 29.8 194.2 31.7C195.3 32.2 196 33.4 195.6 34.5Z" fill="white"/>
<path d="M207.7 37.8C205.3 42.3 201.1 49.9 199.7 52.6C188.9 41.8 171 26.2 152.3 25.6C133.6 26.2 115.8 41.7 104.9 52.6C103.5 49.9 99.1 42 96.7 37.6" stroke="white" stroke-width="1.498" stroke-miterlimit="10" stroke-linejoin="round" stroke-dasharray="0.75 0.75"/>
<path opacity="0.65" d="M215.9 76L162.8 97.6" stroke="#F1EFFD" stroke-width="1.498" stroke-miterlimit="10" stroke-linecap="round"/>
<path opacity="0.65" d="M215.9 138.2L162.8 159.9" stroke="#F1EFFD" stroke-width="1.498" stroke-miterlimit="10" stroke-linecap="round"/>
<path d="M152.9 25.6C153.1 33 153.1 40.3 153.3 47.7L153.5 69.8C153.6 84.5 153.6 99.3 153.7 114L153.5 158.2L153.3 180.3C153.2 187.7 153.1 195 152.9 202.4C152.7 195 152.7 187.7 152.5 180.3L152.3 158.2L152.1 114C152.2 99.3 152.2 84.5 152.3 69.8L152.5 47.7C152.6 40.4 152.7 33 152.9 25.6Z" fill="#EDEAFC"/>
<path d="M68.1 137.7C68.1 139.3 68.6 141.4 70.1 141.3C71.6 141.3 72 139.3 72 137.8C72 133.2 71.9 128.5 71.9 123.9C71.9 122.7 71.7 121.2 70.6 120.8C69.6 120.4 68.5 121.4 68.2 122.4C67.9 123.5 68.2 132.7 68.1 137.7Z" fill="#EDEAFC"/>
<path d="M68.1 93.3C68.1 94.9 68.6 97 70.1 96.9C71.6 96.9 72 94.9 72 93.4C72 88.8 71.9 84.1 71.9 79.5C71.9 78.3 71.7 76.8 70.6 76.4C69.6 76 68.5 77 68.2 78C67.9 79.1 68.2 88.3 68.1 93.3Z" fill="#EDEAFC"/>
<path opacity="0.16" d="M196.5 22.8C189.9 17.7 183.6 12.1001 176.3 8.10005C169.1 4.10005 161.1 1.10005 152.9 0.800049V204.9C184.8 195.4 215 179.9 241.3 159.3C260.2 128.6 262.6 90 249 57.8C231.5 46.2 213.1 35.8 196.5 22.8Z" fill="#B9B7E4"/>
</svg>
