<svg xmlns="http://www.w3.org/2000/svg" viewBox="0 0 75.05 77.18"><defs><style>.cls-1,.cls-2{fill:none;stroke:#fff;}.cls-1{stroke-miterlimit:10;}.cls-2{stroke-linecap:round;stroke-linejoin:round;}</style></defs><title>terompet icon</title><g id="Layer_2" data-name="Layer 2"><g id="Layer_1-2" data-name="Layer 1"><path class="cls-1" d="M68.38,45.91,58,50.71l-8,3.69-8.89,4.13-6.41,3L28,64.63l-4.84,2.24-5,2.34L14.28,71,9.8,73.09l-3,1.41L2.33,76.56a1.28,1.28,0,0,1-1.7-1.71l2.06-4.42,1.41-3,2.09-4.46L8,59.07l2.34-5,2.24-4.81,3.14-6.73,3-6.39,4.14-8.86,3.68-7.9,5-10.67"/><path class="cls-1" d="M9.8,73.09l-3,1.41a26.7,26.7,0,0,1-4.07-4.07l1.41-3a27,27,0,0,0,2.63,3A26.57,26.57,0,0,0,9.8,73.09Z"/><path class="cls-1" d="M18.16,69.21,14.28,71A33.13,33.13,0,0,1,9.87,67.3a34.75,34.75,0,0,1-3.68-4.36L8,59.07A33.5,33.5,0,0,0,18.16,69.21Z"/><path class="cls-1" d="M28,64.63l-4.84,2.24A38.77,38.77,0,0,1,16,61.16,39.14,39.14,0,0,1,10.34,54l2.24-4.81A38.1,38.1,0,0,0,19.19,58,37.59,37.59,0,0,0,28,64.63Z"/><path class="cls-1" d="M58,50.71l-8,3.69A57.3,57.3,0,0,1,34.2,43,57.41,57.41,0,0,1,22.85,27.25l3.68-7.9A55,55,0,0,0,39.15,38,54.62,54.62,0,0,0,58,50.71Z"/><path class="cls-1" d="M41.19,58.53l-6.41,3A49.36,49.36,0,0,1,24,53.21,50.47,50.47,0,0,1,15.72,42.5l3-6.39a48.45,48.45,0,0,0,9.4,13A48.27,48.27,0,0,0,41.19,58.53Z"/><ellipse class="cls-1" cx="50.4" cy="26.77" rx="7.48" ry="26.25" transform="translate(-4.17 43.48) rotate(-45)"/><path class="cls-1" d="M60.2,14.25a3,3,0,0,1,.8,1,9.64,9.64,0,0,1,1.72-1.94,1.74,1.74,0,0,0-.66-1.07A11.15,11.15,0,0,0,60.2,14.25Z"/><path class="cls-1" d="M57,32.2a2.55,2.55,0,0,1,1-1.56,9.08,9.08,0,0,0-2.86-.78,4.2,4.2,0,0,0-.34,1.73A5.31,5.31,0,0,1,57,32.2Z"/><path class="cls-1" d="M39.12,14.94a1.66,1.66,0,0,0,1.06,0,1.75,1.75,0,0,1-.1-1.1,2.33,2.33,0,0,0-1-.18A3.31,3.31,0,0,1,39.12,14.94Z"/><path class="cls-1" d="M41.66,2.25a4.56,4.56,0,0,1-1.22,1.47,13.71,13.71,0,0,1,3.33,1.85A2.54,2.54,0,0,0,45.1,4.28,16.58,16.58,0,0,0,41.66,2.25Z"/><path class="cls-1" d="M49.08,19.09a10.82,10.82,0,0,1-3.93,1.63,3.5,3.5,0,0,0,1,2,14.33,14.33,0,0,0,4.14-1.4C49.35,20.56,49,20,49.08,19.09Z"/><path class="cls-1" d="M53.74,10.23a.72.72,0,0,1-.18-.55,5.82,5.82,0,0,0-1.51.57,1.31,1.31,0,0,0,.21.68A3.17,3.17,0,0,1,53.74,10.23Z"/><path class="cls-1" d="M67.28,35.57a2,2,0,0,0-.71-1.22,12.61,12.61,0,0,1-3.85,2.39A2.09,2.09,0,0,1,63.21,38,11.32,11.32,0,0,0,67.28,35.57Z"/><polygon class="cls-2" points="60.51 6.95 58.26 6 56.2 7.32 56.41 4.88 54.52 3.33 56.9 2.77 57.79 0.5 59.05 2.59 61.49 2.74 59.89 4.58 60.51 6.95"/><polygon class="cls-2" points="67.85 24.32 66.65 23.81 65.54 24.52 65.65 23.21 64.64 22.38 65.92 22.08 66.39 20.86 67.07 21.99 68.38 22.06 67.52 23.05 67.85 24.32"/><polygon class="cls-2" points="74.03 28.4 72.82 27.89 71.72 28.6 71.83 27.29 70.81 26.46 72.09 26.16 72.57 24.94 73.25 26.06 74.55 26.14 73.7 27.13 74.03 28.4"/></g></g></svg>