<svg xmlns="http://www.w3.org/2000/svg" viewBox="0 0 80.91 81.52"><defs><style>.cls-1{fill:none;stroke:#fff;stroke-linecap:round;stroke-linejoin:round;stroke-width:5px;}</style></defs><title>undangan</title><g id="Layer_2" data-name="Layer 2"><g id="Layer_1-2" data-name="Layer 1"><polyline class="cls-1" points="26.09 14.45 13.28 14.45 12.93 25.57"/><polyline class="cls-1" points="67.14 24.84 66.99 14.45 54.64 14.45"/><polygon class="cls-1" points="40.25 2.5 26.09 14.45 54.64 14.45 40.25 2.5"/><polygon class="cls-1" points="67.14 24.84 67.48 48.86 58.91 59.07 40.99 58.96 20.45 58.83 12.22 48.37 12.93 25.57 2.5 34.37 2.5 79.02 78.42 79.02 78.42 34.2 67.14 24.84"/><path class="cls-1" d="M40.34,46C27.29,38.51,28.91,32,28.91,32c3.08-9.56,11.43-3.73,11.43-3.73S48.68,22.39,51.76,32C51.76,32,53.38,38.51,40.34,46Z"/><polygon class="cls-1" points="2.5 36 20.45 58.83 58.91 59.07 78.42 35.84 78.42 79.02 58.91 59.07 20.45 58.83 2.5 79.02 2.5 36"/></g></g></svg>